G04 Layer_Physical_Order=1*
G04 Layer_Color=255*
%FSLAX25Y25*%
%MOIN*%
G70*
G01*
G75*
%ADD10C,0.01969*%
%ADD11C,0.01000*%
%ADD12R,0.07874X0.07874*%
%ADD13C,0.07874*%
%ADD14C,0.11811*%
%ADD15C,0.05512*%
%ADD16C,0.13780*%
%ADD17R,0.05906X0.05906*%
%ADD18C,0.05906*%
%ADD19C,0.05000*%
%ADD20C,0.02559*%
G36*
X484471Y213029D02*
X211029D01*
X211029Y407971D01*
X484471D01*
Y213029D01*
D02*
G37*
%LPC*%
G36*
X232214Y257000D02*
X230000D01*
Y254786D01*
X230219Y254815D01*
X230890Y255093D01*
X231466Y255535D01*
X231907Y256110D01*
X232185Y256781D01*
X232214Y257000D01*
D02*
G37*
G36*
X229000Y260214D02*
X228781Y260185D01*
X228110Y259907D01*
X227535Y259466D01*
X227093Y258890D01*
X226815Y258219D01*
X226786Y258000D01*
X229000D01*
Y260214D01*
D02*
G37*
G36*
X323625Y362288D02*
X322644Y362159D01*
X321731Y361781D01*
X320946Y361179D01*
X320344Y360394D01*
X319966Y359481D01*
X319837Y358500D01*
X319945Y357681D01*
X309287Y347023D01*
X272000D01*
X271226Y346869D01*
X270569Y346431D01*
X259569Y335431D01*
X259131Y334774D01*
X258977Y334000D01*
Y307000D01*
X259131Y306226D01*
X259569Y305569D01*
X265820Y299319D01*
X265712Y298500D01*
X265841Y297519D01*
X266219Y296606D01*
X266821Y295821D01*
X267606Y295219D01*
X268519Y294841D01*
X269500Y294712D01*
X270480Y294841D01*
X271394Y295219D01*
X272179Y295821D01*
X272781Y296606D01*
X273159Y297519D01*
X273288Y298500D01*
X273159Y299481D01*
X272932Y300029D01*
X279802Y306900D01*
X280264Y306708D01*
Y239810D01*
X279802Y239619D01*
X278523Y240898D01*
Y260000D01*
X278369Y260774D01*
X277931Y261431D01*
X271523Y267838D01*
Y275318D01*
X272179Y275821D01*
X272781Y276606D01*
X273159Y277519D01*
X273288Y278500D01*
X273159Y279481D01*
X272781Y280394D01*
X272179Y281179D01*
X271394Y281781D01*
X270480Y282159D01*
X269500Y282288D01*
X268681Y282181D01*
X258023Y292838D01*
Y335162D01*
X270838Y347977D01*
X290209D01*
X290983Y348131D01*
X291639Y348569D01*
X297786Y354716D01*
X298730Y354841D01*
X299644Y355219D01*
X300429Y355821D01*
X301031Y356606D01*
X301409Y357520D01*
X301538Y358500D01*
X301409Y359481D01*
X301031Y360394D01*
X300429Y361179D01*
X299644Y361781D01*
X298730Y362159D01*
X297750Y362288D01*
X296769Y362159D01*
X295856Y361781D01*
X295071Y361179D01*
X294469Y360394D01*
X294091Y359481D01*
X293962Y358500D01*
X294091Y357520D01*
X294318Y356971D01*
X289371Y352023D01*
X270000D01*
X269226Y351869D01*
X268569Y351431D01*
X254569Y337431D01*
X254131Y336774D01*
X253977Y336000D01*
Y292000D01*
X254131Y291226D01*
X254569Y290569D01*
X265820Y279319D01*
X265712Y278500D01*
X265841Y277519D01*
X266219Y276606D01*
X266821Y275821D01*
X267477Y275318D01*
Y267000D01*
X267631Y266226D01*
X268069Y265569D01*
X274477Y259162D01*
Y240060D01*
X274631Y239286D01*
X275069Y238629D01*
X278714Y234985D01*
X278522Y234523D01*
X274838D01*
X273181Y236181D01*
X273288Y237000D01*
X273159Y237981D01*
X272781Y238894D01*
X272179Y239679D01*
X271394Y240281D01*
X270480Y240659D01*
X269500Y240788D01*
X268681Y240681D01*
X248023Y261338D01*
Y355318D01*
X248679Y355821D01*
X249281Y356606D01*
X249659Y357520D01*
X249788Y358500D01*
X249659Y359481D01*
X249281Y360394D01*
X248679Y361179D01*
X247894Y361781D01*
X246981Y362159D01*
X246000Y362288D01*
X245020Y362159D01*
X244106Y361781D01*
X243321Y361179D01*
X242719Y360394D01*
X242341Y359481D01*
X242212Y358500D01*
X242341Y357520D01*
X242719Y356606D01*
X243321Y355821D01*
X243977Y355318D01*
Y260500D01*
X244131Y259726D01*
X244569Y259069D01*
X265820Y237819D01*
X265712Y237000D01*
X265841Y236019D01*
X266219Y235106D01*
X266821Y234321D01*
X267606Y233719D01*
X268519Y233341D01*
X269500Y233212D01*
X270319Y233319D01*
X272569Y231069D01*
X273226Y230631D01*
X274000Y230477D01*
X284767D01*
X284946Y229977D01*
X284251Y229407D01*
X283388Y228355D01*
X282747Y227155D01*
X282352Y225854D01*
X282219Y224500D01*
X282352Y223146D01*
X282747Y221845D01*
X283388Y220645D01*
X284251Y219593D01*
X285302Y218730D01*
X286502Y218089D01*
X287804Y217694D01*
X289158Y217561D01*
X290511Y217694D01*
X291813Y218089D01*
X293012Y218730D01*
X294064Y219593D01*
X294927Y220645D01*
X295568Y221845D01*
X295963Y223146D01*
X296096Y224500D01*
X295963Y225854D01*
X295568Y227155D01*
X294927Y228355D01*
X294064Y229407D01*
X293369Y229977D01*
X293548Y230477D01*
X321973D01*
X324802Y227648D01*
X324519Y227224D01*
X323950Y227460D01*
X322661Y227629D01*
X321373Y227460D01*
X320172Y226962D01*
X319140Y226171D01*
X318349Y225139D01*
X317932Y224133D01*
X317391D01*
X316974Y225139D01*
X316182Y226171D01*
X315151Y226962D01*
X313950Y227460D01*
X312661Y227629D01*
X311373Y227460D01*
X310172Y226962D01*
X309140Y226171D01*
X308349Y225139D01*
X307932Y224133D01*
X307391D01*
X306974Y225139D01*
X306183Y226171D01*
X305151Y226962D01*
X303950Y227460D01*
X302661Y227629D01*
X301373Y227460D01*
X300172Y226962D01*
X299140Y226171D01*
X298349Y225139D01*
X297851Y223938D01*
X297682Y222650D01*
X297851Y221361D01*
X298349Y220160D01*
X299140Y219128D01*
X300172Y218337D01*
X301373Y217840D01*
X302661Y217670D01*
X303950Y217840D01*
X305151Y218337D01*
X306183Y219128D01*
X306974Y220160D01*
X307391Y221166D01*
X307932D01*
X308349Y220160D01*
X309140Y219128D01*
X310172Y218337D01*
X311373Y217840D01*
X312661Y217670D01*
X313950Y217840D01*
X315151Y218337D01*
X316182Y219128D01*
X316974Y220160D01*
X317391Y221166D01*
X317932D01*
X318349Y220160D01*
X319140Y219128D01*
X320172Y218337D01*
X321373Y217840D01*
X322661Y217670D01*
X323950Y217840D01*
X325151Y218337D01*
X326183Y219128D01*
X326974Y220160D01*
X327391Y221166D01*
X327932D01*
X328349Y220160D01*
X329140Y219128D01*
X330172Y218337D01*
X331373Y217840D01*
X332661Y217670D01*
X333950Y217840D01*
X335151Y218337D01*
X336182Y219128D01*
X336974Y220160D01*
X337391Y221166D01*
X337932D01*
X338349Y220160D01*
X339140Y219128D01*
X340172Y218337D01*
X341373Y217840D01*
X342661Y217670D01*
X343950Y217840D01*
X345151Y218337D01*
X346182Y219128D01*
X346974Y220160D01*
X347391Y221166D01*
X347932D01*
X348349Y220160D01*
X349140Y219128D01*
X350172Y218337D01*
X351373Y217840D01*
X352661Y217670D01*
X353950Y217840D01*
X355151Y218337D01*
X356183Y219128D01*
X356974Y220160D01*
X357391Y221166D01*
X357932D01*
X358349Y220160D01*
X359140Y219128D01*
X360172Y218337D01*
X361373Y217840D01*
X362661Y217670D01*
X363950Y217840D01*
X365151Y218337D01*
X366182Y219128D01*
X366974Y220160D01*
X367391Y221166D01*
X367932D01*
X368349Y220160D01*
X369140Y219128D01*
X370172Y218337D01*
X371373Y217840D01*
X372661Y217670D01*
X373950Y217840D01*
X375151Y218337D01*
X376183Y219128D01*
X376974Y220160D01*
X377391Y221166D01*
X377932D01*
X378349Y220160D01*
X379140Y219128D01*
X380172Y218337D01*
X381373Y217840D01*
X382661Y217670D01*
X383950Y217840D01*
X385151Y218337D01*
X386182Y219128D01*
X386974Y220160D01*
X387391Y221166D01*
X387932D01*
X388349Y220160D01*
X389140Y219128D01*
X390172Y218337D01*
X391373Y217840D01*
X392661Y217670D01*
X393950Y217840D01*
X395151Y218337D01*
X396182Y219128D01*
X396974Y220160D01*
X397391Y221166D01*
X397932D01*
X398349Y220160D01*
X399140Y219128D01*
X400172Y218337D01*
X401373Y217840D01*
X402661Y217670D01*
X403950Y217840D01*
X405151Y218337D01*
X406182Y219128D01*
X406974Y220160D01*
X407391Y221166D01*
X407932D01*
X408349Y220160D01*
X409140Y219128D01*
X410172Y218337D01*
X411373Y217840D01*
X412661Y217670D01*
X413950Y217840D01*
X415151Y218337D01*
X416183Y219128D01*
X416974Y220160D01*
X417391Y221166D01*
X417932D01*
X418349Y220160D01*
X419140Y219128D01*
X420172Y218337D01*
X421373Y217840D01*
X422661Y217670D01*
X423950Y217840D01*
X425151Y218337D01*
X426183Y219128D01*
X426974Y220160D01*
X427471Y221361D01*
X427641Y222650D01*
X427471Y223938D01*
X426974Y225139D01*
X426183Y226171D01*
X425151Y226962D01*
X423950Y227460D01*
X422661Y227629D01*
X421373Y227460D01*
X420172Y226962D01*
X419140Y226171D01*
X418349Y225139D01*
X417932Y224133D01*
X417391D01*
X416974Y225139D01*
X416183Y226171D01*
X415151Y226962D01*
X413950Y227460D01*
X412661Y227629D01*
X411373Y227460D01*
X410172Y226962D01*
X409140Y226171D01*
X408349Y225139D01*
X407932Y224133D01*
X407391D01*
X406974Y225139D01*
X406182Y226171D01*
X405151Y226962D01*
X403950Y227460D01*
X402661Y227629D01*
X401373Y227460D01*
X400172Y226962D01*
X399140Y226171D01*
X398349Y225139D01*
X397932Y224133D01*
X397391D01*
X396974Y225139D01*
X396768Y225407D01*
X402338Y230977D01*
X433141D01*
X433504Y230504D01*
X434235Y229943D01*
X435086Y229590D01*
X436000Y229470D01*
X436914Y229590D01*
X437765Y229943D01*
X438496Y230504D01*
X439057Y231235D01*
X439410Y232086D01*
X439530Y233000D01*
X439410Y233914D01*
X439057Y234765D01*
X438496Y235496D01*
X437765Y236057D01*
X436914Y236410D01*
X436000Y236530D01*
X435086Y236410D01*
X434235Y236057D01*
X433504Y235496D01*
X433141Y235023D01*
X401500D01*
X400726Y234869D01*
X400069Y234431D01*
X393197Y227559D01*
X392661Y227629D01*
X391373Y227460D01*
X390172Y226962D01*
X389140Y226171D01*
X388349Y225139D01*
X387932Y224133D01*
X387391D01*
X386974Y225139D01*
X386182Y226171D01*
X385151Y226962D01*
X383950Y227460D01*
X382661Y227629D01*
X381373Y227460D01*
X380172Y226962D01*
X379140Y226171D01*
X378349Y225139D01*
X377932Y224133D01*
X377391D01*
X376974Y225139D01*
X376183Y226171D01*
X375151Y226962D01*
X373950Y227460D01*
X372661Y227629D01*
X371373Y227460D01*
X370172Y226962D01*
X369140Y226171D01*
X368349Y225139D01*
X367932Y224133D01*
X367391D01*
X366974Y225139D01*
X366182Y226171D01*
X365151Y226962D01*
X363950Y227460D01*
X362661Y227629D01*
X361398Y227463D01*
X354931Y233931D01*
X354274Y234369D01*
X353500Y234523D01*
X345838D01*
X343431Y236931D01*
X342774Y237369D01*
X342000Y237523D01*
X308219D01*
X307842Y238023D01*
X307854Y238083D01*
Y307728D01*
X307805Y307977D01*
X308032Y308371D01*
X308138Y308477D01*
X314162D01*
X330477Y292162D01*
Y259500D01*
X330631Y258726D01*
X331069Y258069D01*
X349548Y239591D01*
X349470Y239000D01*
X349590Y238086D01*
X349943Y237235D01*
X350504Y236504D01*
X351235Y235943D01*
X352086Y235590D01*
X353000Y235470D01*
X353914Y235590D01*
X354765Y235943D01*
X355496Y236504D01*
X356057Y237235D01*
X356410Y238086D01*
X356530Y239000D01*
X356410Y239914D01*
X356057Y240765D01*
X355496Y241496D01*
X354765Y242057D01*
X353914Y242410D01*
X353000Y242530D01*
X352409Y242452D01*
X334523Y260338D01*
Y293000D01*
X334369Y293774D01*
X333931Y294431D01*
X316431Y311931D01*
X315774Y312369D01*
X315000Y312523D01*
X280541D01*
X279767Y312369D01*
X279111Y311931D01*
X269464Y302284D01*
X268681Y302181D01*
X263023Y307838D01*
Y333162D01*
X272838Y342977D01*
X310125D01*
X310899Y343131D01*
X311556Y343569D01*
X322806Y354819D01*
X323625Y354712D01*
X324605Y354841D01*
X325519Y355219D01*
X326304Y355821D01*
X326906Y356606D01*
X327284Y357520D01*
X327413Y358500D01*
X327284Y359481D01*
X326906Y360394D01*
X326304Y361179D01*
X325519Y361781D01*
X324605Y362159D01*
X323625Y362288D01*
D02*
G37*
G36*
X229000Y257000D02*
X226786D01*
X226815Y256781D01*
X227093Y256110D01*
X227535Y255535D01*
X228110Y255093D01*
X228781Y254815D01*
X229000Y254786D01*
Y257000D01*
D02*
G37*
G36*
X230000Y260214D02*
Y258000D01*
X232214D01*
X232185Y258219D01*
X231907Y258890D01*
X231466Y259466D01*
X230890Y259907D01*
X230219Y260185D01*
X230000Y260214D01*
D02*
G37*
G36*
X229000Y281214D02*
X228781Y281185D01*
X228110Y280907D01*
X227535Y280466D01*
X227093Y279890D01*
X226815Y279219D01*
X226786Y279000D01*
X229000D01*
Y281214D01*
D02*
G37*
G36*
X230000D02*
Y279000D01*
X232214D01*
X232185Y279219D01*
X231907Y279890D01*
X231466Y280466D01*
X230890Y280907D01*
X230219Y281185D01*
X230000Y281214D01*
D02*
G37*
G36*
X229000Y278000D02*
X226786D01*
X226815Y277781D01*
X227093Y277110D01*
X227535Y276535D01*
X228110Y276093D01*
X228781Y275815D01*
X229000Y275786D01*
Y278000D01*
D02*
G37*
G36*
X232214D02*
X230000D01*
Y275786D01*
X230219Y275815D01*
X230890Y276093D01*
X231466Y276535D01*
X231907Y277110D01*
X232185Y277781D01*
X232214Y278000D01*
D02*
G37*
G36*
X230000Y239714D02*
Y237500D01*
X232214D01*
X232185Y237719D01*
X231907Y238390D01*
X231466Y238966D01*
X230890Y239407D01*
X230219Y239685D01*
X230000Y239714D01*
D02*
G37*
G36*
X432161Y222150D02*
X428756D01*
X428826Y221622D01*
X429222Y220664D01*
X429853Y219842D01*
X430676Y219211D01*
X431634Y218814D01*
X432161Y218744D01*
Y222150D01*
D02*
G37*
G36*
X436567D02*
X433161D01*
Y218744D01*
X433689Y218814D01*
X434647Y219211D01*
X435469Y219842D01*
X436100Y220664D01*
X436497Y221622D01*
X436567Y222150D01*
D02*
G37*
G36*
X220500Y230428D02*
X218953Y230276D01*
X217466Y229824D01*
X216095Y229092D01*
X214894Y228106D01*
X213908Y226905D01*
X213176Y225534D01*
X212724Y224047D01*
X212572Y222500D01*
X212724Y220953D01*
X213176Y219466D01*
X213908Y218095D01*
X214894Y216894D01*
X216095Y215908D01*
X217466Y215176D01*
X218953Y214724D01*
X220500Y214572D01*
X222047Y214724D01*
X223534Y215176D01*
X224904Y215908D01*
X226106Y216894D01*
X227092Y218095D01*
X227824Y219466D01*
X228276Y220953D01*
X228428Y222500D01*
X228276Y224047D01*
X227824Y225534D01*
X227092Y226905D01*
X226106Y228106D01*
X224904Y229092D01*
X223534Y229824D01*
X222047Y230276D01*
X220500Y230428D01*
D02*
G37*
G36*
X474000Y231439D02*
X472646Y231306D01*
X471345Y230911D01*
X470145Y230270D01*
X469093Y229407D01*
X468230Y228355D01*
X467589Y227155D01*
X467194Y225854D01*
X467061Y224500D01*
X467194Y223146D01*
X467589Y221845D01*
X468230Y220645D01*
X469093Y219593D01*
X470145Y218730D01*
X471345Y218089D01*
X472646Y217694D01*
X474000Y217561D01*
X475354Y217694D01*
X476655Y218089D01*
X477855Y218730D01*
X478907Y219593D01*
X479770Y220645D01*
X480411Y221845D01*
X480806Y223146D01*
X480939Y224500D01*
X480806Y225854D01*
X480411Y227155D01*
X479770Y228355D01*
X478907Y229407D01*
X477855Y230270D01*
X476655Y230911D01*
X475354Y231306D01*
X474000Y231439D01*
D02*
G37*
G36*
X432161Y226555D02*
X431634Y226485D01*
X430676Y226089D01*
X429853Y225458D01*
X429222Y224635D01*
X428826Y223677D01*
X428756Y223150D01*
X432161D01*
Y226555D01*
D02*
G37*
G36*
X232214Y236500D02*
X230000D01*
Y234286D01*
X230219Y234315D01*
X230890Y234593D01*
X231466Y235034D01*
X231907Y235610D01*
X232185Y236281D01*
X232214Y236500D01*
D02*
G37*
G36*
X229000Y239714D02*
X228781Y239685D01*
X228110Y239407D01*
X227535Y238966D01*
X227093Y238390D01*
X226815Y237719D01*
X226786Y237500D01*
X229000D01*
Y239714D01*
D02*
G37*
G36*
X433161Y226555D02*
Y223150D01*
X436567D01*
X436497Y223677D01*
X436100Y224635D01*
X435469Y225458D01*
X434647Y226089D01*
X433689Y226485D01*
X433161Y226555D01*
D02*
G37*
G36*
X229000Y236500D02*
X226786D01*
X226815Y236281D01*
X227093Y235610D01*
X227535Y235034D01*
X228110Y234593D01*
X228781Y234315D01*
X229000Y234286D01*
Y236500D01*
D02*
G37*
G36*
X475500Y406928D02*
X473953Y406776D01*
X472466Y406324D01*
X471096Y405592D01*
X469894Y404606D01*
X468908Y403405D01*
X468176Y402034D01*
X467724Y400547D01*
X467572Y399000D01*
X467724Y397453D01*
X468176Y395966D01*
X468908Y394596D01*
X469894Y393394D01*
X471096Y392408D01*
X472466Y391675D01*
X473953Y391224D01*
X475500Y391072D01*
X477047Y391224D01*
X478534Y391675D01*
X479905Y392408D01*
X481106Y393394D01*
X482092Y394596D01*
X482825Y395966D01*
X483276Y397453D01*
X483428Y399000D01*
X483276Y400547D01*
X482825Y402034D01*
X482092Y403405D01*
X481106Y404606D01*
X479905Y405592D01*
X478534Y406324D01*
X477047Y406776D01*
X475500Y406928D01*
D02*
G37*
G36*
X409500Y393500D02*
X407088D01*
X407123Y393229D01*
X407421Y392511D01*
X407894Y391894D01*
X408511Y391421D01*
X409229Y391123D01*
X409500Y391088D01*
Y393500D01*
D02*
G37*
G36*
X349500Y362288D02*
X348519Y362159D01*
X347606Y361781D01*
X346821Y361179D01*
X346219Y360394D01*
X345841Y359481D01*
X345712Y358500D01*
X345819Y357681D01*
X324162Y336023D01*
X283500D01*
X282726Y335869D01*
X282069Y335431D01*
X270319Y323680D01*
X269500Y323788D01*
X268519Y323659D01*
X267606Y323281D01*
X266821Y322679D01*
X266219Y321894D01*
X265841Y320981D01*
X265712Y320000D01*
X265841Y319020D01*
X266219Y318106D01*
X266821Y317321D01*
X267606Y316719D01*
X268519Y316341D01*
X269500Y316212D01*
X270480Y316341D01*
X271394Y316719D01*
X272179Y317321D01*
X272781Y318106D01*
X273159Y319020D01*
X273288Y320000D01*
X273181Y320819D01*
X284338Y331977D01*
X325000D01*
X325774Y332131D01*
X326431Y332569D01*
X347015Y353154D01*
X347477Y352962D01*
Y345859D01*
X347004Y345496D01*
X346443Y344765D01*
X346090Y343914D01*
X345970Y343000D01*
X346090Y342086D01*
X346443Y341235D01*
X347004Y340504D01*
X347735Y339943D01*
X348586Y339590D01*
X349500Y339470D01*
X350414Y339590D01*
X351265Y339943D01*
X351996Y340504D01*
X352557Y341235D01*
X352910Y342086D01*
X353030Y343000D01*
X352910Y343914D01*
X352557Y344765D01*
X351996Y345496D01*
X351523Y345859D01*
Y355318D01*
X352179Y355821D01*
X352781Y356606D01*
X353159Y357520D01*
X353288Y358500D01*
X353159Y359481D01*
X352781Y360394D01*
X352179Y361179D01*
X351394Y361781D01*
X350481Y362159D01*
X349500Y362288D01*
D02*
G37*
G36*
X271875D02*
X270895Y362159D01*
X269981Y361781D01*
X269196Y361179D01*
X268594Y360394D01*
X268216Y359481D01*
X268087Y358500D01*
X268195Y357681D01*
X249569Y339056D01*
X249131Y338399D01*
X248977Y337625D01*
Y276000D01*
X249131Y275226D01*
X249569Y274569D01*
X265820Y258319D01*
X265712Y257500D01*
X265841Y256520D01*
X266219Y255606D01*
X266821Y254821D01*
X267477Y254318D01*
Y250859D01*
X267004Y250496D01*
X266443Y249765D01*
X266090Y248914D01*
X265970Y248000D01*
X266090Y247086D01*
X266443Y246235D01*
X267004Y245504D01*
X267735Y244943D01*
X268586Y244590D01*
X269500Y244470D01*
X270414Y244590D01*
X271265Y244943D01*
X271996Y245504D01*
X272557Y246235D01*
X272910Y247086D01*
X273030Y248000D01*
X272910Y248914D01*
X272557Y249765D01*
X271996Y250496D01*
X271523Y250859D01*
Y254318D01*
X272179Y254821D01*
X272781Y255606D01*
X273159Y256520D01*
X273288Y257500D01*
X273159Y258481D01*
X272781Y259394D01*
X272179Y260179D01*
X271394Y260781D01*
X270480Y261159D01*
X269500Y261288D01*
X268681Y261180D01*
X253023Y276838D01*
Y336787D01*
X271056Y354819D01*
X271875Y354712D01*
X272855Y354841D01*
X273769Y355219D01*
X274554Y355821D01*
X275156Y356606D01*
X275534Y357520D01*
X275663Y358500D01*
X275534Y359481D01*
X275156Y360394D01*
X274554Y361179D01*
X273769Y361781D01*
X272855Y362159D01*
X271875Y362288D01*
D02*
G37*
G36*
X412912Y393500D02*
X410500D01*
Y391088D01*
X410771Y391123D01*
X411489Y391421D01*
X412106Y391894D01*
X412579Y392511D01*
X412877Y393229D01*
X412912Y393500D01*
D02*
G37*
G36*
X410500Y396912D02*
Y394500D01*
X412912D01*
X412877Y394771D01*
X412579Y395489D01*
X412106Y396106D01*
X411489Y396579D01*
X410771Y396877D01*
X410500Y396912D01*
D02*
G37*
G36*
X450500Y402523D02*
X406500D01*
X405726Y402369D01*
X405069Y401931D01*
X401092Y397953D01*
X396047D01*
Y396023D01*
X379838D01*
X375931Y399931D01*
X375274Y400369D01*
X374500Y400523D01*
X352682D01*
X352179Y401179D01*
X351394Y401781D01*
X350481Y402159D01*
X349500Y402288D01*
X348519Y402159D01*
X347606Y401781D01*
X346821Y401179D01*
X346318Y400523D01*
X326807D01*
X326304Y401179D01*
X325519Y401781D01*
X324605Y402159D01*
X323625Y402288D01*
X322644Y402159D01*
X321731Y401781D01*
X320946Y401179D01*
X320443Y400523D01*
X300932D01*
X300429Y401179D01*
X299644Y401781D01*
X298730Y402159D01*
X297750Y402288D01*
X296769Y402159D01*
X295856Y401781D01*
X295071Y401179D01*
X294568Y400523D01*
X275057D01*
X274554Y401179D01*
X273769Y401781D01*
X272855Y402159D01*
X271875Y402288D01*
X270895Y402159D01*
X269981Y401781D01*
X269196Y401179D01*
X268693Y400523D01*
X249182D01*
X248679Y401179D01*
X247894Y401781D01*
X246981Y402159D01*
X246000Y402288D01*
X245020Y402159D01*
X244106Y401781D01*
X243321Y401179D01*
X242719Y400394D01*
X242341Y399481D01*
X242212Y398500D01*
X242341Y397519D01*
X242719Y396606D01*
X243321Y395821D01*
X244106Y395219D01*
X245020Y394841D01*
X246000Y394712D01*
X246981Y394841D01*
X247894Y395219D01*
X248679Y395821D01*
X249182Y396477D01*
X268693D01*
X269196Y395821D01*
X269981Y395219D01*
X270895Y394841D01*
X271875Y394712D01*
X272855Y394841D01*
X273769Y395219D01*
X274554Y395821D01*
X275057Y396477D01*
X294568D01*
X295071Y395821D01*
X295856Y395219D01*
X296769Y394841D01*
X297750Y394712D01*
X298730Y394841D01*
X299644Y395219D01*
X300429Y395821D01*
X300932Y396477D01*
X320443D01*
X320946Y395821D01*
X321731Y395219D01*
X322644Y394841D01*
X323625Y394712D01*
X324605Y394841D01*
X325519Y395219D01*
X326304Y395821D01*
X326807Y396477D01*
X346318D01*
X346821Y395821D01*
X347606Y395219D01*
X348519Y394841D01*
X349500Y394712D01*
X350481Y394841D01*
X351394Y395219D01*
X352179Y395821D01*
X352682Y396477D01*
X373662D01*
X377569Y392569D01*
X378226Y392131D01*
X379000Y391977D01*
X396047D01*
Y390047D01*
X403953D01*
Y395092D01*
X407338Y398477D01*
X419607D01*
X419644Y398444D01*
X419625Y398205D01*
X419483Y397919D01*
X418968Y397851D01*
X418007Y397453D01*
X417181Y396819D01*
X416547Y395993D01*
X416149Y395032D01*
X416013Y394000D01*
X416144Y393005D01*
X411162Y388023D01*
X386000D01*
X385226Y387869D01*
X384569Y387431D01*
X370569Y373431D01*
X370131Y372774D01*
X369977Y372000D01*
Y354338D01*
X343197Y327559D01*
X342661Y327629D01*
X341373Y327460D01*
X340172Y326962D01*
X339140Y326171D01*
X338349Y325139D01*
X337932Y324133D01*
X337391D01*
X336974Y325139D01*
X336182Y326171D01*
X335151Y326962D01*
X333950Y327460D01*
X332661Y327629D01*
X331373Y327460D01*
X330172Y326962D01*
X329140Y326171D01*
X328349Y325139D01*
X327932Y324133D01*
X327391D01*
X326974Y325139D01*
X326183Y326171D01*
X325151Y326962D01*
X323950Y327460D01*
X322661Y327629D01*
X321373Y327460D01*
X320172Y326962D01*
X319140Y326171D01*
X318349Y325139D01*
X317932Y324133D01*
X317391D01*
X316974Y325139D01*
X316182Y326171D01*
X315151Y326962D01*
X313950Y327460D01*
X312661Y327629D01*
X311373Y327460D01*
X310172Y326962D01*
X309140Y326171D01*
X308349Y325139D01*
X307932Y324133D01*
X307391D01*
X306974Y325139D01*
X306183Y326171D01*
X305151Y326962D01*
X303950Y327460D01*
X302661Y327629D01*
X301373Y327460D01*
X300172Y326962D01*
X299140Y326171D01*
X298349Y325139D01*
X297851Y323938D01*
X297682Y322650D01*
X297851Y321361D01*
X298349Y320160D01*
X299140Y319128D01*
X300172Y318337D01*
X301373Y317840D01*
X302661Y317670D01*
X303950Y317840D01*
X305151Y318337D01*
X306183Y319128D01*
X306974Y320160D01*
X307391Y321166D01*
X307932D01*
X308349Y320160D01*
X309140Y319128D01*
X310172Y318337D01*
X311373Y317840D01*
X312661Y317670D01*
X313121Y317730D01*
X317782Y313069D01*
X318439Y312631D01*
X319213Y312477D01*
X448500D01*
X449274Y312631D01*
X449931Y313069D01*
X457931Y321069D01*
X458369Y321726D01*
X458523Y322500D01*
Y367500D01*
X458369Y368274D01*
X457931Y368931D01*
X433856Y393005D01*
X433987Y394000D01*
X433851Y395032D01*
X433453Y395993D01*
X432819Y396819D01*
X431993Y397453D01*
X431032Y397851D01*
X430517Y397919D01*
X430375Y398205D01*
X430356Y398444D01*
X430393Y398477D01*
X439891D01*
X439924Y397977D01*
X439602Y397935D01*
X438968Y397851D01*
X438007Y397453D01*
X437181Y396819D01*
X436547Y395993D01*
X436149Y395032D01*
X436013Y394000D01*
X436149Y392968D01*
X436547Y392007D01*
X437181Y391181D01*
X438007Y390547D01*
X438968Y390149D01*
X440000Y390013D01*
X441032Y390149D01*
X441993Y390547D01*
X442819Y391181D01*
X443453Y392007D01*
X443851Y392968D01*
X443987Y394000D01*
X443851Y395032D01*
X443453Y395993D01*
X442819Y396819D01*
X441993Y397453D01*
X441032Y397851D01*
X440398Y397935D01*
X440076Y397977D01*
X440109Y398477D01*
X449662D01*
X461977Y386162D01*
Y244826D01*
X444417Y227266D01*
X443950Y227460D01*
X442661Y227629D01*
X441373Y227460D01*
X440172Y226962D01*
X439140Y226171D01*
X438349Y225139D01*
X437851Y223938D01*
X437682Y222650D01*
X437851Y221361D01*
X438349Y220160D01*
X439140Y219128D01*
X440172Y218337D01*
X441373Y217840D01*
X442661Y217670D01*
X443950Y217840D01*
X445151Y218337D01*
X446182Y219128D01*
X446974Y220160D01*
X447471Y221361D01*
X447641Y222650D01*
X447471Y223938D01*
X447278Y224405D01*
X465431Y242558D01*
X465869Y243214D01*
X466023Y243988D01*
Y387000D01*
X465869Y387774D01*
X465431Y388431D01*
X451931Y401931D01*
X451274Y402369D01*
X450500Y402523D01*
D02*
G37*
G36*
X219500Y407428D02*
X217953Y407276D01*
X216466Y406824D01*
X215095Y406092D01*
X213894Y405106D01*
X212908Y403904D01*
X212175Y402534D01*
X211724Y401047D01*
X211572Y399500D01*
X211724Y397953D01*
X212175Y396466D01*
X212908Y395095D01*
X213894Y393894D01*
X215095Y392908D01*
X216466Y392176D01*
X217953Y391724D01*
X219500Y391572D01*
X221047Y391724D01*
X222534Y392176D01*
X223904Y392908D01*
X225106Y393894D01*
X226092Y395095D01*
X226824Y396466D01*
X227276Y397953D01*
X227428Y399500D01*
X227276Y401047D01*
X226824Y402534D01*
X226092Y403904D01*
X225106Y405106D01*
X223904Y406092D01*
X222534Y406824D01*
X221047Y407276D01*
X219500Y407428D01*
D02*
G37*
G36*
X409500Y396912D02*
X409229Y396877D01*
X408511Y396579D01*
X407894Y396106D01*
X407421Y395489D01*
X407123Y394771D01*
X407088Y394500D01*
X409500D01*
Y396912D01*
D02*
G37*
G36*
X230000Y322714D02*
Y320500D01*
X232214D01*
X232185Y320719D01*
X231907Y321390D01*
X231466Y321966D01*
X230890Y322407D01*
X230219Y322685D01*
X230000Y322714D01*
D02*
G37*
G36*
Y301214D02*
Y299000D01*
X232214D01*
X232185Y299219D01*
X231907Y299890D01*
X231466Y300465D01*
X230890Y300907D01*
X230219Y301185D01*
X230000Y301214D01*
D02*
G37*
G36*
X289158Y327935D02*
X287804Y327802D01*
X286502Y327407D01*
X285302Y326766D01*
X284251Y325903D01*
X283388Y324851D01*
X282747Y323652D01*
X282352Y322350D01*
X282219Y320996D01*
X282352Y319642D01*
X282747Y318341D01*
X283388Y317141D01*
X284251Y316090D01*
X285302Y315227D01*
X286502Y314585D01*
X287804Y314191D01*
X289158Y314057D01*
X290511Y314191D01*
X291813Y314585D01*
X293012Y315227D01*
X294064Y316090D01*
X294927Y317141D01*
X295568Y318341D01*
X295963Y319642D01*
X296096Y320996D01*
X295963Y322350D01*
X295568Y323652D01*
X294927Y324851D01*
X294064Y325903D01*
X293012Y326766D01*
X291813Y327407D01*
X290511Y327802D01*
X289158Y327935D01*
D02*
G37*
G36*
X229000Y301214D02*
X228781Y301185D01*
X228110Y300907D01*
X227535Y300465D01*
X227093Y299890D01*
X226815Y299219D01*
X226786Y299000D01*
X229000D01*
Y301214D01*
D02*
G37*
G36*
Y298000D02*
X226786D01*
X226815Y297781D01*
X227093Y297110D01*
X227535Y296534D01*
X228110Y296093D01*
X228781Y295815D01*
X229000Y295786D01*
Y298000D01*
D02*
G37*
G36*
X232214D02*
X230000D01*
Y295786D01*
X230219Y295815D01*
X230890Y296093D01*
X231466Y296534D01*
X231907Y297110D01*
X232185Y297781D01*
X232214Y298000D01*
D02*
G37*
G36*
X474000Y327935D02*
X472646Y327802D01*
X471345Y327407D01*
X470145Y326766D01*
X469093Y325903D01*
X468230Y324851D01*
X467589Y323652D01*
X467194Y322350D01*
X467061Y320996D01*
X467194Y319642D01*
X467589Y318341D01*
X468230Y317141D01*
X469093Y316090D01*
X470145Y315227D01*
X471345Y314585D01*
X472646Y314191D01*
X474000Y314057D01*
X475354Y314191D01*
X476655Y314585D01*
X477855Y315227D01*
X478907Y316090D01*
X479770Y317141D01*
X480411Y318341D01*
X480806Y319642D01*
X480939Y320996D01*
X480806Y322350D01*
X480411Y323652D01*
X479770Y324851D01*
X478907Y325903D01*
X477855Y326766D01*
X476655Y327407D01*
X475354Y327802D01*
X474000Y327935D01*
D02*
G37*
G36*
X232214Y319500D02*
X230000D01*
Y317286D01*
X230219Y317315D01*
X230890Y317593D01*
X231466Y318035D01*
X231907Y318610D01*
X232185Y319281D01*
X232214Y319500D01*
D02*
G37*
G36*
X229000Y322714D02*
X228781Y322685D01*
X228110Y322407D01*
X227535Y321966D01*
X227093Y321390D01*
X226815Y320719D01*
X226786Y320500D01*
X229000D01*
Y322714D01*
D02*
G37*
G36*
Y319500D02*
X226786D01*
X226815Y319281D01*
X227093Y318610D01*
X227535Y318035D01*
X228110Y317593D01*
X228781Y317315D01*
X229000Y317286D01*
Y319500D01*
D02*
G37*
%LPD*%
G36*
X343569Y231069D02*
X344226Y230631D01*
X345000Y230477D01*
X352662D01*
X358247Y224892D01*
X357932Y224133D01*
X357391D01*
X356974Y225139D01*
X356183Y226171D01*
X355151Y226962D01*
X353950Y227460D01*
X352661Y227629D01*
X351373Y227460D01*
X350172Y226962D01*
X349140Y226171D01*
X348349Y225139D01*
X347932Y224133D01*
X347391D01*
X346974Y225139D01*
X346182Y226171D01*
X345151Y226962D01*
X343950Y227460D01*
X342661Y227629D01*
X341373Y227460D01*
X340172Y226962D01*
X339140Y226171D01*
X338349Y225139D01*
X337932Y224133D01*
X337391D01*
X336974Y225139D01*
X336182Y226171D01*
X335151Y226962D01*
X333950Y227460D01*
X332661Y227629D01*
X331373Y227460D01*
X330906Y227266D01*
X325157Y233015D01*
X325349Y233477D01*
X341162D01*
X343569Y231069D01*
D02*
G37*
G36*
X429644Y398444D02*
X429625Y398205D01*
X429483Y397919D01*
X428968Y397851D01*
X428007Y397453D01*
X427181Y396819D01*
X426547Y395993D01*
X426149Y395032D01*
X426013Y394000D01*
X426149Y392968D01*
X426547Y392007D01*
X427181Y391181D01*
X428007Y390547D01*
X428968Y390149D01*
X430000Y390013D01*
X430995Y390144D01*
X454477Y366662D01*
Y323338D01*
X447662Y316523D01*
X320051D01*
X316731Y319843D01*
X316974Y320160D01*
X317391Y321166D01*
X317932D01*
X318349Y320160D01*
X319140Y319128D01*
X320172Y318337D01*
X321373Y317840D01*
X322661Y317670D01*
X323950Y317840D01*
X325151Y318337D01*
X326183Y319128D01*
X326974Y320160D01*
X327391Y321166D01*
X327932D01*
X328349Y320160D01*
X329140Y319128D01*
X330172Y318337D01*
X331373Y317840D01*
X332661Y317670D01*
X333950Y317840D01*
X335151Y318337D01*
X336182Y319128D01*
X336974Y320160D01*
X337391Y321166D01*
X337932D01*
X338349Y320160D01*
X339140Y319128D01*
X340172Y318337D01*
X341373Y317840D01*
X342661Y317670D01*
X343950Y317840D01*
X345151Y318337D01*
X346182Y319128D01*
X346974Y320160D01*
X347391Y321166D01*
X347932D01*
X348349Y320160D01*
X349140Y319128D01*
X350172Y318337D01*
X351373Y317840D01*
X352661Y317670D01*
X353950Y317840D01*
X355151Y318337D01*
X356183Y319128D01*
X356974Y320160D01*
X357391Y321166D01*
X357932D01*
X358349Y320160D01*
X359140Y319128D01*
X360172Y318337D01*
X361373Y317840D01*
X362661Y317670D01*
X363950Y317840D01*
X365151Y318337D01*
X366182Y319128D01*
X366974Y320160D01*
X367391Y321166D01*
X367932D01*
X368349Y320160D01*
X369140Y319128D01*
X370172Y318337D01*
X371373Y317840D01*
X372661Y317670D01*
X373950Y317840D01*
X375151Y318337D01*
X376183Y319128D01*
X376974Y320160D01*
X377391Y321166D01*
X377932D01*
X378349Y320160D01*
X379140Y319128D01*
X380172Y318337D01*
X381373Y317840D01*
X382661Y317670D01*
X383950Y317840D01*
X385151Y318337D01*
X386182Y319128D01*
X386974Y320160D01*
X387391Y321166D01*
X387932D01*
X388349Y320160D01*
X389140Y319128D01*
X390172Y318337D01*
X391373Y317840D01*
X392661Y317670D01*
X393950Y317840D01*
X395151Y318337D01*
X396182Y319128D01*
X396974Y320160D01*
X397391Y321166D01*
X397932D01*
X398349Y320160D01*
X399140Y319128D01*
X400172Y318337D01*
X401373Y317840D01*
X402661Y317670D01*
X403950Y317840D01*
X405151Y318337D01*
X406182Y319128D01*
X406974Y320160D01*
X407391Y321166D01*
X407932D01*
X408349Y320160D01*
X409140Y319128D01*
X410172Y318337D01*
X411373Y317840D01*
X412661Y317670D01*
X413950Y317840D01*
X415151Y318337D01*
X416183Y319128D01*
X416974Y320160D01*
X417391Y321166D01*
X417932D01*
X418349Y320160D01*
X419140Y319128D01*
X420172Y318337D01*
X421373Y317840D01*
X422661Y317670D01*
X423950Y317840D01*
X425151Y318337D01*
X426183Y319128D01*
X426974Y320160D01*
X427391Y321166D01*
X427932D01*
X428349Y320160D01*
X429140Y319128D01*
X430172Y318337D01*
X431373Y317840D01*
X432661Y317670D01*
X433950Y317840D01*
X435151Y318337D01*
X436182Y319128D01*
X436974Y320160D01*
X437224Y320765D01*
X437724Y320665D01*
Y317713D01*
X447598D01*
Y327587D01*
X437724D01*
Y324634D01*
X437224Y324535D01*
X436974Y325139D01*
X436182Y326171D01*
X435151Y326962D01*
X433950Y327460D01*
X432661Y327629D01*
X431373Y327460D01*
X430172Y326962D01*
X429140Y326171D01*
X428349Y325139D01*
X427932Y324133D01*
X427391D01*
X426974Y325139D01*
X426183Y326171D01*
X425151Y326962D01*
X423950Y327460D01*
X422661Y327629D01*
X421373Y327460D01*
X420172Y326962D01*
X419140Y326171D01*
X418349Y325139D01*
X417932Y324133D01*
X417391D01*
X416974Y325139D01*
X416183Y326171D01*
X415151Y326962D01*
X413950Y327460D01*
X412661Y327629D01*
X411373Y327460D01*
X410172Y326962D01*
X409140Y326171D01*
X408349Y325139D01*
X407932Y324133D01*
X407391D01*
X406974Y325139D01*
X406182Y326171D01*
X405151Y326962D01*
X403950Y327460D01*
X402661Y327629D01*
X401373Y327460D01*
X400172Y326962D01*
X399140Y326171D01*
X398349Y325139D01*
X397932Y324133D01*
X397391D01*
X396974Y325139D01*
X396182Y326171D01*
X395151Y326962D01*
X393950Y327460D01*
X392661Y327629D01*
X391373Y327460D01*
X390172Y326962D01*
X389140Y326171D01*
X388349Y325139D01*
X387932Y324133D01*
X387391D01*
X386974Y325139D01*
X386182Y326171D01*
X385151Y326962D01*
X383950Y327460D01*
X382661Y327629D01*
X381373Y327460D01*
X380172Y326962D01*
X379140Y326171D01*
X378349Y325139D01*
X377932Y324133D01*
X377391D01*
X376974Y325139D01*
X376183Y326171D01*
X375151Y326962D01*
X373950Y327460D01*
X372661Y327629D01*
X371373Y327460D01*
X370172Y326962D01*
X369140Y326171D01*
X368349Y325139D01*
X367932Y324133D01*
X367391D01*
X366974Y325139D01*
X366182Y326171D01*
X365151Y326962D01*
X363950Y327460D01*
X362661Y327629D01*
X361373Y327460D01*
X360172Y326962D01*
X359140Y326171D01*
X358349Y325139D01*
X357932Y324133D01*
X357391D01*
X356974Y325139D01*
X356183Y326171D01*
X355151Y326962D01*
X353950Y327460D01*
X352661Y327629D01*
X351373Y327460D01*
X350172Y326962D01*
X349140Y326171D01*
X348349Y325139D01*
X347932Y324133D01*
X347391D01*
X346974Y325139D01*
X346768Y325407D01*
X373431Y352069D01*
X373869Y352726D01*
X374023Y353500D01*
Y371162D01*
X386838Y383977D01*
X412000D01*
X412774Y384131D01*
X413431Y384569D01*
X419005Y390144D01*
X420000Y390013D01*
X421032Y390149D01*
X421993Y390547D01*
X422819Y391181D01*
X423453Y392007D01*
X423851Y392968D01*
X423987Y394000D01*
X423851Y395032D01*
X423453Y395993D01*
X422819Y396819D01*
X421993Y397453D01*
X421032Y397851D01*
X420517Y397919D01*
X420375Y398205D01*
X420356Y398444D01*
X420393Y398477D01*
X429607D01*
X429644Y398444D01*
D02*
G37*
D10*
X269500Y248000D02*
Y257500D01*
X251000Y276000D02*
X269500Y257500D01*
X345000Y232500D02*
X353500D01*
X362661Y223339D01*
X315000Y310500D02*
X332500Y293000D01*
Y259500D02*
X353000Y239000D01*
X332500Y259500D02*
Y293000D01*
X280541Y310500D02*
X315000D01*
X401500Y233000D02*
X436000D01*
X392661Y222650D02*
Y224161D01*
X401500Y233000D01*
X442661Y222650D02*
X464000Y243988D01*
Y387000D01*
X450500Y400500D02*
X464000Y387000D01*
X456500Y322500D02*
Y367500D01*
X319213Y314500D02*
X448500D01*
X456500Y322500D01*
X400000Y394000D02*
X406500Y400500D01*
X450500D01*
X342661Y322650D02*
Y324161D01*
X372000Y353500D02*
Y372000D01*
X342661Y324161D02*
X372000Y353500D01*
Y372000D02*
X386000Y386000D01*
X269500Y299459D02*
X280541Y310500D01*
X269500Y298500D02*
Y299459D01*
X312661Y321052D02*
X319213Y314500D01*
X312661Y321052D02*
Y322650D01*
X261000Y307000D02*
Y334000D01*
X272000Y345000D01*
X261000Y307000D02*
X269500Y298500D01*
X251000Y337625D02*
X271875Y358500D01*
X251000Y276000D02*
Y337625D01*
X256000Y336000D02*
X270000Y350000D01*
X256000Y292000D02*
X269500Y278500D01*
X256000Y292000D02*
Y336000D01*
X272000Y345000D02*
X310125D01*
X323625Y358500D01*
X430000Y394000D02*
X456500Y367500D01*
X349500Y343000D02*
Y358500D01*
X386000Y386000D02*
X412000D01*
X420000Y394000D01*
X379000D02*
X400000D01*
X374500Y398500D02*
X379000Y394000D01*
X349500Y398500D02*
X374500D01*
X323625D02*
X349500D01*
X297750D02*
X323625D01*
X271875D02*
X297750D01*
X246000D02*
X271875D01*
X283500Y334000D02*
X325000D01*
X269500Y320000D02*
X283500Y334000D01*
X325000D02*
X349500Y358500D01*
X362661Y222650D02*
Y223339D01*
X269500Y267000D02*
Y278500D01*
Y267000D02*
X276500Y260000D01*
X290209Y350000D02*
X297750Y357541D01*
X270000Y350000D02*
X290209D01*
X297750Y357541D02*
Y358500D01*
X246000Y260500D02*
Y358500D01*
Y260500D02*
X269500Y237000D01*
X276500Y240060D02*
X281060Y235500D01*
X276500Y240060D02*
Y260000D01*
X281060Y235500D02*
X342000D01*
X322811Y232500D02*
X332661Y222650D01*
X274000Y232500D02*
X322811D01*
X269500Y237000D02*
X274000Y232500D01*
X342000Y235500D02*
X345000Y232500D01*
D11*
X342581Y222730D02*
X342661Y222650D01*
D12*
X442661Y322650D02*
D03*
D13*
X432661D02*
D03*
X422661D02*
D03*
X412661D02*
D03*
X402661D02*
D03*
X392661D02*
D03*
X382661D02*
D03*
X372661D02*
D03*
X362661D02*
D03*
X352661D02*
D03*
X342661D02*
D03*
X332661D02*
D03*
X322661D02*
D03*
X312661D02*
D03*
X302661D02*
D03*
X442661Y222650D02*
D03*
X432661D02*
D03*
X422661D02*
D03*
X412661D02*
D03*
X402661D02*
D03*
X392661D02*
D03*
X382661D02*
D03*
X372661D02*
D03*
X362661D02*
D03*
X352661D02*
D03*
X342661D02*
D03*
X332661D02*
D03*
X322661D02*
D03*
X312661D02*
D03*
X302661D02*
D03*
D14*
X289158Y320996D02*
D03*
Y224500D02*
D03*
X474000D02*
D03*
Y320996D02*
D03*
D15*
X269500Y320000D02*
D03*
X229500D02*
D03*
Y257500D02*
D03*
X269500D02*
D03*
X349500Y358500D02*
D03*
Y398500D02*
D03*
X323625Y358500D02*
D03*
Y398500D02*
D03*
X297750Y358500D02*
D03*
Y398500D02*
D03*
X271875Y358500D02*
D03*
Y398500D02*
D03*
X246000Y358500D02*
D03*
Y398500D02*
D03*
X229500Y298500D02*
D03*
X269500D02*
D03*
X229500Y278500D02*
D03*
X269500D02*
D03*
X229500Y237000D02*
D03*
X269500D02*
D03*
D16*
X219500Y399500D02*
D03*
X220500Y222500D02*
D03*
X475500Y399000D02*
D03*
D17*
X400000Y394000D02*
D03*
D18*
X410000D02*
D03*
X420000D02*
D03*
X430000D02*
D03*
X440000D02*
D03*
D19*
X269500Y248000D02*
D03*
X349500Y343000D02*
D03*
X436000Y233000D02*
D03*
X353000Y239000D02*
D03*
D20*
X216535Y255906D02*
D03*
Y295276D02*
D03*
X226378Y314961D02*
D03*
X216535Y334646D02*
D03*
X226378Y354331D02*
D03*
X216535Y374016D02*
D03*
X226378Y393701D02*
D03*
X236221Y216535D02*
D03*
X246063Y236221D02*
D03*
X236221Y255906D02*
D03*
Y295276D02*
D03*
Y334646D02*
D03*
Y374016D02*
D03*
X255906Y216535D02*
D03*
Y255906D02*
D03*
X265748Y314961D02*
D03*
X255906Y374016D02*
D03*
X265748Y393701D02*
D03*
X275591Y216535D02*
D03*
Y295276D02*
D03*
Y334646D02*
D03*
X285433Y354331D02*
D03*
X275591Y374016D02*
D03*
X285433Y393701D02*
D03*
X295276Y216535D02*
D03*
X305118Y314961D02*
D03*
Y354331D02*
D03*
X295276Y374016D02*
D03*
X305118Y393701D02*
D03*
X314961Y216535D02*
D03*
Y255906D02*
D03*
X324803Y275591D02*
D03*
X314961Y295276D02*
D03*
Y374016D02*
D03*
X334646Y216535D02*
D03*
X344488Y275591D02*
D03*
X334646Y334646D02*
D03*
Y374016D02*
D03*
X344488Y393701D02*
D03*
X354331Y216535D02*
D03*
X364173Y236221D02*
D03*
X354331Y255906D02*
D03*
X364173Y275591D02*
D03*
X354331Y295276D02*
D03*
X364173Y354331D02*
D03*
X354331Y374016D02*
D03*
X364173Y393701D02*
D03*
X383858Y236221D02*
D03*
X374016Y255906D02*
D03*
X383858Y275591D02*
D03*
X374016Y295276D02*
D03*
Y334646D02*
D03*
X383858Y354331D02*
D03*
X393701Y255906D02*
D03*
X403543Y275591D02*
D03*
X393701Y295276D02*
D03*
Y334646D02*
D03*
X403543Y354331D02*
D03*
X393701Y374016D02*
D03*
X413386Y255906D02*
D03*
X423228Y275591D02*
D03*
X413386Y295276D02*
D03*
Y334646D02*
D03*
X423228Y354331D02*
D03*
X413386Y374016D02*
D03*
X433071Y216535D02*
D03*
Y255906D02*
D03*
X442913Y275591D02*
D03*
X433071Y295276D02*
D03*
Y334646D02*
D03*
X442913Y354331D02*
D03*
X433071Y374016D02*
D03*
X452756Y216535D02*
D03*
X462598Y236221D02*
D03*
X452756Y334646D02*
D03*
X462598Y393701D02*
D03*
X482283Y236221D02*
D03*
X472441Y255906D02*
D03*
X482283Y275591D02*
D03*
X472441Y295276D02*
D03*
X482283Y314961D02*
D03*
X472441Y334646D02*
D03*
X482283Y354331D02*
D03*
X472441Y374016D02*
D03*
X325646Y345646D02*
D03*
M02*
