G04 Layer_Color=255*
%FSLAX25Y25*%
%MOIN*%
G70*
G01*
G75*
%ADD12R,0.07874X0.07874*%
%ADD13C,0.07874*%
%ADD14C,0.11811*%
%ADD15C,0.05512*%
%ADD16C,0.13780*%
%ADD17R,0.05906X0.05906*%
%ADD18C,0.05906*%
D12*
X442661Y322650D02*
D03*
D13*
X432661D02*
D03*
X422661D02*
D03*
X412661D02*
D03*
X402661D02*
D03*
X392661D02*
D03*
X382661D02*
D03*
X372661D02*
D03*
X362661D02*
D03*
X352661D02*
D03*
X342661D02*
D03*
X332661D02*
D03*
X322661D02*
D03*
X312661D02*
D03*
X302661D02*
D03*
X442661Y222650D02*
D03*
X432661D02*
D03*
X422661D02*
D03*
X412661D02*
D03*
X402661D02*
D03*
X392661D02*
D03*
X382661D02*
D03*
X372661D02*
D03*
X362661D02*
D03*
X352661D02*
D03*
X342661D02*
D03*
X332661D02*
D03*
X322661D02*
D03*
X312661D02*
D03*
X302661D02*
D03*
D14*
X289158Y320996D02*
D03*
Y224500D02*
D03*
X474000D02*
D03*
Y320996D02*
D03*
D15*
X269500Y320000D02*
D03*
X229500D02*
D03*
Y257500D02*
D03*
X269500D02*
D03*
X349500Y358500D02*
D03*
Y398500D02*
D03*
X323625Y358500D02*
D03*
Y398500D02*
D03*
X297750Y358500D02*
D03*
Y398500D02*
D03*
X271875Y358500D02*
D03*
Y398500D02*
D03*
X246000Y358500D02*
D03*
Y398500D02*
D03*
X229500Y298500D02*
D03*
X269500D02*
D03*
X229500Y278500D02*
D03*
X269500D02*
D03*
X229500Y237000D02*
D03*
X269500D02*
D03*
D16*
X219500Y399500D02*
D03*
X220500Y222500D02*
D03*
X475500Y399000D02*
D03*
D17*
X400000Y394000D02*
D03*
D18*
X410000D02*
D03*
X420000D02*
D03*
X430000D02*
D03*
X440000D02*
D03*
M02*
