G04 Layer_Color=32896*
%FSLAX25Y25*%
%MOIN*%
G70*
G01*
G75*
G36*
X361197Y268386D02*
X361452Y268028D01*
X361401Y254295D01*
X361452Y253631D01*
X361299Y253478D01*
X351599Y253376D01*
X351395Y253682D01*
X351446Y255673D01*
X351599Y255827D01*
X358542Y255929D01*
X358696Y256082D01*
X358798Y259349D01*
X358645Y259809D01*
X352620Y259911D01*
X352467Y260064D01*
X352365Y261187D01*
Y261289D01*
X352416Y262463D01*
X358542Y262565D01*
X358696Y262719D01*
X358798Y265169D01*
X358696Y265578D01*
X358491Y265782D01*
X351548Y265884D01*
X351446Y268232D01*
X351701Y268488D01*
X352161Y268437D01*
X360482Y268488D01*
X361197Y268386D01*
D02*
G37*
G36*
X376870Y268335D02*
X376972Y266394D01*
X376819Y265935D01*
X373654Y265833D01*
X373399Y265578D01*
X373297Y255163D01*
Y255061D01*
Y254244D01*
X373399Y253938D01*
X373246Y253478D01*
X370897Y253376D01*
X370744Y253529D01*
X370642Y265271D01*
X370489Y265731D01*
X367834Y265833D01*
X367528Y265731D01*
X367170Y265884D01*
X367068Y268232D01*
X367323Y268488D01*
X367783Y268437D01*
X376411Y268488D01*
X376870Y268335D01*
D02*
G37*
G36*
X314586Y289981D02*
X314535Y287786D01*
X311472Y287683D01*
X311012Y287530D01*
X310910Y286203D01*
Y286101D01*
Y278034D01*
X311217Y277830D01*
X314484Y277728D01*
X314586Y275686D01*
X314484Y275278D01*
X314229Y275125D01*
X313922Y275227D01*
X305397Y275175D01*
X304835Y275227D01*
X304682Y275380D01*
X304580Y277524D01*
X304733Y277677D01*
X308102Y277779D01*
X308256Y277932D01*
X308205Y287581D01*
X304835Y287683D01*
X304682Y287837D01*
X304580Y289879D01*
X304835Y290134D01*
X314331Y290236D01*
X314586Y289981D01*
D02*
G37*
G36*
X330055Y268386D02*
X330208Y268232D01*
X330157Y253478D01*
X328013Y253376D01*
X327605Y253478D01*
X327553Y259451D01*
X327400Y259911D01*
X323112Y260013D01*
X322908Y259707D01*
X322806Y253478D01*
X320661Y253376D01*
X320253Y253478D01*
X320151Y253682D01*
X320202Y268232D01*
X320355Y268386D01*
X322193Y268488D01*
X322755Y268335D01*
X322857Y263127D01*
Y263025D01*
Y262821D01*
X323010Y262668D01*
X326890Y262565D01*
X327451Y262719D01*
X327553Y267926D01*
X327707Y268386D01*
X329647Y268488D01*
X330055Y268386D01*
D02*
G37*
G36*
X434917Y256133D02*
X434968Y255980D01*
X429608Y250619D01*
X429250Y250364D01*
X429148Y250160D01*
X428995Y250109D01*
X426698Y247811D01*
X426595Y247505D01*
X414496Y247454D01*
X414292Y247862D01*
X414088Y247965D01*
X409595Y252457D01*
X409391Y252559D01*
X409289Y252763D01*
X408931Y253019D01*
X408829Y253223D01*
X408778Y253274D01*
X408421Y253529D01*
X408319Y253733D01*
X408012Y253938D01*
X407757Y254295D01*
X407553Y254397D01*
X406889Y255061D01*
X406787Y255265D01*
X406532Y255418D01*
X406072Y255980D01*
X406123Y256133D01*
X434509Y256235D01*
X434917Y256133D01*
D02*
G37*
G36*
X342410Y268386D02*
X342869Y268232D01*
X343839Y267875D01*
X344145Y267569D01*
X344350Y267467D01*
X344707Y267109D01*
X345013Y266599D01*
X345320Y266292D01*
X345422Y266088D01*
X345524Y265680D01*
X345728Y265169D01*
X345830Y257103D01*
X345728Y256695D01*
X345524Y256184D01*
X345320Y255469D01*
X345115Y255265D01*
X345013Y255061D01*
X344043Y254091D01*
X342920Y253478D01*
X339959Y253376D01*
X339653D01*
X338632Y253478D01*
X338479Y253631D01*
X337815Y253887D01*
X337509Y254193D01*
X337304Y254295D01*
X336998Y254601D01*
X336539Y255163D01*
X336130Y255878D01*
X335926Y256388D01*
X335824Y257818D01*
X335722Y258124D01*
X335875Y258583D01*
X337917Y258685D01*
X338377Y258532D01*
X338479Y257307D01*
X338683Y256592D01*
X338836Y256439D01*
X339551Y256031D01*
X341695Y255929D01*
X342614Y256337D01*
X343073Y256899D01*
X343176Y263638D01*
X343073Y264965D01*
X342614Y265424D01*
X342103Y265731D01*
X341797Y265833D01*
X339806Y265782D01*
X339142Y265629D01*
X338581Y265067D01*
X338428Y263280D01*
X335977Y263178D01*
X335773Y263382D01*
X335824Y265067D01*
X336079Y265629D01*
X336232Y266292D01*
X336539Y266599D01*
X336641Y266803D01*
X337304Y267467D01*
X337509Y267569D01*
X337815Y267875D01*
X338019Y267977D01*
X338938Y268386D01*
X341082Y268488D01*
X342410Y268386D01*
D02*
G37*
G36*
X435530Y295648D02*
X436040Y295035D01*
X436244Y294933D01*
X444617Y286560D01*
X444923Y286458D01*
X444975Y265680D01*
X444566Y265578D01*
X444464Y265373D01*
X440329Y261238D01*
X440125Y261136D01*
X440022Y260932D01*
X439665Y260677D01*
X439563Y260472D01*
X439410Y260319D01*
X439206Y260217D01*
X439001Y259911D01*
X438644Y259655D01*
X438542Y259451D01*
X438389Y259298D01*
X438184Y259196D01*
X437980Y258890D01*
X437776Y258788D01*
X437623Y258634D01*
X437521Y258430D01*
X437215Y258226D01*
X437112Y258022D01*
X436959Y257869D01*
X436755Y257767D01*
X436602Y257613D01*
X436500Y257409D01*
X436347Y257358D01*
X436091Y257103D01*
X435989Y256899D01*
X435428Y256337D01*
X435275Y256388D01*
X435172Y285488D01*
Y285590D01*
Y295188D01*
X435275Y295597D01*
X435428Y295750D01*
X435530Y295648D01*
D02*
G37*
G36*
X376870Y290083D02*
X376972Y285590D01*
X376768Y284773D01*
X376411Y283906D01*
X376258Y283242D01*
X375951Y282731D01*
X375849Y282221D01*
X375441Y281302D01*
X375237Y280485D01*
X374930Y279975D01*
X374828Y279362D01*
X374573Y278800D01*
X374318Y278137D01*
X374011Y277422D01*
X373807Y276605D01*
X373603Y276095D01*
X373552Y276043D01*
X373246Y275329D01*
X371203Y275227D01*
X370795Y275329D01*
X370642Y275482D01*
X370540Y275686D01*
X370336Y276503D01*
X370131Y276707D01*
X370029Y277320D01*
X369774Y277881D01*
X369519Y278545D01*
X369417Y278953D01*
X369161Y279413D01*
X369008Y280077D01*
X368600Y280995D01*
X368395Y281812D01*
X368242Y281965D01*
X368089Y282527D01*
X367681Y283446D01*
X367579Y283855D01*
X367374Y284569D01*
X367170Y284773D01*
X367068Y289777D01*
X367170Y290185D01*
X369366Y290236D01*
X369519Y290083D01*
X369621Y285999D01*
X369825Y285488D01*
X369927Y285080D01*
X370131Y284365D01*
X370336Y284161D01*
X370438Y283548D01*
X370693Y282987D01*
X370948Y282323D01*
X371152Y281608D01*
X371305Y281455D01*
X371459Y280791D01*
X371663Y280281D01*
X371918Y280026D01*
X372224Y279923D01*
X372378Y280077D01*
X372480Y280791D01*
X372735Y281353D01*
X372990Y282017D01*
X373092Y282425D01*
X373348Y282885D01*
X373501Y283548D01*
X373909Y284467D01*
X374113Y285284D01*
X374318Y285488D01*
X374420Y289777D01*
X374522Y290185D01*
X376717Y290236D01*
X376870Y290083D01*
D02*
G37*
G36*
X330106D02*
X330208Y278545D01*
Y278443D01*
Y275482D01*
X330055Y275329D01*
X327809Y275227D01*
X327656Y275380D01*
X327553Y283957D01*
X327400Y284110D01*
X327145Y284059D01*
X326839Y283548D01*
X326737Y283140D01*
X326583Y282680D01*
X326328Y282017D01*
X326022Y281302D01*
X325920Y281098D01*
X325818Y280689D01*
X325460Y279821D01*
X325307Y279260D01*
X324899Y278341D01*
X324797Y277932D01*
X324388Y277013D01*
X324286Y276605D01*
X324031Y276043D01*
X323878Y275482D01*
X323725Y275329D01*
X320457Y275227D01*
X320304Y275380D01*
X320202Y289981D01*
X320355Y290134D01*
X322601Y290236D01*
X322755Y290083D01*
X322857Y281608D01*
X322959Y281200D01*
X323214Y281149D01*
X323367Y281302D01*
X323571Y282119D01*
X323878Y282833D01*
X323980Y283242D01*
X324388Y284161D01*
X324490Y284569D01*
X324899Y285488D01*
X325103Y286305D01*
X325307Y286509D01*
X325511Y287326D01*
X325767Y287786D01*
X325920Y288347D01*
X326328Y289266D01*
X326532Y289981D01*
X326686Y290134D01*
X329953Y290236D01*
X330106Y290083D01*
D02*
G37*
G36*
X411229Y295035D02*
X411433Y294933D01*
X411586Y294780D01*
X411688Y294576D01*
X411841Y294525D01*
X412760Y293605D01*
X412964Y293503D01*
X413118Y293350D01*
X413220Y293146D01*
X413373Y293095D01*
X414292Y292176D01*
X414496Y292074D01*
X415415Y291155D01*
X415619Y291053D01*
X416538Y290134D01*
X416742Y290032D01*
X418070Y288704D01*
X418274Y288602D01*
X418427Y288449D01*
X418529Y288245D01*
X418682Y288194D01*
X419755Y287122D01*
X419857Y286816D01*
X419652Y286713D01*
X406328Y286765D01*
X405868Y286611D01*
X405766Y265271D01*
Y265169D01*
X405715Y256541D01*
X405511Y256439D01*
X399793Y262157D01*
X399589Y262259D01*
X399538Y262412D01*
X399282Y262668D01*
X399078Y262770D01*
X399027Y262923D01*
X398772Y263178D01*
X398568Y263280D01*
X398465Y263485D01*
X398108Y263740D01*
X398006Y263944D01*
X397598Y264250D01*
X397496Y264455D01*
X397342Y264608D01*
X397138Y264710D01*
X396934Y265016D01*
X396475Y265578D01*
X396526Y294422D01*
X396475Y295188D01*
X396628Y295341D01*
X410820Y295443D01*
X411229Y295035D01*
D02*
G37*
G36*
X298862Y290083D02*
X298964Y279566D01*
X298862Y278239D01*
X298555Y277524D01*
X298351Y277013D01*
X297483Y276146D01*
X296973Y275839D01*
X296667Y275533D01*
X295748Y275329D01*
X295441Y275227D01*
X292429Y275278D01*
X291765Y275431D01*
X290847Y275839D01*
X290540Y276146D01*
X290183Y276401D01*
X290081Y276605D01*
X289774Y276911D01*
X289672Y277116D01*
X289162Y277932D01*
X289060Y289981D01*
X289213Y290134D01*
X291357Y290236D01*
X291510Y290083D01*
X291612Y283548D01*
Y283446D01*
Y279056D01*
X291817Y278545D01*
X292480Y277881D01*
X295033Y277779D01*
X295441Y277881D01*
X295645Y278085D01*
X295850Y278188D01*
X296309Y278851D01*
X296411Y289981D01*
X296565Y290134D01*
X298709Y290236D01*
X298862Y290083D01*
D02*
G37*
G36*
X361350Y289981D02*
X361452Y289572D01*
X361350Y289266D01*
X361452Y288960D01*
X361401Y288602D01*
X361452Y287939D01*
X361299Y287786D01*
X357930Y287683D01*
X357879Y287632D01*
X357777Y287530D01*
X357675Y278034D01*
X357828Y277881D01*
X360891Y277779D01*
X361299Y277677D01*
X361452Y277320D01*
X361350Y277013D01*
X361452Y276809D01*
X361401Y276350D01*
X361452Y275890D01*
X361350Y275482D01*
X361146Y275278D01*
X360738Y275175D01*
X352212Y275227D01*
X351905Y275125D01*
X351599Y275227D01*
X351446Y275380D01*
X351497Y277677D01*
X354560Y277779D01*
X355020Y277932D01*
X355122Y287428D01*
X354969Y287581D01*
X351599Y287683D01*
X351344Y288041D01*
X351395Y288194D01*
X351497Y290134D01*
X361095Y290236D01*
X361350Y289981D01*
D02*
G37*
G36*
X279564Y290185D02*
X280534Y290032D01*
X281045Y289828D01*
X281759Y289419D01*
X281810Y289266D01*
X281963Y289215D01*
X282219Y288960D01*
X282321Y288755D01*
X282525Y288551D01*
X283035Y287632D01*
X283138Y285794D01*
X283035Y285386D01*
X282882Y285233D01*
X282627Y284569D01*
X282321Y284263D01*
X282219Y284059D01*
X281963Y283803D01*
X281759Y283701D01*
X281555Y283497D01*
X281045Y283191D01*
X280738Y282885D01*
X280228Y282680D01*
X279972Y282425D01*
X279309Y282170D01*
X279104Y281965D01*
X278594Y281761D01*
X277981Y281353D01*
X277573Y281251D01*
X277267Y280944D01*
X277062Y280842D01*
X277011Y280791D01*
X276603Y280383D01*
X276092Y279668D01*
X275990Y279056D01*
X276195Y278545D01*
X276858Y277881D01*
X279411Y277779D01*
X279819Y277881D01*
X280228Y278290D01*
X280687Y278851D01*
X280789Y279975D01*
X280942Y280128D01*
X282780Y280230D01*
X283240Y280077D01*
X283342Y279464D01*
X283240Y278443D01*
X283138Y278034D01*
X282729Y277116D01*
X282423Y276809D01*
X282321Y276605D01*
X282066Y276350D01*
X281861Y276248D01*
X281657Y276043D01*
X281147Y275737D01*
X280942Y275533D01*
X280534Y275431D01*
X280228Y275329D01*
X277369Y275227D01*
X276143Y275431D01*
X275020Y275941D01*
X274459Y276503D01*
X274357Y276707D01*
X274050Y277013D01*
X273846Y277524D01*
X273540Y277728D01*
X273438Y280587D01*
X273591Y280638D01*
X273846Y280893D01*
X273948Y281302D01*
X274510Y282068D01*
X274714Y282170D01*
X274969Y282425D01*
X275531Y282885D01*
X276245Y283395D01*
X276960Y283803D01*
X277879Y284314D01*
X278390Y284620D01*
X278900Y284824D01*
X279104Y285029D01*
X279615Y285233D01*
X279921Y285539D01*
X280125Y285641D01*
X280381Y285999D01*
X280483Y286611D01*
X280279Y287122D01*
X279717Y287581D01*
X277573Y287683D01*
X277062Y287479D01*
X276756Y287173D01*
X276552Y287071D01*
X276399Y286816D01*
X276297Y286101D01*
X276143Y285641D01*
X274101Y285539D01*
X273540Y285692D01*
X273438Y286713D01*
X273591Y286765D01*
X273846Y287122D01*
X273948Y287837D01*
X274459Y288551D01*
X274561Y288755D01*
X274714Y288909D01*
X274918Y289011D01*
X275327Y289419D01*
X275531Y289521D01*
X276143Y289930D01*
X277062Y290134D01*
X277369Y290236D01*
X279564Y290185D01*
D02*
G37*
G36*
X345728Y290083D02*
X345830Y285897D01*
Y285794D01*
Y275482D01*
X345677Y275329D01*
X336283Y275227D01*
X335875Y275329D01*
X335773Y275635D01*
X335824Y276911D01*
X335722Y277218D01*
X335875Y277677D01*
X342920Y277779D01*
X343073Y277932D01*
X343176Y289164D01*
X343073Y289470D01*
X343176Y289981D01*
X343329Y290134D01*
X345269Y290236D01*
X345728Y290083D01*
D02*
G37*
M02*
