M48
;Layer_Color=9474304
;FILE_FORMAT=2:5
INCH,TZ
;TYPE=PLATED
T1F00S00C0.01181
T2F00S00C0.02800
T3F00S00C0.03346
T4F00S00C0.03543
T5F00S00C0.04016
T6F00S00C0.11811
%
T01
X482283Y236221
X472441Y255906
X482283Y275591
X472441Y295276
X433071
X413386
X393701
X374016
X354331
X344488Y275591
X324803
X314961Y255906
Y216535
X334646
X354331
X364173Y236221
X383858
X374016Y255906
X354331
X364173Y275591
X383858
X403543
X423228
X442913
X433071Y255906
X413386
X393701
X433071Y216535
X452756
X462598Y236221
X314961Y295276
X275591
X236221
X216535
Y255906
X236221
X255906
X246063Y236221
X236221Y216535
X255906
X275591
X295276
X305118Y314961
X265748
X275591Y334646
X285433Y354331
X305118
X295276Y374016
X275591
X255906
X236221
X216535
X226378Y354331
X216535Y334646
X236221
X226378Y314961
Y393701
X265748
X285433
X305118
X314961Y374016
X334646
X354331
X344488Y393701
X364173
Y354331
X383858
X403543
X423228
X442913
X433071Y334646
X413386
X393701
X374016
X334646
X325646Y345646
X393701Y374016
X413386
X433071
X462598Y393701
X452756Y334646
X472441
X482283Y314961
Y354331
X472441Y374016
T02
X353000Y239000
X436000Y233000
X269500Y248000
X349500Y343000
T03
X229500Y237000
Y257500
Y278500
Y298500
X269500
Y278500
Y257500
Y237000
Y320000
X229500
X246000Y358500
X271875
X297750
Y398500
X271875
X246000
X323625
X349500
Y358500
X323625
T04
X400000Y394000
X410000
X420000
X430000
X440000
T05
X312661Y222650
X322661
X332661
X342661
X352661
X362661
X372661
X382661
X392661
X402661
X412661
X422661
X432661
X442661
X302661
Y322650
X312661
X322661
X332661
X342661
X352661
X362661
X372661
X382661
X392661
X402661
X412661
X422661
X432661
X442661
T06
X220500Y222500
X219500Y399500
X475500Y399000
M30
