G04 Layer_Color=65535*
%FSLAX25Y25*%
%MOIN*%
G70*
G01*
G75*
%ADD11C,0.01000*%
%ADD21C,0.00787*%
%ADD22C,0.00500*%
G36*
X216321Y350625D02*
X216381Y350579D01*
X216391Y350569D01*
X216398Y350556D01*
X216418Y350536D01*
X216424Y350522D01*
X216464Y350483D01*
X216471Y350469D01*
X216511Y350430D01*
X216537Y350383D01*
X216584Y350337D01*
X216590Y350323D01*
X216620Y350287D01*
X216637Y350270D01*
X216670Y350211D01*
X216703Y350177D01*
X216729Y350131D01*
X216753Y350114D01*
X216776Y350091D01*
X216783Y350078D01*
X216799Y350061D01*
X216812Y350055D01*
X216842Y350025D01*
X216849Y350012D01*
X216902Y349958D01*
X216909Y349945D01*
X216922Y349932D01*
X216929Y349919D01*
X216975Y349872D01*
X216982Y349859D01*
X217021Y349819D01*
X217028Y349806D01*
X217041Y349793D01*
X217048Y349779D01*
X217081Y349746D01*
X217088Y349733D01*
X217124Y349683D01*
X217138Y349676D01*
X217161Y349653D01*
X217167Y349640D01*
X217214Y349594D01*
X217234Y349560D01*
X217273Y349521D01*
X217280Y349507D01*
X217310Y349471D01*
X217327Y349454D01*
X217333Y349441D01*
X217360Y349401D01*
X217366Y349388D01*
X217413Y349342D01*
X217433Y349308D01*
X217479Y349262D01*
X217499Y349229D01*
X217526Y349202D01*
X217532Y349189D01*
X217559Y349143D01*
X217572Y349129D01*
X217579Y349116D01*
X217599Y349096D01*
X217618Y349063D01*
X217652Y349030D01*
X217658Y349016D01*
X217685Y348970D01*
X217705Y348950D01*
X217711Y348937D01*
X217745Y348877D01*
X217761Y348854D01*
X217774Y348847D01*
X217784Y348837D01*
X217791Y348824D01*
X217824Y348778D01*
X217844Y348758D01*
X217877Y348698D01*
X217907Y348661D01*
X217937Y348605D01*
X217970Y348572D01*
X217977Y348559D01*
X218010Y348499D01*
X218023Y348486D01*
X218030Y348472D01*
X218063Y348413D01*
X218080Y348389D01*
X218090Y348386D01*
X218096Y348373D01*
X218136Y348300D01*
X218156Y348280D01*
X218162Y348267D01*
X218202Y348194D01*
X218222Y348174D01*
X218269Y348088D01*
X218295Y348061D01*
X218335Y347988D01*
X218348Y347975D01*
X218368Y347928D01*
X218388Y347895D01*
X218421Y347862D01*
X218448Y347789D01*
X218481Y347756D01*
X218508Y347696D01*
X218514Y347683D01*
X218544Y347646D01*
X218561Y347610D01*
X218594Y347550D01*
X218607Y347537D01*
X218624Y347494D01*
X218637Y347461D01*
X218680Y347417D01*
X218690Y347381D01*
X218697Y347355D01*
X218713Y347331D01*
X218733Y347311D01*
X218746Y347278D01*
X218766Y347225D01*
X218796Y347189D01*
X218806Y347179D01*
X218813Y347152D01*
X218859Y347053D01*
X218866Y347026D01*
X218876Y346625D01*
X218882Y346386D01*
X218889Y346359D01*
X218899Y346323D01*
X218906Y346296D01*
X218912Y346177D01*
X218919Y346157D01*
X218925Y346130D01*
X218932Y346044D01*
X218939Y345759D01*
X218945Y345553D01*
X218972Y345494D01*
X218979Y345381D01*
X218985Y345361D01*
X218992Y345314D01*
X218999Y345069D01*
X219005Y345042D01*
X219012Y344870D01*
X219018Y344850D01*
X219032Y344804D01*
X219045Y344750D01*
X219058Y344658D01*
X219065Y344472D01*
X219072Y344359D01*
X219078Y344339D01*
X219091Y344306D01*
X219108Y344283D01*
X219138Y344279D01*
X219161Y344289D01*
X219244Y344352D01*
X219264Y344372D01*
X219267Y344382D01*
X219280Y344389D01*
X219340Y344449D01*
X219353Y344455D01*
X219383Y344479D01*
X219390Y344492D01*
X219413Y344515D01*
X219426Y344522D01*
X219440Y344535D01*
X219453Y344542D01*
X219493Y344581D01*
X219506Y344588D01*
X219529Y344611D01*
X219532Y344621D01*
X219546Y344628D01*
X219559Y344641D01*
X219605Y344668D01*
X219692Y344754D01*
X219705Y344760D01*
X219761Y344804D01*
X219768Y344817D01*
X219778Y344827D01*
X219791Y344833D01*
X219828Y344863D01*
X219864Y344900D01*
X219878Y344906D01*
X219914Y344936D01*
X219924Y344946D01*
X219937Y344953D01*
X219984Y344986D01*
X219997Y344993D01*
X220077Y345072D01*
X220090Y345079D01*
X220149Y345125D01*
X220176Y345152D01*
X220189Y345159D01*
X220236Y345192D01*
X220249Y345205D01*
X220262Y345212D01*
X220309Y345238D01*
X220342Y345271D01*
X220355Y345278D01*
X220402Y345311D01*
X220422Y345331D01*
X220435Y345338D01*
X220508Y345377D01*
X220521Y345391D01*
X220534Y345397D01*
X220581Y345424D01*
X220597Y345434D01*
X220604Y345447D01*
X220614Y345457D01*
X220627Y345464D01*
X220660Y345477D01*
X220707Y345503D01*
X220733Y345530D01*
X220793Y345563D01*
X220806Y345577D01*
X220820Y345583D01*
X220866Y345603D01*
X220913Y345630D01*
X220939Y345656D01*
X220975Y345666D01*
X221009Y345673D01*
X221048Y345706D01*
X221078Y345722D01*
X221131Y345736D01*
X221165Y345756D01*
X221184Y345776D01*
X221218Y345789D01*
X221274Y345799D01*
X221297Y345815D01*
X221317Y345835D01*
X221330Y345842D01*
X221364Y345855D01*
X221400Y345865D01*
X221410Y345875D01*
X221423Y345882D01*
X221440Y345905D01*
X221533Y345951D01*
X221549Y345968D01*
X221563Y345974D01*
X221626Y346018D01*
X221629Y346028D01*
X221642Y346034D01*
X221689Y346061D01*
X221725Y346091D01*
X221765Y346117D01*
X221788Y346134D01*
X221828Y346174D01*
X221841Y346180D01*
X221878Y346210D01*
X221908Y346240D01*
X221921Y346247D01*
X221957Y346276D01*
X221967Y346286D01*
X221981Y346293D01*
X221994Y346306D01*
X222007Y346313D01*
X222044Y346343D01*
X222060Y346359D01*
X222074Y346366D01*
X222110Y346396D01*
X222140Y346426D01*
X222153Y346432D01*
X222190Y346462D01*
X222219Y346492D01*
X222233Y346499D01*
X222292Y346545D01*
X222339Y346572D01*
X222375Y346602D01*
X222385Y346611D01*
X222458Y346651D01*
X222478Y346671D01*
X222525Y346684D01*
X222561Y346694D01*
X222611Y346724D01*
X222684Y346731D01*
X222704Y346738D01*
X222730Y346744D01*
X222830Y346738D01*
X222850Y346731D01*
X222896Y346724D01*
X222933Y346714D01*
X222966Y346701D01*
X222992Y346694D01*
X223112Y346688D01*
X223165Y346681D01*
X223205Y346674D01*
X223231Y346668D01*
X223288Y346638D01*
X223341Y346625D01*
X223493Y346618D01*
X223513Y346611D01*
X223576Y346602D01*
X223613Y346591D01*
X223818Y346598D01*
X223838Y346605D01*
X223865Y346611D01*
X223931Y346618D01*
X224097Y346625D01*
X224157Y346631D01*
X224217Y346658D01*
X224283Y346665D01*
X224303Y346671D01*
X224329Y346678D01*
X224615Y346684D01*
X224767Y346691D01*
X224787Y346698D01*
X224820Y346711D01*
X224847Y346718D01*
X225006Y346724D01*
X225026Y346731D01*
X225072Y346738D01*
X225159Y346744D01*
X225812Y346747D01*
X226243Y346741D01*
X226276Y346727D01*
X226303Y346721D01*
X226489Y346714D01*
X226545Y346691D01*
X226572Y346684D01*
X226937Y346678D01*
X226957Y346671D01*
X227010Y346658D01*
X227063Y346651D01*
X227122Y346625D01*
X227361Y346618D01*
X227381Y346611D01*
X227418Y346602D01*
X227474Y346585D01*
X227554Y346565D01*
X227676Y346555D01*
X227710Y346548D01*
X227736Y346542D01*
X227779Y346525D01*
X227812Y346512D01*
X227865Y346499D01*
X227972Y346492D01*
X228018Y346485D01*
X228071Y346465D01*
X228117Y346439D01*
X228144Y346432D01*
X228257Y346426D01*
X228277Y346419D01*
X228376Y346373D01*
X228443Y346366D01*
X228506Y346356D01*
X228559Y346323D01*
X228589Y346313D01*
X228615Y346306D01*
X228695Y346300D01*
X228768Y346260D01*
X228801Y346247D01*
X228864Y346237D01*
X228917Y346223D01*
X228973Y346194D01*
X229020Y346180D01*
X229076Y346170D01*
X229129Y346137D01*
X229172Y346121D01*
X229219Y346114D01*
X229262Y346097D01*
X229278Y346081D01*
X229292Y346074D01*
X229338Y346054D01*
X229388Y346044D01*
X229421Y346031D01*
X229444Y346014D01*
X229491Y345994D01*
X229517Y345988D01*
X229554Y345978D01*
X229594Y345951D01*
X229604Y345941D01*
X229637Y345928D01*
X229663Y345921D01*
X229703Y345915D01*
X229750Y345888D01*
X229763Y345875D01*
X229809Y345862D01*
X229856D01*
X229909Y345868D01*
X229929Y345875D01*
X229975Y345895D01*
X230008Y345908D01*
X230055Y345921D01*
X230141Y345928D01*
X230227Y345968D01*
X230254Y345974D01*
X230294Y345981D01*
X230330Y346011D01*
X230337Y346091D01*
X230353Y346107D01*
X230396Y346124D01*
X230420Y346140D01*
X230459Y346167D01*
X230562Y346190D01*
X230572Y346200D01*
X230586Y346207D01*
X230605Y346227D01*
X230639Y346240D01*
X230692Y346247D01*
X230725Y346266D01*
X230765Y346293D01*
X230808Y346303D01*
X230871Y346313D01*
X230917Y346339D01*
X230964Y346359D01*
X230990Y346366D01*
X231070Y346373D01*
X231116Y346399D01*
X231176Y346426D01*
X231342Y346439D01*
X231401Y346465D01*
X231435Y346479D01*
X231521Y346485D01*
X231547Y346492D01*
X231733Y346499D01*
X232018Y346492D01*
X232038Y346485D01*
X232098Y346479D01*
X232184Y346439D01*
X232251Y346432D01*
X232324Y346426D01*
X232370Y346399D01*
X232403Y346379D01*
X232450Y346373D01*
X232476Y346366D01*
X232523Y346359D01*
X232596Y346313D01*
X232659Y346303D01*
X232692Y346290D01*
X232722Y346260D01*
X232755Y346247D01*
X232798Y346237D01*
X232831Y346223D01*
X232855Y346207D01*
X232888Y346187D01*
X232941Y346174D01*
X232984Y346157D01*
X233014Y346127D01*
X233047Y346114D01*
X233083Y346104D01*
X233117Y346091D01*
X233126Y346081D01*
X233140Y346074D01*
X233200Y346047D01*
X233246Y346041D01*
X233272Y346034D01*
X233349Y346044D01*
X233428Y346058D01*
X233461Y346071D01*
X233478Y346087D01*
X233511Y346101D01*
X233538Y346107D01*
X233644Y346121D01*
X233657Y346134D01*
X233670Y346140D01*
X233704Y346160D01*
X233730Y346167D01*
X233777Y346174D01*
X233870Y346180D01*
X233969Y346227D01*
X233996Y346233D01*
X234062Y346240D01*
X234148Y346247D01*
X234195Y346266D01*
X234241Y346273D01*
X234278Y346283D01*
X234307Y346293D01*
X234334Y346300D01*
X234619Y346306D01*
X234898Y346300D01*
X234918Y346293D01*
X234954Y346283D01*
X234987Y346270D01*
X235031Y346253D01*
X235077Y346247D01*
X235143Y346240D01*
X235183Y346233D01*
X235246Y346190D01*
X235283Y346180D01*
X235352Y346164D01*
X235402Y346127D01*
X235449Y346114D01*
X235485Y346104D01*
X235508Y346094D01*
X235555Y346061D01*
X235638Y346031D01*
X235648Y346021D01*
X235661Y346014D01*
X235674Y346001D01*
X235707Y345988D01*
X235767Y345955D01*
X235787Y345935D01*
X235833Y345915D01*
X235847Y345908D01*
X235870Y345892D01*
X235876Y345878D01*
X235926Y345848D01*
X235940Y345842D01*
X235973Y345809D01*
X235986Y345802D01*
X236006Y345782D01*
X236019Y345776D01*
X236059Y345736D01*
X236105Y345709D01*
X236158Y345656D01*
X236172Y345649D01*
X236211Y345610D01*
X236225Y345603D01*
X236261Y345573D01*
X236268Y345560D01*
X236298Y345530D01*
X236311Y345523D01*
X236338Y345484D01*
X236354Y345460D01*
X236440Y345374D01*
X236447Y345361D01*
X236493Y345301D01*
X236513Y345281D01*
X236540Y345235D01*
X236573Y345202D01*
X236600Y345155D01*
X236633Y345122D01*
X236646Y345089D01*
X236673Y345042D01*
X236699Y345016D01*
X236726Y344969D01*
X236736Y344953D01*
X236749Y344946D01*
X236766Y344910D01*
X236782Y344867D01*
X236799Y344843D01*
X236819Y344824D01*
X236839Y344777D01*
X236845Y344750D01*
X236875Y344714D01*
X236885Y344704D01*
X236905Y344658D01*
X236931Y344611D01*
X236958Y344551D01*
X236965Y344525D01*
X236981Y344482D01*
X236998Y344465D01*
X237004Y344452D01*
X237018Y344439D01*
X237028Y344395D01*
X237041Y344362D01*
X237074Y344309D01*
X237084Y344273D01*
X237094Y344210D01*
X237097Y344173D01*
X237081Y344157D01*
X237054Y344150D01*
X237014Y344157D01*
X236994Y344177D01*
X236981Y344183D01*
X236935Y344203D01*
X236868Y344210D01*
X236842Y344216D01*
X236795Y344243D01*
X236736Y344269D01*
X236673Y344279D01*
X236619Y344313D01*
X236563Y344329D01*
X236507Y344339D01*
X236473Y344352D01*
X236464Y344362D01*
X236417Y344382D01*
X236364Y344395D01*
X236324Y344402D01*
X236238Y344442D01*
X236185Y344455D01*
X236109Y344472D01*
X236075Y344485D01*
X236049Y344492D01*
X235999Y344495D01*
X235979Y344488D01*
X235936Y344472D01*
X235910Y344465D01*
X235876Y344459D01*
X235850Y344452D01*
X235813Y344429D01*
X235800Y344415D01*
X235787Y344409D01*
X235714Y344369D01*
X235697Y344352D01*
X235691Y344339D01*
X235661Y344303D01*
X235644Y344279D01*
X235618Y344240D01*
X235598Y344206D01*
X235571Y344180D01*
X235558Y344127D01*
X235548Y344077D01*
X235522Y344037D01*
X235505Y344007D01*
X235498Y343981D01*
X235492Y343895D01*
X235485Y343729D01*
X235492Y343470D01*
X235498Y343450D01*
X235505Y343377D01*
X235551Y343304D01*
X235558Y343278D01*
X235578Y343225D01*
X235624Y343158D01*
X235631Y343132D01*
X235684Y343052D01*
X235711Y343006D01*
X235750Y342966D01*
X235757Y342952D01*
X235817Y342893D01*
X235823Y342880D01*
X235853Y342843D01*
X235953Y342744D01*
X235966Y342737D01*
X236019Y342684D01*
X236032Y342677D01*
X236069Y342647D01*
X236075Y342634D01*
X236099Y342611D01*
X236112Y342604D01*
X236149Y342574D01*
X236178Y342545D01*
X236192Y342538D01*
X236238Y342491D01*
X236251Y342485D01*
X236278Y342458D01*
X236291Y342452D01*
X236318Y342425D01*
X236364Y342399D01*
X236391Y342372D01*
X236404Y342365D01*
X236440Y342336D01*
X236484Y342292D01*
X236497Y342286D01*
X236510Y342272D01*
X236523Y342266D01*
X236540Y342243D01*
X236580Y342216D01*
X236616Y342180D01*
X236630Y342173D01*
X236656Y342146D01*
X236669Y342140D01*
X236709Y342100D01*
X236722Y342093D01*
X236759Y342063D01*
X236772Y342050D01*
X236779Y342037D01*
X236819Y342004D01*
X236832Y341990D01*
X236839Y341977D01*
X236862Y341961D01*
X236885Y341937D01*
X236892Y341924D01*
X236905Y341911D01*
X236911Y341898D01*
X236938Y341871D01*
X236945Y341858D01*
X236978Y341825D01*
X236984Y341811D01*
X237018Y341778D01*
X237044Y341732D01*
X237077Y341699D01*
X237091Y341666D01*
X237124Y341606D01*
X237137Y341593D01*
X237157Y341546D01*
X237183Y341500D01*
X237197Y341486D01*
X237217Y341440D01*
X237227Y341390D01*
X237240Y341357D01*
X237270Y341327D01*
X237283Y341281D01*
X237296Y341221D01*
X237329Y341175D01*
X237343Y341121D01*
X237349Y341029D01*
X237363Y340995D01*
X237383Y340949D01*
X237396Y340896D01*
X237402Y340849D01*
X237409Y340783D01*
X237416Y340577D01*
X237436Y340531D01*
X237442Y340504D01*
X237436Y340438D01*
X237442Y340339D01*
X237456Y340305D01*
X237462Y340279D01*
X237472Y339599D01*
X237482Y339536D01*
X237489Y339516D01*
X237495Y339489D01*
X237505Y339440D01*
X237522Y339403D01*
X237528Y339357D01*
X237538Y339241D01*
X237545Y339214D01*
X237562Y339171D01*
X237588Y339111D01*
X237595Y339085D01*
X237608Y339025D01*
X237638Y338988D01*
X237668Y338959D01*
X237674Y338945D01*
X237727Y338892D01*
X237734Y338879D01*
X237757Y338849D01*
X237771Y338843D01*
X237794Y338819D01*
X237800Y338806D01*
X237817Y338789D01*
X237830Y338783D01*
X237847Y338766D01*
X237854Y338753D01*
X238009Y338597D01*
X238023Y338590D01*
X238053Y338567D01*
X238059Y338554D01*
X238069Y338544D01*
X238082Y338537D01*
X238119Y338501D01*
X238125Y338488D01*
X238136Y338478D01*
X238149Y338471D01*
X238209Y338424D01*
X238341Y338292D01*
X238354Y338285D01*
X238411Y338249D01*
X238417Y338235D01*
X238587Y338066D01*
X238597Y338063D01*
X238603Y338050D01*
X238689Y337964D01*
X238696Y337950D01*
X238742Y337904D01*
X238749Y337891D01*
X238779Y337854D01*
X238796Y337837D01*
X238802Y337824D01*
X238849Y337764D01*
X238869Y337744D01*
X238889Y337711D01*
X238928Y337671D01*
X238942Y337638D01*
X238968Y337592D01*
X238981Y337579D01*
X238988Y337565D01*
X239001Y337532D01*
X239008Y337506D01*
X239034Y337459D01*
X239054Y337439D01*
X239068Y337386D01*
X239078Y337350D01*
X239101Y337313D01*
X239121Y337267D01*
X239127Y337200D01*
X239121Y336763D01*
X239114Y336743D01*
X239101Y336709D01*
X239074Y336650D01*
X239068Y336603D01*
X239061Y336577D01*
X239054Y336530D01*
X239008Y336457D01*
X238998Y336421D01*
X238978Y336368D01*
X238951Y336328D01*
X238935Y336285D01*
X238908Y336239D01*
X238882Y336212D01*
X238855Y336139D01*
X238825Y336103D01*
X238815Y336092D01*
X238776Y336020D01*
X238762Y336006D01*
X238756Y335993D01*
X238729Y335947D01*
X238699Y335910D01*
X238683Y335894D01*
X238663Y335860D01*
X238636Y335834D01*
X238630Y335821D01*
X238597Y335774D01*
X238590Y335761D01*
X238563Y335734D01*
X238557Y335721D01*
X238527Y335678D01*
X238514Y335671D01*
X238497Y335655D01*
X238490Y335641D01*
X238461Y335605D01*
X238424Y335568D01*
X238417Y335555D01*
X238388Y335519D01*
X238371Y335502D01*
X238345Y335456D01*
X238318Y335429D01*
X238311Y335416D01*
X238298Y335403D01*
X238291Y335389D01*
X238262Y335353D01*
X238248Y335346D01*
X238232Y335323D01*
X238202Y335286D01*
X238172Y335257D01*
X238152Y335223D01*
X238125Y335197D01*
X238119Y335184D01*
X238056Y335101D01*
X238009Y335028D01*
X237986Y334971D01*
X237980Y334945D01*
X237966Y334885D01*
X237940Y334845D01*
X237933Y334832D01*
X237927Y334812D01*
X237920Y334786D01*
X237913Y334686D01*
X237907Y334666D01*
X237900Y334640D01*
X237873Y334580D01*
X237860Y334527D01*
X237854Y334460D01*
X237847Y334348D01*
X237840Y334328D01*
X237827Y334281D01*
X237804Y334218D01*
X237794Y334189D01*
X237787Y334142D01*
X237780Y333956D01*
X237774Y333936D01*
X237764Y333887D01*
X237751Y333853D01*
X237734Y333797D01*
X237727Y333731D01*
X237721Y333625D01*
X237714Y333605D01*
X237691Y333542D01*
X237674Y333505D01*
X237661Y333452D01*
X237654Y333372D01*
X237628Y333326D01*
X237601Y333266D01*
X237592Y333210D01*
X237578Y333177D01*
X237562Y333154D01*
X237535Y333094D01*
X237528Y333067D01*
X237482Y333001D01*
X237449Y332941D01*
X237439Y332931D01*
X237426Y332925D01*
X237396Y332895D01*
X237389Y332881D01*
X237379Y332872D01*
X237366Y332865D01*
X237336Y332835D01*
X237329Y332822D01*
X237313Y332805D01*
X237299Y332799D01*
X237240Y332739D01*
X237227Y332732D01*
X237190Y332702D01*
X237174Y332686D01*
X237101Y332646D01*
X237074Y332619D01*
X237014Y332586D01*
X236988Y332560D01*
X236921Y332533D01*
X236888Y332500D01*
X236875Y332493D01*
X236802Y332454D01*
X236789Y332440D01*
X236702Y332394D01*
X236683Y332374D01*
X236636Y332361D01*
X236593Y332344D01*
X236573Y332324D01*
X236566Y332311D01*
X236537Y332294D01*
X236493Y332278D01*
X236470Y332261D01*
X236430Y332235D01*
X236367Y332211D01*
X236357Y332202D01*
X236344Y332195D01*
X236331Y332182D01*
X236258Y332142D01*
X236225Y332109D01*
X236188Y332099D01*
X236135Y332066D01*
X236112Y332042D01*
X236069Y332026D01*
X236046Y332009D01*
X236032Y331996D01*
X236019Y331989D01*
X236006Y331976D01*
X235959Y331949D01*
X235933Y331923D01*
X235920Y331916D01*
X235863Y331873D01*
X235857Y331860D01*
X235817Y331833D01*
X235793Y331817D01*
X235651Y331674D01*
X235644Y331661D01*
X235624Y331641D01*
X235618Y331628D01*
X235588Y331591D01*
X235578Y331581D01*
X235571Y331568D01*
X235558Y331535D01*
X235531Y331488D01*
X235512Y331468D01*
X235472Y331395D01*
X235445Y331369D01*
X235405Y331296D01*
X235379Y331269D01*
X235372Y331256D01*
X235329Y331193D01*
X235313Y331176D01*
X235296Y331133D01*
X235273Y331097D01*
X235253Y331077D01*
X235226Y331031D01*
X235187Y330991D01*
X235160Y330944D01*
X235140Y330924D01*
X235133Y330911D01*
X235120Y330898D01*
X235114Y330885D01*
X235084Y330848D01*
X235074Y330838D01*
X235067Y330825D01*
X235054Y330812D01*
X235047Y330798D01*
X235017Y330762D01*
X234987Y330732D01*
X234981Y330719D01*
X234951Y330689D01*
X234938Y330682D01*
X234928Y330672D01*
X234921Y330659D01*
X234861Y330599D01*
X234855Y330586D01*
X234832Y330556D01*
X234818Y330550D01*
X234772Y330530D01*
X234745Y330523D01*
X234702Y330513D01*
X234666Y330490D01*
X234656Y330480D01*
X234649Y330467D01*
X234639Y330457D01*
X234626Y330450D01*
X234613Y330437D01*
X234599Y330430D01*
X234500Y330330D01*
X234487Y330324D01*
X234430Y330287D01*
X234423Y330274D01*
X234407Y330258D01*
X234394Y330251D01*
X234380Y330238D01*
X234367Y330231D01*
X234321Y330185D01*
X234307Y330178D01*
X234261Y330132D01*
X234248Y330125D01*
X234161Y330065D01*
X234115Y330039D01*
X234082Y330006D01*
X234049Y329986D01*
X234002Y329939D01*
X233943Y329906D01*
X233929Y329893D01*
X233856Y329853D01*
X233823Y329820D01*
X233810Y329813D01*
X233750Y329780D01*
X233730Y329760D01*
X233684Y329740D01*
X233670Y329733D01*
X233634Y329704D01*
X233624Y329694D01*
X233561Y329670D01*
X233528Y329650D01*
X233524Y329641D01*
X233511Y329634D01*
X233412Y329581D01*
X233399Y329568D01*
X233316Y329538D01*
X233306Y329528D01*
X233292Y329521D01*
X233279Y329508D01*
X233246Y329495D01*
X233183Y329471D01*
X233173Y329461D01*
X233160Y329455D01*
X233146Y329441D01*
X233113Y329428D01*
X233077Y329418D01*
X233024Y329385D01*
X233014Y329375D01*
X232977Y329365D01*
X232944Y329359D01*
X232901Y329342D01*
X232855Y329309D01*
X232798Y329299D01*
X232765Y329292D01*
X232712Y329259D01*
X232669Y329242D01*
X232582Y329229D01*
X232543Y329203D01*
X232529Y329196D01*
X232496Y329183D01*
X232450Y329176D01*
X232390Y329163D01*
X232337Y329130D01*
X232284Y329116D01*
X232178Y329103D01*
X232078Y329057D01*
X232032Y329050D01*
X231916Y329040D01*
X231863Y329020D01*
X231820Y329004D01*
X231773Y328997D01*
X231747Y328990D01*
X231680Y328984D01*
X231554Y328977D01*
X231508Y328957D01*
X231435Y328951D01*
X231388Y328931D01*
X231222Y328924D01*
X231203Y328917D01*
X230473Y328924D01*
X230453Y328931D01*
X230353Y328937D01*
X230320Y328951D01*
X230274Y328957D01*
X230141Y328964D01*
X230121Y328971D01*
X230095Y328977D01*
X230028Y328984D01*
X229690Y328990D01*
X229670Y328997D01*
X229570Y329004D01*
X229537Y329017D01*
X229478Y329024D01*
X229431Y329044D01*
X229358Y329050D01*
X229338Y329044D01*
X229318Y329050D01*
X229192Y329057D01*
X229172Y329063D01*
X229129Y329073D01*
X229086Y329090D01*
X229040Y329103D01*
X228993Y329110D01*
X228847Y329116D01*
X228827Y329123D01*
X228728Y329170D01*
X228598Y329180D01*
X228559Y329186D01*
X228482Y329223D01*
X228456Y329229D01*
X228409Y329236D01*
X228343Y329242D01*
X228323Y329249D01*
X228224Y329296D01*
X228137Y329302D01*
X228101Y329312D01*
X228018Y329355D01*
X227972Y329362D01*
X227912Y329369D01*
X227852Y329402D01*
X227819Y329415D01*
X227792Y329422D01*
X227746Y329428D01*
X227710Y329438D01*
X227656Y329471D01*
X227626Y329481D01*
X227573Y329495D01*
X227527Y329501D01*
X227467Y329534D01*
X227434Y329548D01*
X227408Y329554D01*
X227338Y329571D01*
X227255Y329614D01*
X227199Y329624D01*
X227166Y329637D01*
X227122Y329667D01*
X227076Y329680D01*
X227006Y329697D01*
X226983Y329714D01*
X226970Y329727D01*
X226937Y329740D01*
X226910Y329747D01*
X226860Y329757D01*
X226837Y329767D01*
X226797Y329793D01*
X226764Y329806D01*
X226721Y329816D01*
X226688Y329830D01*
X226678Y329840D01*
X226665Y329846D01*
X226605Y329873D01*
X226555Y329883D01*
X226519Y329906D01*
X226505Y329919D01*
X226472Y329932D01*
X226393Y329952D01*
X226353Y329979D01*
X226306Y329999D01*
X226263Y330009D01*
X226240Y330019D01*
X226203Y330049D01*
X226167Y330065D01*
X226114Y330072D01*
X226077Y330102D01*
X226061Y330118D01*
X226034Y330125D01*
X225965Y330141D01*
X225935Y330171D01*
X225902Y330185D01*
X225875Y330191D01*
X225842Y330205D01*
X225805Y330234D01*
X225769Y330251D01*
X225699Y330268D01*
X225649Y330304D01*
X225616Y330317D01*
X225590Y330324D01*
X225530Y330350D01*
X225503Y330344D01*
X225430Y330304D01*
X225394Y330274D01*
X225358Y330258D01*
X225311Y330231D01*
X225285Y330205D01*
X225251Y330191D01*
X225215Y330181D01*
X225192Y330165D01*
X225172Y330145D01*
X225139Y330132D01*
X225076Y330108D01*
X225052Y330092D01*
X225006Y330072D01*
X224979Y330065D01*
X224913Y330059D01*
X224814Y330012D01*
X224787Y330006D01*
X224668Y329999D01*
X224648Y329992D01*
X224565Y329976D01*
X224512Y329962D01*
X224479Y329956D01*
X224144Y329952D01*
X224124Y329959D01*
X224057Y329979D01*
X223997Y329986D01*
X223978Y329992D01*
X223951Y329999D01*
X223905Y330006D01*
X223772Y330012D01*
X223686Y330052D01*
X223643Y330062D01*
X223589Y330068D01*
X223563Y330075D01*
X223523Y330102D01*
X223513Y330112D01*
X223467Y330125D01*
X223440Y330132D01*
X223391Y330141D01*
X223351Y330168D01*
X223341Y330178D01*
X223307Y330191D01*
X223281Y330198D01*
X223221Y330231D01*
X223208Y330244D01*
X223175Y330258D01*
X223132Y330274D01*
X223122Y330284D01*
X223109Y330291D01*
X223069Y330317D01*
X223042Y330324D01*
X223029Y330337D01*
X223016Y330344D01*
X223009Y330357D01*
X222996Y330364D01*
X222923Y330403D01*
X222903Y330423D01*
X222890Y330430D01*
X222876Y330443D01*
X222843Y330463D01*
X222803Y330503D01*
X222790Y330510D01*
X222777Y330523D01*
X222763Y330530D01*
X222747Y330553D01*
X222724Y330569D01*
X222687Y330599D01*
X222584Y330702D01*
X222571Y330709D01*
X222561Y330719D01*
X222554Y330732D01*
X222538Y330749D01*
X222525Y330755D01*
X222495Y330785D01*
X222488Y330798D01*
X222448Y330838D01*
X222428Y330871D01*
X222389Y330911D01*
X222382Y330924D01*
X222349Y330971D01*
X222329Y330991D01*
X222296Y331050D01*
X222283Y331064D01*
X222276Y331077D01*
X222263Y331090D01*
X222246Y331133D01*
X222229Y331156D01*
X222216Y331170D01*
X222210Y331183D01*
X222190Y331229D01*
X222183Y331256D01*
X222150Y331302D01*
X222130Y331349D01*
X222120Y331405D01*
X222107Y331438D01*
X222090Y331455D01*
X222083Y331468D01*
X222070Y331502D01*
X222064Y331528D01*
X222057Y331594D01*
X222050Y331614D01*
X222017Y331687D01*
X222004Y331734D01*
X221994Y331837D01*
X221981Y331890D01*
X221964Y331946D01*
X221951Y331993D01*
X221944Y332019D01*
X221937Y332085D01*
X221931Y332178D01*
X221898Y332238D01*
X221845Y332337D01*
X221835Y332347D01*
X221821Y332354D01*
X221798Y332377D01*
X221792Y332390D01*
X221775Y332407D01*
X221728Y332434D01*
X221692Y332464D01*
X221675Y332480D01*
X221662Y332487D01*
X221609Y332540D01*
X221596Y332546D01*
X221583Y332560D01*
X221569Y332566D01*
X221536Y332599D01*
X221523Y332606D01*
X221510Y332619D01*
X221496Y332626D01*
X221480Y332649D01*
X221463Y332666D01*
X221450Y332673D01*
X221413Y332702D01*
X221397Y332719D01*
X221384Y332726D01*
X221324Y332772D01*
X221251Y332845D01*
X221238Y332852D01*
X221178Y332898D01*
X221145Y332931D01*
X221131Y332938D01*
X221078Y332991D01*
X221065Y332998D01*
X221019Y333044D01*
X221005Y333051D01*
X220992Y333064D01*
X220979Y333071D01*
X220969Y333081D01*
X220962Y333094D01*
X220952Y333104D01*
X220939Y333110D01*
X220876Y333154D01*
X220859Y333170D01*
X220846Y333177D01*
X220796Y333213D01*
X220790Y333226D01*
X220780Y333236D01*
X220767Y333243D01*
X220730Y333273D01*
X220694Y333309D01*
X220680Y333316D01*
X220644Y333346D01*
X220627Y333363D01*
X220567Y333396D01*
X220548Y333416D01*
X220534Y333422D01*
X220521Y333436D01*
X220488Y333455D01*
X220448Y333495D01*
X220435Y333502D01*
X220398Y333532D01*
X220382Y333548D01*
X220335Y333568D01*
X220302Y333588D01*
X220286Y333611D01*
X220269Y333628D01*
X220222Y333621D01*
X220206Y333585D01*
X220199Y333545D01*
X220173Y333499D01*
X220160Y333465D01*
X220153Y333439D01*
X220146Y333392D01*
X220140Y333366D01*
X220093Y333266D01*
X220087Y333240D01*
X220077Y333183D01*
X220043Y333130D01*
X220027Y333094D01*
X220010Y332991D01*
X219997Y332958D01*
X219967Y332908D01*
X219960Y332862D01*
X219954Y332835D01*
X219944Y332799D01*
X219911Y332746D01*
X219894Y332702D01*
X219887Y332643D01*
X219858Y332606D01*
X219841Y332576D01*
X219828Y332523D01*
X219818Y332473D01*
X219791Y332434D01*
X219775Y332397D01*
X219768Y332371D01*
X219758Y332321D01*
X219725Y332268D01*
X219708Y332231D01*
X219692Y332162D01*
X219669Y332125D01*
X219642Y332085D01*
X219632Y332022D01*
X219625Y331996D01*
X219616Y331986D01*
X219609Y331973D01*
X219589Y331953D01*
X219579Y331916D01*
X219566Y331863D01*
X219532Y331810D01*
X219516Y331773D01*
X219509Y331747D01*
X219499Y331711D01*
X219473Y331671D01*
X219463Y331661D01*
X219450Y331628D01*
X219436Y331575D01*
X219390Y331502D01*
X219380Y331458D01*
X219370Y331435D01*
X219340Y331399D01*
X219324Y331362D01*
X219314Y331319D01*
X219304Y331296D01*
X219290Y331283D01*
X219284Y331269D01*
X219270Y331256D01*
X219257Y331210D01*
X219231Y331163D01*
X219211Y331143D01*
X219204Y331130D01*
X219191Y331097D01*
X219174Y331054D01*
X219158Y331037D01*
X219151Y331024D01*
X219138Y331011D01*
X219115Y330948D01*
X219098Y330931D01*
X219091Y330918D01*
X219065Y330858D01*
X219055Y330815D01*
X219018Y330765D01*
X219005Y330732D01*
X218999Y330705D01*
X218972Y330659D01*
X218959Y330646D01*
X218945Y330612D01*
X218939Y330586D01*
X218929Y330550D01*
X218919Y330526D01*
X218892Y330500D01*
X218879Y330467D01*
X218869Y330430D01*
X218859Y330407D01*
X218829Y330370D01*
X218813Y330327D01*
X218806Y330301D01*
X218786Y330268D01*
X218773Y330254D01*
X218766Y330241D01*
X218753Y330208D01*
X218740Y330155D01*
X218710Y330118D01*
X218700Y330108D01*
X218687Y330062D01*
X218670Y330019D01*
X218634Y329982D01*
X218614Y329916D01*
X218594Y329883D01*
X218574Y329863D01*
X218561Y329830D01*
X218551Y329793D01*
X218541Y329770D01*
X218511Y329733D01*
X218494Y329690D01*
X218488Y329664D01*
X218468Y329631D01*
X218455Y329617D01*
X218448Y329604D01*
X218401Y329518D01*
X218375Y329478D01*
X218345Y329395D01*
X218322Y329372D01*
X218315Y329359D01*
X218295Y329312D01*
X218289Y329299D01*
X218255Y329252D01*
X218249Y329239D01*
X218209Y329166D01*
X218196Y329153D01*
X218176Y329106D01*
X218143Y329047D01*
X218123Y329027D01*
X218099Y328964D01*
X218090Y328954D01*
X218083Y328941D01*
X218063Y328921D01*
X218043Y328874D01*
X218017Y328828D01*
X218003Y328815D01*
X217997Y328801D01*
X217964Y328742D01*
X217937Y328715D01*
X217930Y328702D01*
X217917Y328669D01*
X217910Y328642D01*
X217881Y328606D01*
X217864Y328589D01*
X217851Y328556D01*
X217831Y328523D01*
X217798Y328476D01*
X217781Y328433D01*
X217751Y328403D01*
X217745Y328390D01*
X217731Y328377D01*
X217725Y328350D01*
X217705Y328317D01*
X217665Y328257D01*
X217645Y328224D01*
X217625Y328204D01*
X217618Y328191D01*
X217572Y328105D01*
X217546Y328078D01*
X217512Y328018D01*
X217493Y327998D01*
X217473Y327952D01*
X217446Y327906D01*
X217433Y327892D01*
X217426Y327879D01*
X217400Y327833D01*
X217370Y327796D01*
X217360Y327786D01*
X217320Y327713D01*
X217293Y327687D01*
X217267Y327640D01*
X217234Y327607D01*
X217220Y327574D01*
X217201Y327541D01*
X217161Y327501D01*
X217128Y327441D01*
X217108Y327421D01*
X217101Y327408D01*
X217074Y327362D01*
X217061Y327348D01*
X217055Y327335D01*
X217035Y327315D01*
X217008Y327269D01*
X216998Y327252D01*
X216988Y327249D01*
X216982Y327236D01*
X216968Y327222D01*
X216942Y327176D01*
X216922Y327156D01*
X216915Y327143D01*
X216889Y327103D01*
X216882Y327090D01*
X216849Y327057D01*
X216842Y327043D01*
X216809Y326997D01*
X216796Y326983D01*
X216789Y326970D01*
X216733Y326887D01*
X216716Y326871D01*
X216710Y326857D01*
X216680Y326814D01*
X216667Y326808D01*
X216640Y326768D01*
X216623Y326745D01*
X216597Y326718D01*
X216590Y326705D01*
X216527Y326622D01*
X216491Y326566D01*
X216458Y326532D01*
X216438Y326499D01*
X216418Y326479D01*
X216411Y326466D01*
X216391Y326446D01*
X216385Y326433D01*
X216355Y326396D01*
X216338Y326380D01*
X216331Y326366D01*
X216285Y326307D01*
X216265Y326287D01*
X216245Y326254D01*
X216212Y326220D01*
X216205Y326207D01*
X216176Y326171D01*
X216146Y326141D01*
X216139Y326128D01*
X216109Y326091D01*
X216099Y326081D01*
X216093Y326068D01*
X216079Y326055D01*
X216073Y326041D01*
X216043Y326005D01*
X216013Y325975D01*
X216006Y325962D01*
X215977Y325925D01*
X215947Y325895D01*
X215940Y325882D01*
X215880Y325822D01*
X215874Y325809D01*
X215844Y325773D01*
X215821Y325749D01*
X215814Y325736D01*
X215784Y325700D01*
X215754Y325670D01*
X215748Y325657D01*
X215708Y325617D01*
X215701Y325604D01*
X215655Y325544D01*
X215628Y325524D01*
X215622Y325511D01*
X215608Y325497D01*
X215602Y325484D01*
X215555Y325438D01*
X215549Y325424D01*
X215539Y325414D01*
X215525Y325408D01*
X215495Y325378D01*
X215489Y325365D01*
X215449Y325325D01*
X215442Y325312D01*
X215429Y325298D01*
X215423Y325285D01*
X215413Y325275D01*
X215399Y325269D01*
X215383Y325252D01*
X215376Y325239D01*
X215340Y325202D01*
X215326Y325196D01*
X215310Y325172D01*
X215300Y325156D01*
X215290Y325152D01*
X215283Y325139D01*
X215243Y325099D01*
X215237Y325086D01*
X215207Y325049D01*
X215184Y325033D01*
X215180Y325023D01*
X215170Y325020D01*
X215164Y325006D01*
X215008Y324851D01*
X214961Y324837D01*
X214305Y324844D01*
X214285Y324851D01*
X214238Y324857D01*
X213303Y324864D01*
X213293Y324874D01*
X213299Y325060D01*
X213293Y327514D01*
X213299Y327534D01*
X213293Y330055D01*
X213299Y330075D01*
X213293Y332610D01*
X213299Y332629D01*
X213293Y335157D01*
X213299Y335177D01*
X213296Y337721D01*
X213299Y337784D01*
X213293Y337804D01*
X213286Y337877D01*
X213280Y337897D01*
X213273Y337944D01*
X213280Y338388D01*
X213296Y338405D01*
X213323Y338411D01*
X213366Y338395D01*
X213416Y338365D01*
X213459Y338355D01*
X213512Y338342D01*
X213552Y338315D01*
X213568Y338299D01*
X213615Y338279D01*
X213628Y338272D01*
X213664Y338242D01*
X213681Y338226D01*
X213694Y338219D01*
X213790Y338123D01*
X213797Y338109D01*
X213827Y338073D01*
X213843Y338056D01*
X213860Y338013D01*
X213870Y338003D01*
X213877Y337990D01*
X213890Y337977D01*
X213897Y337964D01*
X213916Y337917D01*
X213933Y337874D01*
X213943Y337864D01*
X213950Y337851D01*
X213963Y337837D01*
X213976Y337791D01*
X213983Y337744D01*
X213999Y337701D01*
X214016Y337671D01*
X214029Y337638D01*
X214036Y337612D01*
X214053Y337489D01*
X214059Y337463D01*
X214086Y337396D01*
X214096Y337360D01*
X214102Y337313D01*
X214112Y337197D01*
X214119Y337164D01*
X214125Y337138D01*
X214142Y337094D01*
X214155Y337061D01*
X214162Y337015D01*
X214169Y336988D01*
X214175Y336875D01*
X214189Y336842D01*
X214215Y336783D01*
X214228Y336729D01*
X214235Y336683D01*
X214245Y336640D01*
X214278Y336587D01*
X214295Y336530D01*
X214311Y336461D01*
X214328Y336438D01*
X214348Y336404D01*
X214354Y336378D01*
X214371Y336308D01*
X214404Y336255D01*
X214421Y336212D01*
X214431Y336169D01*
X214444Y336136D01*
X214460Y336112D01*
X214480Y336066D01*
X214494Y336013D01*
X214520Y335966D01*
X214553Y335894D01*
X214560Y335867D01*
X214606Y335794D01*
X214613Y335768D01*
X214633Y335714D01*
X214666Y335668D01*
X214680Y335635D01*
X214713Y335575D01*
X214746Y335502D01*
X214772Y335456D01*
X214786Y335442D01*
X214799Y335409D01*
X214839Y335336D01*
X214852Y335323D01*
X214865Y335290D01*
X214898Y335230D01*
X214912Y335217D01*
X214918Y335204D01*
X214965Y335117D01*
X214978Y335104D01*
X215018Y335031D01*
X215044Y335004D01*
X215058Y334971D01*
X215084Y334925D01*
X215104Y334905D01*
X215111Y334892D01*
X215137Y334845D01*
X215157Y334825D01*
X215164Y334812D01*
X215177Y334799D01*
X215217Y334726D01*
X215243Y334699D01*
X215250Y334686D01*
X215283Y334640D01*
X215303Y334620D01*
X215336Y334560D01*
X215350Y334547D01*
X215356Y334534D01*
X215376Y334513D01*
X215383Y334500D01*
X215413Y334464D01*
X215436Y334441D01*
X215442Y334427D01*
X215472Y334391D01*
X215495Y334368D01*
X215502Y334354D01*
X215549Y334295D01*
X215575Y334255D01*
X215582Y334242D01*
X215635Y334189D01*
X215641Y334175D01*
X215688Y334129D01*
X215694Y334116D01*
X215754Y334056D01*
X215761Y334043D01*
X215774Y334029D01*
X215781Y334016D01*
X215864Y333933D01*
X215874Y333930D01*
X215880Y333916D01*
X216189Y333608D01*
X216199Y333605D01*
X216205Y333591D01*
X216215Y333581D01*
X216229Y333575D01*
X216265Y333545D01*
X216315Y333495D01*
X216328Y333488D01*
X216381Y333436D01*
X216394Y333429D01*
X216434Y333389D01*
X216447Y333382D01*
X216577Y333286D01*
X216600Y333263D01*
X216613Y333256D01*
X216650Y333226D01*
X216673Y333203D01*
X216686Y333197D01*
X216733Y333163D01*
X216746Y333157D01*
X216766Y333137D01*
X216826Y333104D01*
X216852Y333077D01*
X216865Y333071D01*
X216912Y333044D01*
X216948Y333014D01*
X216985Y332998D01*
X217018Y332978D01*
X217055Y332948D01*
X217111Y332918D01*
X217157Y332885D01*
X217204Y332865D01*
X217217Y332858D01*
X217284Y332812D01*
X217320Y332802D01*
X217356Y332779D01*
X217370Y332765D01*
X217383Y332759D01*
X217416Y332746D01*
X217453Y332735D01*
X217493Y332709D01*
X217509Y332692D01*
X217562Y332679D01*
X217622Y332646D01*
X217668Y332626D01*
X217695Y332619D01*
X217731Y332610D01*
X217764Y332596D01*
X217847Y332560D01*
X217874Y332553D01*
X217917Y332543D01*
X217950Y332530D01*
X218000Y332500D01*
X218046Y332493D01*
X218073Y332487D01*
X218113Y332480D01*
X218199Y332440D01*
X218226Y332434D01*
X218272Y332427D01*
X218315Y332417D01*
X218348Y332404D01*
X218418Y332374D01*
X218444Y332367D01*
X218541Y332357D01*
X218567Y332351D01*
X218600Y332337D01*
X218637Y332321D01*
X218703Y332301D01*
X218796Y332294D01*
X218829Y332281D01*
X218916Y332255D01*
X218962Y332241D01*
X219048Y332235D01*
X219101Y332228D01*
X219148Y332208D01*
X219181Y332215D01*
X219198Y332231D01*
X219204Y332245D01*
X219224Y332264D01*
X219231Y332278D01*
X219251Y332324D01*
X219257Y332351D01*
X219290Y332410D01*
X219317Y332470D01*
X219324Y332497D01*
X219350Y332543D01*
X219363Y332556D01*
X219377Y332590D01*
X219387Y332633D01*
X219400Y332666D01*
X219410Y332676D01*
X219416Y332689D01*
X219436Y332722D01*
X219443Y332749D01*
X219453Y332792D01*
X219503Y332888D01*
X219509Y332915D01*
X219532Y332978D01*
X219543Y332988D01*
X219549Y333001D01*
X219569Y333047D01*
X219579Y333090D01*
X219592Y333124D01*
X219602Y333134D01*
X219609Y333147D01*
X219629Y333193D01*
X219635Y333220D01*
X219645Y333270D01*
X219689Y333352D01*
X219695Y333379D01*
X219712Y333449D01*
X219738Y333488D01*
X219755Y333525D01*
X219765Y333588D01*
X219771Y333621D01*
X219785Y333654D01*
X219814Y333704D01*
X219825Y333747D01*
X219838Y333820D01*
X219858Y333860D01*
X219881Y333916D01*
X219887Y333943D01*
X219894Y334003D01*
X219901Y334023D01*
X219894Y334082D01*
X219864Y334119D01*
X219818Y334132D01*
X219761Y334142D01*
X219735Y334149D01*
X219705Y334172D01*
X219692Y334178D01*
X219659Y334192D01*
X219632Y334198D01*
X219586Y334205D01*
X219539Y334232D01*
X219479Y334258D01*
X219416Y334268D01*
X219383Y334281D01*
X219367Y334298D01*
X219353Y334305D01*
X219320Y334318D01*
X219294Y334325D01*
X219224Y334341D01*
X219184Y334368D01*
X219148Y334384D01*
X219078Y334401D01*
X219025Y334434D01*
X218982Y334451D01*
X218939Y334460D01*
X218906Y334474D01*
X218863Y334504D01*
X218816Y334517D01*
X218779Y334527D01*
X218743Y334550D01*
X218723Y334570D01*
X218687Y334580D01*
X218660Y334587D01*
X218637Y334596D01*
X218624Y334610D01*
X218610Y334616D01*
X218590Y334636D01*
X218554Y334646D01*
X218521Y334660D01*
X218498Y334676D01*
X218484Y334689D01*
X218471Y334696D01*
X218438Y334709D01*
X218378Y334742D01*
X218365Y334756D01*
X218352Y334762D01*
X218292Y334795D01*
X218265Y334822D01*
X218192Y334862D01*
X218173Y334882D01*
X218159Y334888D01*
X218113Y334922D01*
X218086Y334948D01*
X218073Y334955D01*
X217990Y335018D01*
X217950Y335044D01*
X217920Y335074D01*
X217907Y335081D01*
X217894Y335094D01*
X217881Y335101D01*
X217768Y335213D01*
X217755Y335220D01*
X217741Y335233D01*
X217728Y335240D01*
X217718Y335250D01*
X217715Y335260D01*
X217702Y335267D01*
X217519Y335449D01*
X217512Y335462D01*
X217499Y335469D01*
X217493Y335482D01*
X217479Y335495D01*
X217473Y335509D01*
X217400Y335582D01*
X217396Y335592D01*
X217383Y335598D01*
X217360Y335622D01*
X217353Y335635D01*
X217340Y335648D01*
X217333Y335661D01*
X217287Y335708D01*
X217267Y335741D01*
X217254Y335754D01*
X217247Y335768D01*
X217234Y335781D01*
X217227Y335794D01*
X217194Y335840D01*
X217174Y335860D01*
X217167Y335874D01*
X217121Y335933D01*
X217108Y335947D01*
X217101Y335960D01*
X217068Y336020D01*
X217041Y336046D01*
X217008Y336106D01*
X216988Y336126D01*
X216982Y336139D01*
X216948Y336199D01*
X216919Y336235D01*
X216869Y336325D01*
X216842Y336365D01*
X216826Y336408D01*
X216816Y336418D01*
X216809Y336431D01*
X216783Y336457D01*
X216773Y336494D01*
X216766Y336521D01*
X216740Y336560D01*
X216723Y336577D01*
X216693Y336660D01*
X216676Y336683D01*
X216663Y336696D01*
X216643Y336763D01*
X216627Y336806D01*
X216610Y336822D01*
X216603Y336836D01*
X216584Y336882D01*
X216574Y336925D01*
X216534Y336992D01*
X216524Y337021D01*
X216517Y337048D01*
X216507Y337091D01*
X216474Y337144D01*
X216458Y337200D01*
X216441Y337270D01*
X216408Y337323D01*
X216398Y337360D01*
X216391Y337386D01*
X216385Y337453D01*
X216368Y337496D01*
X216338Y337545D01*
X216325Y337625D01*
X216312Y337711D01*
X216272Y337798D01*
X216265Y337844D01*
X216259Y337930D01*
X216252Y337957D01*
X216235Y338026D01*
X216219Y338070D01*
X216205Y338116D01*
X216199Y338182D01*
X216189Y338325D01*
X216176Y338405D01*
X216169Y338431D01*
X216159Y338468D01*
X216146Y338521D01*
X216136Y338644D01*
X216132Y339025D01*
X216139Y339045D01*
X216146Y339171D01*
X216152Y339191D01*
X216162Y339247D01*
X216169Y339287D01*
X216189Y339387D01*
X216195Y339466D01*
X216202Y339579D01*
X216209Y339612D01*
X216219Y339649D01*
X216232Y339682D01*
X216252Y339748D01*
X216259Y339794D01*
X216268Y339871D01*
X216288Y339924D01*
X216305Y339960D01*
X216318Y340007D01*
X216325Y340033D01*
X216335Y340096D01*
X216378Y340179D01*
X216385Y340206D01*
X216398Y340266D01*
X216424Y340312D01*
X216438Y340325D01*
X216458Y340405D01*
X216484Y340451D01*
X216497Y340465D01*
X216511Y340498D01*
X216517Y340524D01*
X216544Y340571D01*
X216557Y340584D01*
X216564Y340597D01*
X216584Y340644D01*
X216610Y340690D01*
X216623Y340704D01*
X216630Y340717D01*
X216663Y340776D01*
X216676Y340790D01*
X216683Y340803D01*
X216696Y340816D01*
X216729Y340876D01*
X216756Y340902D01*
X216763Y340916D01*
X216809Y340975D01*
X216829Y340995D01*
X216836Y341009D01*
X216865Y341045D01*
X216889Y341068D01*
X216895Y341082D01*
X216915Y341102D01*
X216922Y341115D01*
X217005Y341198D01*
X217018Y341204D01*
X217071Y341257D01*
X217085Y341264D01*
X217098Y341277D01*
X217111Y341284D01*
X217147Y341314D01*
X217171Y341337D01*
X217184Y341344D01*
X217237Y341397D01*
X217250Y341403D01*
X217287Y341433D01*
X217303Y341450D01*
X217317Y341457D01*
X217363Y341483D01*
X217383Y341503D01*
X217396Y341510D01*
X217409Y341523D01*
X217456Y341549D01*
X217466Y341559D01*
X217473Y341573D01*
X217482Y341582D01*
X217496Y341589D01*
X217542Y341622D01*
X217555Y341636D01*
X217569Y341642D01*
X217615Y341669D01*
X217652Y341699D01*
X217662Y341709D01*
X217675Y341715D01*
X217721Y341748D01*
X217755Y341782D01*
X217768Y341788D01*
X217804Y341818D01*
X217821Y341835D01*
X217834Y341841D01*
X217851Y341858D01*
X217857Y341871D01*
X217877Y341891D01*
X217884Y341904D01*
X217904Y341924D01*
X217950Y342010D01*
X217977Y342050D01*
X217987Y342087D01*
X218020Y342140D01*
X218037Y342176D01*
X218050Y342229D01*
X218083Y342289D01*
X218103Y342336D01*
X218119Y342405D01*
X218149Y342462D01*
X218169Y342508D01*
X218179Y342571D01*
X218192Y342604D01*
X218209Y342627D01*
X218229Y342674D01*
X218246Y342750D01*
X218289Y342833D01*
X218295Y342860D01*
X218305Y342909D01*
X218312Y342936D01*
X218315Y342972D01*
X218289Y343019D01*
X218272Y343036D01*
X218226Y343049D01*
X218199Y343055D01*
X218086Y343108D01*
X218060Y343115D01*
X218013Y343122D01*
X217970Y343138D01*
X217900Y343168D01*
X217874Y343175D01*
X217808Y343181D01*
X217738Y343191D01*
X217711Y343198D01*
X217635Y343221D01*
X217589Y343228D01*
X217562Y343234D01*
X217456Y343241D01*
X217025Y343234D01*
X217005Y343228D01*
X216948Y343218D01*
X216922Y343211D01*
X216865Y343195D01*
X216812Y343181D01*
X216700Y343175D01*
X216680Y343168D01*
X216653Y343162D01*
X216567Y343122D01*
X216497Y343112D01*
X216464Y343105D01*
X216381Y343062D01*
X216355Y343055D01*
X216305Y343045D01*
X216272Y343032D01*
X216255Y343016D01*
X216209Y342996D01*
X216166Y342986D01*
X216132Y342972D01*
X216123Y342963D01*
X216109Y342956D01*
X216076Y342936D01*
X216043Y342923D01*
X215996Y342896D01*
X215983Y342883D01*
X215917Y342856D01*
X215884Y342836D01*
X215864Y342816D01*
X215817Y342797D01*
X215771Y342770D01*
X215751Y342750D01*
X215738Y342744D01*
X215691Y342710D01*
X215665Y342684D01*
X215618Y342664D01*
X215605Y342657D01*
X215592Y342644D01*
X215578Y342637D01*
X215559Y342618D01*
X215512Y342591D01*
X215476Y342561D01*
X215466Y342551D01*
X215452Y342545D01*
X215393Y342498D01*
X215330Y342455D01*
X215300Y342425D01*
X215286Y342419D01*
X215250Y342389D01*
X215213Y342352D01*
X215167Y342326D01*
X215154Y342312D01*
X215141Y342306D01*
X215081Y342272D01*
X215048Y342239D01*
X215034Y342233D01*
X214948Y342186D01*
X214915Y342166D01*
X214889Y342160D01*
X214845Y342150D01*
X214822Y342140D01*
X214782Y342113D01*
X214746Y342103D01*
X214510Y342100D01*
X214477Y342113D01*
X214464Y342120D01*
X214391Y342153D01*
X214305Y342160D01*
X214218Y342173D01*
X214145Y342206D01*
X214102Y342216D01*
X214043Y342223D01*
X213970Y342229D01*
X213936Y342236D01*
X213883Y342256D01*
X213840Y342272D01*
X213814Y342279D01*
X213651Y342296D01*
X213615Y342306D01*
X213581Y342319D01*
X213515Y342339D01*
X213489Y342345D01*
X213422Y342352D01*
X213323Y342359D01*
X213286Y342389D01*
X213273Y342435D01*
X213280Y342846D01*
X213303Y342883D01*
X213336Y342896D01*
X213396Y342870D01*
X213449Y342863D01*
X213495Y342843D01*
X213545Y342833D01*
X213651Y342820D01*
X213678Y342813D01*
X213711Y342807D01*
X213817Y342780D01*
X213854Y342770D01*
X213900Y342763D01*
X213963Y342754D01*
X213989Y342747D01*
X214023Y342740D01*
X214062Y342734D01*
X214096Y342727D01*
X214132Y342717D01*
X214159Y342710D01*
X214205Y342704D01*
X214308Y342694D01*
X214447Y342687D01*
X214553Y342674D01*
X214699Y342681D01*
X214733Y342687D01*
X214766Y342700D01*
X214776Y342710D01*
X214789Y342717D01*
X214822Y342750D01*
X214885Y342773D01*
X214908Y342797D01*
X214922Y342803D01*
X214935Y342816D01*
X214995Y342850D01*
X215008Y342863D01*
X215021Y342870D01*
X215074Y342903D01*
X215088Y342909D01*
X215114Y342936D01*
X215127Y342943D01*
X215187Y342989D01*
X215220Y343009D01*
X215280Y343042D01*
X215300Y343062D01*
X215313Y343069D01*
X215376Y343112D01*
X215399Y343135D01*
X215459Y343168D01*
X215499Y343195D01*
X215545Y343221D01*
X215578Y343254D01*
X215612Y343268D01*
X215671Y343301D01*
X215685Y343314D01*
X215698Y343321D01*
X215771Y343361D01*
X215811Y343387D01*
X215844Y343400D01*
X215887Y343417D01*
X215897Y343427D01*
X215970Y343460D01*
X216006Y343470D01*
X216016Y343480D01*
X216089Y343513D01*
X216116Y343520D01*
X216162Y343533D01*
X216189Y343540D01*
X216275Y343580D01*
X216302Y343586D01*
X216345Y343596D01*
X216371Y343603D01*
X216404Y343616D01*
X216447Y343633D01*
X216501Y343646D01*
X216577Y343656D01*
X216610Y343662D01*
X216663Y343669D01*
X216696Y343676D01*
X216753Y343692D01*
X216839Y343699D01*
X216859Y343706D01*
X217108Y343716D01*
X217244Y343719D01*
X217264Y343712D01*
X217446Y343709D01*
X217496Y343712D01*
X217516Y343706D01*
X217572Y343696D01*
X217702Y343686D01*
X217721Y343679D01*
X217768Y343672D01*
X217794Y343666D01*
X217897Y343656D01*
X217950Y343649D01*
X218037Y343642D01*
X218070Y343636D01*
X218106Y343626D01*
X218153Y343619D01*
X218229Y343603D01*
X218255Y343596D01*
X218308Y343589D01*
X218388Y343583D01*
X218428Y343576D01*
X218481Y343563D01*
X218521Y343556D01*
X218574Y343550D01*
X218610Y343540D01*
X218643Y343546D01*
X218653Y343576D01*
X218647Y343769D01*
X218640Y343789D01*
X218634Y343815D01*
X218630Y343911D01*
X218634Y343961D01*
X218627Y343981D01*
X218617Y344064D01*
X218610Y344236D01*
X218604Y344323D01*
X218597Y344468D01*
X218590Y344588D01*
X218584Y344641D01*
X218577Y344668D01*
X218571Y344707D01*
X218561Y344830D01*
X218554Y344850D01*
X218547Y344877D01*
X218537Y345178D01*
X218531Y345232D01*
X218524Y345324D01*
X218517Y345351D01*
X218511Y345384D01*
X218501Y345513D01*
X218494Y345533D01*
X218488Y345560D01*
X218474Y345812D01*
X218464Y345921D01*
X218458Y346008D01*
X218444Y346061D01*
X218438Y346154D01*
X218431Y346213D01*
X218425Y346247D01*
X218418Y346366D01*
X218411Y346532D01*
X218405Y346585D01*
X218398Y346724D01*
X218391Y346757D01*
X218365Y346830D01*
X218355Y346867D01*
X218348Y346893D01*
X218332Y346936D01*
X218295Y347013D01*
X218289Y347039D01*
X218272Y347082D01*
X218242Y347132D01*
X218229Y347165D01*
X218219Y347202D01*
X218186Y347255D01*
X218169Y347285D01*
X218156Y347338D01*
X218139Y347381D01*
X218123Y347398D01*
X218116Y347411D01*
X218096Y347457D01*
X218080Y347500D01*
X218043Y347550D01*
X218026Y347593D01*
X217993Y347646D01*
X217983Y347656D01*
X217960Y347719D01*
X217937Y347756D01*
X217924Y347769D01*
X217917Y347782D01*
X217904Y347816D01*
X217871Y347875D01*
X217857Y347888D01*
X217811Y347975D01*
X217798Y347988D01*
X217791Y348001D01*
X217751Y348074D01*
X217738Y348088D01*
X217731Y348101D01*
X217685Y348187D01*
X217665Y348207D01*
X217658Y348220D01*
X217632Y348267D01*
X217605Y348293D01*
X217559Y348379D01*
X217532Y348406D01*
X217499Y348466D01*
X217473Y348492D01*
X217459Y348526D01*
X217429Y348575D01*
X217420Y348579D01*
X217413Y348592D01*
X217393Y348625D01*
X217386Y348638D01*
X217373Y348652D01*
X217366Y348665D01*
X217340Y348691D01*
X217313Y348738D01*
X217300Y348751D01*
X217293Y348764D01*
X217280Y348778D01*
X217273Y348791D01*
X217240Y348837D01*
X217214Y348864D01*
X217181Y348923D01*
X217161Y348943D01*
X217154Y348957D01*
X217121Y349003D01*
X217114Y349016D01*
X217081Y349050D01*
X217061Y349083D01*
X217021Y349123D01*
X217002Y349156D01*
X216982Y349176D01*
X216975Y349189D01*
X216962Y349202D01*
X216935Y349249D01*
X216905Y349285D01*
X216895Y349295D01*
X216889Y349308D01*
X216859Y349345D01*
X216829Y349375D01*
X216822Y349388D01*
X216792Y349424D01*
X216769Y349448D01*
X216763Y349461D01*
X216733Y349497D01*
X216716Y349514D01*
X216710Y349527D01*
X216663Y349587D01*
X216650Y349600D01*
X216643Y349613D01*
X216613Y349650D01*
X216564Y349700D01*
X216557Y349713D01*
X216524Y349746D01*
X216517Y349760D01*
X216444Y349832D01*
X216424Y349866D01*
X216385Y349905D01*
X216378Y349919D01*
X216325Y349972D01*
X216318Y349985D01*
X216288Y350022D01*
X216232Y350078D01*
X216225Y350091D01*
X216192Y350124D01*
X216185Y350138D01*
X216156Y350174D01*
X216142Y350181D01*
X216126Y350197D01*
X216119Y350211D01*
X216096Y350234D01*
X216083Y350240D01*
X216059Y350264D01*
X216053Y350277D01*
X216030Y350300D01*
X216016Y350307D01*
X216006Y350317D01*
X216000Y350330D01*
X215986Y350343D01*
X215980Y350357D01*
X215940Y350396D01*
X215933Y350410D01*
X215910Y350433D01*
X215897Y350440D01*
X215880Y350456D01*
X215874Y350469D01*
X215804Y350539D01*
X215758Y350566D01*
X215748Y350575D01*
X215754Y350602D01*
X215771Y350619D01*
X215864Y350632D01*
X216321Y350625D01*
D02*
G37*
G36*
X213436Y347792D02*
X213714Y347786D01*
X213727Y347779D01*
X213734D01*
X213777Y347769D01*
X213820Y347753D01*
X213867Y347739D01*
X213893Y347733D01*
X213956Y347709D01*
X213973Y347693D01*
X213986Y347686D01*
X214033Y347653D01*
X214049Y347636D01*
X214056Y347623D01*
X214089Y347564D01*
X214102Y347550D01*
X214122Y347504D01*
X214149Y347457D01*
X214169Y347437D01*
X214182Y347404D01*
X214198Y347361D01*
X214208Y347351D01*
X214215Y347338D01*
X214242Y347298D01*
X214251Y347255D01*
X214285Y347202D01*
X214295Y347172D01*
X214288Y347132D01*
X214271Y347116D01*
X214238Y347102D01*
X214212Y347096D01*
X214139Y347063D01*
X214046Y347049D01*
X213950Y347033D01*
X213923Y347026D01*
X213887Y347016D01*
X213840Y347003D01*
X213814Y346996D01*
X213707Y346990D01*
X213688Y346983D01*
X213562Y346976D01*
X213542Y346970D01*
X213369Y346963D01*
X213323Y346943D01*
X213293Y346966D01*
X213280Y347000D01*
X213273Y347046D01*
X213280Y347762D01*
X213303Y347792D01*
X213329Y347799D01*
X213436Y347792D01*
D02*
G37*
%LPC*%
G36*
X234221Y345795D02*
X234055Y345789D01*
X233936Y345782D01*
X233916Y345776D01*
X233889Y345769D01*
X233856Y345756D01*
X233810Y345742D01*
X233783Y345736D01*
X233737Y345729D01*
X233647Y345719D01*
X233621Y345712D01*
X233551Y345676D01*
X233524Y345669D01*
X233468Y345659D01*
X233442Y345653D01*
X233408Y345639D01*
X233399Y345630D01*
X233352Y345610D01*
X233306Y345596D01*
X233262Y345580D01*
X233213Y345550D01*
X233180Y345537D01*
X233136Y345520D01*
X233126Y345510D01*
X233113Y345503D01*
X233014Y345450D01*
X232987Y345424D01*
X232941Y345404D01*
X232927Y345397D01*
X232891Y345368D01*
X232881Y345357D01*
X232868Y345351D01*
X232821Y345318D01*
X232788Y345285D01*
X232775Y345278D01*
X232738Y345248D01*
X232722Y345232D01*
X232709Y345225D01*
X232672Y345195D01*
X232649Y345172D01*
X232635Y345165D01*
X232553Y345082D01*
X232546Y345069D01*
X232513Y345036D01*
X232506Y345023D01*
X232493Y345009D01*
X232486Y344996D01*
X232453Y344963D01*
X232447Y344950D01*
X232417Y344913D01*
X232387Y344883D01*
X232360Y344837D01*
X232334Y344810D01*
X232314Y344764D01*
X232300Y344731D01*
X232271Y344694D01*
X232261Y344684D01*
X232254Y344638D01*
X232261Y344319D01*
X232267Y344299D01*
X232274Y344226D01*
X232281Y344206D01*
X232300Y344127D01*
X232307Y344080D01*
X232314Y344054D01*
X232327Y343921D01*
X232340Y343888D01*
X232347Y343875D01*
X232373Y343815D01*
X232380Y343789D01*
X232390Y343732D01*
X232403Y343699D01*
X232413Y343689D01*
X232420Y343676D01*
X232440Y343629D01*
X232463Y343566D01*
X232480Y343550D01*
X232486Y343536D01*
X232533Y343450D01*
X232553Y343430D01*
X232559Y343417D01*
X232602Y343354D01*
X232632Y343324D01*
X232639Y343311D01*
X232669Y343274D01*
X232699Y343245D01*
X232705Y343231D01*
X232874Y343062D01*
X232888Y343055D01*
X232908Y343036D01*
X232921Y343029D01*
X232961Y342989D01*
X232974Y342982D01*
X233020Y342936D01*
X233034Y342929D01*
X233060Y342903D01*
X233073Y342896D01*
X233100Y342870D01*
X233113Y342863D01*
X233180Y342797D01*
X233193Y342790D01*
X233239Y342744D01*
X233253Y342737D01*
X233306Y342684D01*
X233319Y342677D01*
X233352Y342644D01*
X233365Y342637D01*
X233385Y342618D01*
X233432Y342591D01*
X233478Y342545D01*
X233491Y342538D01*
X233538Y342491D01*
X233551Y342485D01*
X233588Y342455D01*
X233617Y342425D01*
X233631Y342419D01*
X233697Y342352D01*
X233710Y342345D01*
X233750Y342306D01*
X233763Y342299D01*
X233889Y342173D01*
X233903Y342166D01*
X233916Y342153D01*
X233929Y342146D01*
X233959Y342117D01*
X233966Y342103D01*
X233999Y342070D01*
X234005Y342057D01*
X234015Y342047D01*
X234026Y342044D01*
X234032Y342030D01*
X234171Y341891D01*
X234178Y341878D01*
X234225Y341831D01*
X234231Y341818D01*
X234261Y341782D01*
X234284Y341758D01*
X234311Y341712D01*
X234337Y341685D01*
X234344Y341672D01*
X234370Y341626D01*
X234400Y341589D01*
X234410Y341579D01*
X234430Y341533D01*
X234437Y341519D01*
X234470Y341473D01*
X234490Y341427D01*
X234510Y341393D01*
X234536Y341354D01*
X234543Y341327D01*
X234570Y341254D01*
X234603Y341181D01*
X234609Y341115D01*
X234613Y340946D01*
X234606Y340786D01*
X234599Y340753D01*
X234579Y340700D01*
X234563Y340664D01*
X234550Y340617D01*
X234536Y340558D01*
X234510Y340511D01*
X234490Y340465D01*
X234483Y340438D01*
X234467Y340395D01*
X234430Y340345D01*
X234417Y340312D01*
X234410Y340285D01*
X234377Y340239D01*
X234350Y340179D01*
X234317Y340120D01*
X234304Y340106D01*
X234291Y340073D01*
X234274Y340030D01*
X234258Y340007D01*
X234231Y339967D01*
X234221Y339931D01*
X234201Y339891D01*
X234175Y339851D01*
X234142Y339758D01*
X234132Y339748D01*
X234125Y339735D01*
X234105Y339688D01*
X234088Y339619D01*
X234075Y339586D01*
X234059Y339549D01*
X234052Y339523D01*
X234059Y339476D01*
X234098Y339390D01*
X234108Y339320D01*
X234122Y339287D01*
X234158Y339217D01*
X234171Y339164D01*
X234205Y339105D01*
X234225Y339058D01*
X234248Y338995D01*
X234264Y338979D01*
X234271Y338965D01*
X234291Y338919D01*
X234324Y338859D01*
X234337Y338846D01*
X234357Y338799D01*
X234370Y338766D01*
X234400Y338730D01*
X234447Y338637D01*
X234457Y338627D01*
X234463Y338614D01*
X234503Y338541D01*
X234533Y338504D01*
X234550Y338461D01*
X234570Y338428D01*
X234589Y338408D01*
X234596Y338395D01*
X234636Y338322D01*
X234669Y338275D01*
X234686Y338232D01*
X234702Y338209D01*
X234715Y338196D01*
X234722Y338182D01*
X234742Y338136D01*
X234762Y338103D01*
X234795Y338056D01*
X234802Y338030D01*
X234835Y337970D01*
X234855Y337950D01*
X234868Y337904D01*
X234901Y337844D01*
X234914Y337831D01*
X234928Y337798D01*
X234938Y337761D01*
X234948Y337738D01*
X234981Y337691D01*
X234994Y337638D01*
X235004Y337595D01*
X235047Y337512D01*
X235054Y337486D01*
X235070Y337383D01*
X235077Y337350D01*
X235080Y337194D01*
X235074Y337174D01*
X235064Y337118D01*
X235057Y337058D01*
X235051Y337018D01*
X235037Y336985D01*
X235021Y336968D01*
X234994Y336909D01*
X234984Y336872D01*
X234958Y336832D01*
X234948Y336822D01*
X234941Y336809D01*
X234908Y336749D01*
X234881Y336723D01*
X234875Y336709D01*
X234848Y336663D01*
X234818Y336627D01*
X234802Y336610D01*
X234795Y336597D01*
X234765Y336560D01*
X234742Y336537D01*
X234735Y336524D01*
X234705Y336487D01*
X234676Y336457D01*
X234669Y336444D01*
X234616Y336391D01*
X234589Y336345D01*
X234556Y336312D01*
X234550Y336298D01*
X234516Y336252D01*
X234477Y336212D01*
X234470Y336199D01*
X234440Y336169D01*
X234394Y336142D01*
X234347Y336109D01*
X234314Y336089D01*
X234274Y336049D01*
X234261Y336043D01*
X234225Y336013D01*
X234201Y335990D01*
X234128Y335950D01*
X234115Y335937D01*
X234102Y335930D01*
X234088Y335917D01*
X234042Y335890D01*
X234002Y335850D01*
X233989Y335844D01*
X233943Y335797D01*
X233929Y335791D01*
X233866Y335748D01*
X233856Y335738D01*
X233843Y335731D01*
X233797Y335698D01*
X233763Y335665D01*
X233750Y335658D01*
X233714Y335628D01*
X233677Y335592D01*
X233664Y335585D01*
X233627Y335555D01*
X233544Y335472D01*
X233531Y335466D01*
X233495Y335436D01*
X233471Y335413D01*
X233458Y335406D01*
X233342Y335290D01*
X233335Y335277D01*
X233322Y335263D01*
X233316Y335250D01*
X233269Y335204D01*
X233262Y335190D01*
X233229Y335157D01*
X233223Y335144D01*
X233216Y335124D01*
X233209Y335097D01*
X233203Y335024D01*
X233196Y335004D01*
X233190Y334938D01*
X233196Y334912D01*
X233203Y334746D01*
X233209Y334726D01*
X233216Y334600D01*
X233223Y334513D01*
X233236Y334480D01*
X233262Y334421D01*
X233276Y334374D01*
X233289Y334288D01*
X233335Y334189D01*
X233342Y334142D01*
X233362Y334089D01*
X233395Y334043D01*
X233405Y333999D01*
X233412Y333966D01*
X233422Y333943D01*
X233455Y333896D01*
X233468Y333863D01*
X233481Y333804D01*
X233528Y333737D01*
X233538Y333694D01*
X233571Y333641D01*
X233594Y333598D01*
X233604Y333561D01*
X233637Y333508D01*
X233647Y333499D01*
X233667Y333419D01*
X233674Y333406D01*
X233704Y333369D01*
X233720Y333333D01*
X233730Y333230D01*
X233737Y333190D01*
X233740Y333094D01*
X233734Y333074D01*
X233740Y333014D01*
X233734Y332994D01*
X233727Y332848D01*
X233717Y332739D01*
X233697Y332659D01*
X233677Y332606D01*
X233667Y332570D01*
X233661Y332503D01*
X233647Y332417D01*
X233621Y332371D01*
X233601Y332324D01*
X233594Y332271D01*
X233588Y332251D01*
X233554Y332191D01*
X233535Y332145D01*
X233518Y332102D01*
X233501Y332079D01*
X233475Y332039D01*
X233465Y331996D01*
X233445Y331963D01*
X233432Y331956D01*
X233422Y331946D01*
X233415Y331933D01*
X233375Y331860D01*
X233342Y331827D01*
X233335Y331813D01*
X233306Y331777D01*
X233276Y331747D01*
X233269Y331734D01*
X233180Y331644D01*
X233166Y331638D01*
X233120Y331591D01*
X233107Y331585D01*
X233060Y331551D01*
X233020Y331525D01*
X232994Y331518D01*
X232947Y331485D01*
X232934Y331472D01*
X232888Y331458D01*
X232835Y331438D01*
X232788Y331405D01*
X232735Y331392D01*
X232699Y331382D01*
X232665Y331369D01*
X232655Y331359D01*
X232609Y331339D01*
X232529Y331326D01*
X232480Y331316D01*
X232453Y331309D01*
X232377Y331273D01*
X232350Y331266D01*
X232025Y331259D01*
X231873Y331266D01*
X231839Y331279D01*
X231780Y331306D01*
X231713Y331326D01*
X231677Y331336D01*
X231654Y331346D01*
X231607Y331379D01*
X231574Y331392D01*
X231547Y331399D01*
X231474Y331445D01*
X231415Y331478D01*
X231382Y331511D01*
X231348Y331525D01*
X231315Y331545D01*
X231289Y331571D01*
X231276Y331578D01*
X231239Y331608D01*
X231203Y331644D01*
X231189Y331651D01*
X231159Y331674D01*
X231153Y331687D01*
X231136Y331704D01*
X231123Y331711D01*
X231093Y331740D01*
X231086Y331754D01*
X231070Y331770D01*
X231057Y331777D01*
X230967Y331866D01*
X230960Y331880D01*
X230944Y331896D01*
X230930Y331903D01*
X230901Y331933D01*
X230894Y331946D01*
X230884Y331956D01*
X230871Y331963D01*
X230841Y331993D01*
X230834Y332006D01*
X230811Y332029D01*
X230798Y332036D01*
X230781Y332059D01*
X230751Y332095D01*
X230715Y332132D01*
X230708Y332145D01*
X230655Y332198D01*
X230648Y332211D01*
X230602Y332258D01*
X230595Y332271D01*
X230552Y332334D01*
X230539Y332341D01*
X230479Y332400D01*
X230453Y332407D01*
X230426Y332400D01*
X230410Y332384D01*
X230403Y332371D01*
X230350Y332318D01*
X230343Y332304D01*
X230297Y332245D01*
X230277Y332225D01*
X230270Y332211D01*
X230231Y332172D01*
X230224Y332158D01*
X230211Y332145D01*
X230204Y332132D01*
X230111Y332039D01*
X230104Y332026D01*
X230091Y332012D01*
X230085Y331999D01*
X230071Y331986D01*
X230068Y331976D01*
X230055Y331969D01*
X230012Y331926D01*
X230005Y331913D01*
X229959Y331866D01*
X229952Y331853D01*
X229922Y331823D01*
X229912Y331820D01*
X229906Y331807D01*
X229862Y331764D01*
X229849Y331757D01*
X229839Y331747D01*
X229833Y331734D01*
X229796Y331697D01*
X229786Y331694D01*
X229779Y331681D01*
X229736Y331638D01*
X229723Y331631D01*
X229706Y331608D01*
X229670Y331571D01*
X229657Y331565D01*
X229640Y331541D01*
X229544Y331445D01*
X229531Y331438D01*
X229498Y331405D01*
X229484Y331399D01*
X229441Y331356D01*
X229434Y331342D01*
X229395Y331316D01*
X229371Y331299D01*
X229338Y331266D01*
X229325Y331259D01*
X229278Y331213D01*
X229219Y331180D01*
X229186Y331147D01*
X229172Y331140D01*
X229136Y331110D01*
X229106Y331080D01*
X229033Y331040D01*
X229020Y331027D01*
X228947Y330987D01*
X228920Y330961D01*
X228887Y330948D01*
X228841Y330921D01*
X228821Y330901D01*
X228807Y330894D01*
X228774Y330881D01*
X228748Y330875D01*
X228715Y330855D01*
X228701Y330841D01*
X228688Y330835D01*
X228642Y330815D01*
X228605Y330805D01*
X228595Y330795D01*
X228582Y330788D01*
X228562Y330768D01*
X228529Y330755D01*
X228472Y330745D01*
X228419Y330712D01*
X228376Y330695D01*
X228330Y330689D01*
X228267Y330666D01*
X228224Y330642D01*
X228197Y330636D01*
X228094Y330612D01*
X228084Y330603D01*
X228071Y330596D01*
X228038Y330576D01*
X227985Y330563D01*
X227942Y330553D01*
X227919Y330543D01*
X227879Y330516D01*
X227846Y330503D01*
X227783Y330493D01*
X227749Y330480D01*
X227739Y330470D01*
X227726Y330463D01*
X227680Y330443D01*
X227653Y330437D01*
X227603Y330427D01*
X227580Y330417D01*
X227544Y330387D01*
X227520Y330370D01*
X227504Y330354D01*
X227510Y330341D01*
X227520Y330330D01*
X227547Y330324D01*
X227587Y330317D01*
X227633Y330284D01*
X227680Y330271D01*
X227723Y330261D01*
X227779Y330231D01*
X227826Y330211D01*
X227902Y330194D01*
X227935Y330181D01*
X227945Y330171D01*
X227991Y330151D01*
X228018Y330145D01*
X228064Y330138D01*
X228108Y330128D01*
X228141Y330115D01*
X228184Y330092D01*
X228237Y330078D01*
X228297Y330072D01*
X228396Y330025D01*
X228439Y330015D01*
X228492Y330009D01*
X228532Y330002D01*
X228598Y329976D01*
X228635Y329959D01*
X228661Y329952D01*
X228768Y329939D01*
X228788Y329932D01*
X228834Y329913D01*
X228867Y329899D01*
X228920Y329886D01*
X229007Y329879D01*
X229093Y329840D01*
X229129Y329830D01*
X229189Y329823D01*
X229275Y329816D01*
X229308Y329810D01*
X229342Y329797D01*
X229398Y329773D01*
X229425Y329767D01*
X229491Y329760D01*
X229600Y329750D01*
X229680Y329730D01*
X229736Y329714D01*
X229779Y329704D01*
X229869Y329694D01*
X230042Y329687D01*
X230061Y329680D01*
X230124Y329670D01*
X230224Y329650D01*
X230310Y329644D01*
X230363Y329637D01*
X230615Y329631D01*
X231090Y329627D01*
X231110Y329634D01*
X231415Y329641D01*
X231435Y329647D01*
X231501Y329654D01*
X231521Y329661D01*
X231567Y329667D01*
X231594Y329674D01*
X231687Y329687D01*
X231793Y329694D01*
X231892Y329700D01*
X231912Y329707D01*
X231975Y329730D01*
X232018Y329747D01*
X232111Y329760D01*
X232161Y329770D01*
X232184Y329780D01*
X232257Y329813D01*
X232284Y329820D01*
X232347Y329830D01*
X232456Y329879D01*
X232533Y329896D01*
X232602Y329932D01*
X232649Y329946D01*
X232675Y329952D01*
X232712Y329962D01*
X232722Y329972D01*
X232735Y329979D01*
X232775Y330006D01*
X232831Y330015D01*
X232884Y330049D01*
X232914Y330065D01*
X232957Y330075D01*
X232984Y330082D01*
X233007Y330098D01*
X233020Y330112D01*
X233034Y330118D01*
X233080Y330138D01*
X233113Y330145D01*
X233186Y330191D01*
X233223Y330201D01*
X233256Y330214D01*
X233266Y330224D01*
X233279Y330231D01*
X233292Y330244D01*
X233379Y330277D01*
X233405Y330304D01*
X233418Y330311D01*
X233452Y330324D01*
X233495Y330341D01*
X233518Y330357D01*
X233531Y330370D01*
X233544Y330377D01*
X233578Y330390D01*
X233614Y330400D01*
X233637Y330417D01*
X233670Y330450D01*
X233714Y330460D01*
X233737Y330470D01*
X233750Y330483D01*
X233763Y330490D01*
X233783Y330510D01*
X233850Y330536D01*
X233896Y330569D01*
X233962Y330596D01*
X234029Y330642D01*
X234075Y330669D01*
X234108Y330702D01*
X234122Y330709D01*
X234158Y330739D01*
X234188Y330768D01*
X234201Y330775D01*
X234238Y330805D01*
X234261Y330821D01*
X234304Y330865D01*
X234307Y330875D01*
X234321Y330881D01*
X234334Y330894D01*
X234347Y330901D01*
X234384Y330931D01*
X234394Y330941D01*
X234407Y330948D01*
X234463Y331004D01*
X234470Y331017D01*
X234500Y331054D01*
X234523Y331077D01*
X234530Y331090D01*
X234702Y331263D01*
X234709Y331276D01*
X234722Y331289D01*
X234729Y331302D01*
X234759Y331339D01*
X234772Y331346D01*
X234782Y331356D01*
X234788Y331369D01*
X234841Y331422D01*
X234848Y331435D01*
X234861Y331449D01*
X234868Y331462D01*
X234891Y331478D01*
X234914Y331502D01*
X234921Y331515D01*
X234958Y331551D01*
X234967Y331555D01*
X234974Y331568D01*
X235004Y331604D01*
X235027Y331628D01*
X235034Y331641D01*
X235064Y331671D01*
X235077Y331677D01*
X235094Y331694D01*
X235100Y331707D01*
X235123Y331730D01*
X235137Y331737D01*
X235160Y331760D01*
X235167Y331773D01*
X235180Y331787D01*
X235187Y331800D01*
X235236Y331850D01*
X235249Y331856D01*
X235263Y331870D01*
X235276Y331876D01*
X235286Y331886D01*
X235293Y331900D01*
X235322Y331929D01*
X235336Y331936D01*
X235346Y331946D01*
X235352Y331959D01*
X235382Y331989D01*
X235396Y331996D01*
X235435Y332036D01*
X235449Y332042D01*
X235485Y332072D01*
X235508Y332102D01*
X235522Y332109D01*
X235581Y332155D01*
X235628Y332182D01*
X235714Y332241D01*
X235747Y332261D01*
X235774Y332288D01*
X235837Y332311D01*
X235860Y332328D01*
X235893Y332361D01*
X235940Y332387D01*
X235959Y332407D01*
X235973Y332414D01*
X236046Y332454D01*
X236072Y332480D01*
X236132Y332513D01*
X236158Y332540D01*
X236218Y332573D01*
X236231Y332586D01*
X236245Y332593D01*
X236258Y332606D01*
X236271Y332613D01*
X236318Y332646D01*
X236344Y332673D01*
X236357Y332679D01*
X236417Y332726D01*
X236464Y332759D01*
X236477Y332765D01*
X236530Y332819D01*
X236543Y332825D01*
X236596Y332878D01*
X236610Y332885D01*
X236699Y332974D01*
X236706Y332988D01*
X236746Y333027D01*
X236752Y333041D01*
X236799Y333100D01*
X236812Y333114D01*
X236819Y333127D01*
X236852Y333173D01*
X236878Y333200D01*
X236918Y333273D01*
X236945Y333313D01*
X236955Y333349D01*
X236988Y333402D01*
X237004Y333432D01*
X237024Y333512D01*
X237037Y333545D01*
X237064Y333585D01*
X237077Y333631D01*
X237087Y333688D01*
X237101Y333721D01*
X237130Y333777D01*
X237144Y333830D01*
X237150Y333883D01*
X237190Y333969D01*
X237203Y334016D01*
X237210Y334082D01*
X237223Y334135D01*
X237263Y334222D01*
X237270Y334268D01*
X237280Y334331D01*
X237286Y334358D01*
X237299Y334391D01*
X237329Y334460D01*
X237339Y334530D01*
X237346Y334563D01*
X237359Y334596D01*
X237389Y334666D01*
X237396Y334693D01*
X237406Y334756D01*
X237419Y334789D01*
X237445Y334829D01*
X237456Y334858D01*
X237475Y334951D01*
X237509Y334998D01*
X237522Y335031D01*
X237535Y335091D01*
X237581Y335164D01*
X237588Y335190D01*
X237628Y335263D01*
X237674Y335349D01*
X237694Y335369D01*
X237701Y335383D01*
X237747Y335469D01*
X237774Y335495D01*
X237800Y335542D01*
X237834Y335575D01*
X237840Y335588D01*
X237883Y335651D01*
X237900Y335668D01*
X237927Y335714D01*
X237956Y335751D01*
X237966Y335761D01*
X237973Y335774D01*
X238003Y335811D01*
X238019Y335827D01*
X238026Y335840D01*
X238053Y335887D01*
X238072Y335907D01*
X238079Y335920D01*
X238092Y335933D01*
X238119Y335980D01*
X238159Y336020D01*
X238185Y336066D01*
X238205Y336086D01*
X238212Y336099D01*
X238238Y336146D01*
X238268Y336182D01*
X238285Y336199D01*
X238318Y336258D01*
X238338Y336278D01*
X238345Y336292D01*
X238378Y336351D01*
X238398Y336371D01*
X238404Y336385D01*
X238437Y336444D01*
X238471Y336491D01*
X238484Y336524D01*
X238504Y336557D01*
X238537Y336603D01*
X238550Y336650D01*
X238583Y336723D01*
X238597Y336756D01*
X238603Y336902D01*
X238597Y336948D01*
X238590Y337028D01*
X238577Y337061D01*
X238563Y337108D01*
X238550Y337161D01*
X238544Y337227D01*
X238510Y337280D01*
X238497Y337313D01*
X238474Y337376D01*
X238451Y337400D01*
X238444Y337413D01*
X238404Y337486D01*
X238384Y337506D01*
X238378Y337519D01*
X238364Y337532D01*
X238358Y337545D01*
X238341Y337569D01*
X238328Y337575D01*
X238305Y337599D01*
X238298Y337612D01*
X238285Y337625D01*
X238278Y337638D01*
X238162Y337755D01*
X238149Y337761D01*
X238112Y337791D01*
X238089Y337821D01*
X238076Y337827D01*
X238063Y337841D01*
X238049Y337847D01*
X238009Y337887D01*
X237996Y337894D01*
X237960Y337924D01*
X237936Y337940D01*
X237890Y337967D01*
X237854Y337997D01*
X237837Y338013D01*
X237824Y338020D01*
X237787Y338050D01*
X237771Y338066D01*
X237757Y338073D01*
X237711Y338100D01*
X237645Y338146D01*
X237611Y338166D01*
X237585Y338192D01*
X237572Y338199D01*
X237509Y338242D01*
X237469Y338269D01*
X237436Y338282D01*
X237392Y338325D01*
X237379Y338332D01*
X237333Y338365D01*
X237313Y338385D01*
X237299Y338391D01*
X237240Y338424D01*
X237207Y338458D01*
X237193Y338464D01*
X237157Y338494D01*
X237127Y338524D01*
X237114Y338531D01*
X237077Y338561D01*
X236839Y338799D01*
X236832Y338813D01*
X236779Y338866D01*
X236746Y338925D01*
X236712Y338998D01*
X236706Y339085D01*
X236712Y339290D01*
X236719Y339310D01*
X236726Y339350D01*
X236739Y339383D01*
X236752Y339430D01*
X236759Y339456D01*
X236766Y339523D01*
X236775Y339592D01*
X236795Y339645D01*
X236819Y339702D01*
X236825Y339728D01*
X236835Y339798D01*
X236842Y339824D01*
X236855Y339858D01*
X236885Y339927D01*
X236901Y340043D01*
X236908Y340070D01*
X236941Y340143D01*
X236948Y340169D01*
X236955Y340223D01*
X236961Y340315D01*
X236968Y340382D01*
X236978Y340471D01*
X236971Y340664D01*
X236965Y340684D01*
X236958Y340770D01*
X236951Y340836D01*
X236925Y340883D01*
X236898Y340942D01*
X236892Y340982D01*
X236865Y341029D01*
X236852Y341042D01*
X236839Y341075D01*
X236822Y341118D01*
X236805Y341141D01*
X236792Y341155D01*
X236785Y341168D01*
X236766Y341214D01*
X236739Y341261D01*
X236712Y341287D01*
X236686Y341334D01*
X236656Y341370D01*
X236626Y341427D01*
X236593Y341460D01*
X236586Y341473D01*
X236553Y341519D01*
X236530Y341536D01*
X236503Y341576D01*
X236467Y341612D01*
X236460Y341626D01*
X236447Y341639D01*
X236440Y341652D01*
X236427Y341666D01*
X236420Y341679D01*
X235833Y342266D01*
X235830Y342269D01*
X235624Y342475D01*
X235618Y342488D01*
X235571Y342535D01*
X235565Y342548D01*
X235535Y342591D01*
X235522Y342598D01*
X235485Y342634D01*
X235478Y342647D01*
X235445Y342674D01*
X235439Y342687D01*
X235409Y342724D01*
X235379Y342754D01*
X235372Y342767D01*
X235342Y342803D01*
X235319Y342827D01*
X235313Y342840D01*
X235279Y342899D01*
X235246Y342933D01*
X235220Y342979D01*
X235200Y342999D01*
X235193Y343012D01*
X235147Y343098D01*
X235120Y343125D01*
X235114Y343152D01*
X235074Y343225D01*
X235047Y343284D01*
X235031Y343327D01*
X235021Y343337D01*
X235014Y343351D01*
X234987Y343410D01*
X234978Y343487D01*
X234971Y343520D01*
X234954Y343576D01*
X234941Y343623D01*
X234934Y343649D01*
X234928Y343795D01*
X234934Y343928D01*
X234941Y343948D01*
X234951Y343991D01*
X234971Y344070D01*
X234978Y344104D01*
X234984Y344170D01*
X234991Y344210D01*
X235011Y344263D01*
X235027Y344293D01*
X235040Y344326D01*
X235047Y344372D01*
X235070Y344435D01*
X235100Y344485D01*
X235110Y344528D01*
X235117Y344555D01*
X235130Y344588D01*
X235147Y344604D01*
X235153Y344618D01*
X235173Y344664D01*
X235183Y344701D01*
X235256Y344794D01*
X235276Y344813D01*
X235289Y344820D01*
X235349Y344847D01*
X235389Y344853D01*
X235425Y344883D01*
X235482Y344906D01*
X235525Y344923D01*
X235548Y344940D01*
X235561Y344953D01*
X235595Y344966D01*
X235654Y344979D01*
X235721Y345026D01*
X235757Y345036D01*
X235790Y345049D01*
X235813Y345066D01*
X235827Y345079D01*
X235860Y345092D01*
X235929Y345109D01*
X235940Y345119D01*
X235986Y345145D01*
X235996Y345155D01*
X236002Y345182D01*
X235996Y345208D01*
X235979Y345225D01*
X235966Y345232D01*
X235936Y345261D01*
X235933Y345271D01*
X235920Y345278D01*
X235873Y345324D01*
X235860Y345331D01*
X235820Y345357D01*
X235787Y345377D01*
X235774Y345391D01*
X235760Y345397D01*
X235701Y345430D01*
X235667Y345464D01*
X235581Y345510D01*
X235522Y345537D01*
X235396Y345596D01*
X235369Y345603D01*
X235326Y345620D01*
X235269Y345649D01*
X235223Y345663D01*
X235176Y345669D01*
X235150Y345676D01*
X235051Y345722D01*
X234941Y345732D01*
X234905Y345742D01*
X234858Y345756D01*
X234752Y345782D01*
X234705Y345789D01*
X234221Y345795D01*
D02*
G37*
G36*
X226671Y346047D02*
X224959Y346041D01*
X224940Y346034D01*
X224814Y346028D01*
X224794Y346021D01*
X224701Y346008D01*
X224644Y345998D01*
X224605Y345991D01*
X224425Y345985D01*
X224293Y345978D01*
X224220Y345971D01*
X224133Y345958D01*
X224054Y345938D01*
X224014Y345931D01*
X223924Y345921D01*
X223553Y345928D01*
X223533Y345935D01*
X223477Y345945D01*
X223440Y345955D01*
X223414Y345961D01*
X223367Y345968D01*
X223341Y345974D01*
X223235Y345981D01*
X223148Y345988D01*
X223072Y345998D01*
X223036Y346008D01*
X222969Y346028D01*
X222923Y346034D01*
X222856Y346041D01*
X222730Y346047D01*
X222684Y346014D01*
X222644Y345974D01*
X222634Y345971D01*
X222627Y345958D01*
X222561Y345892D01*
X222554Y345878D01*
X222508Y345832D01*
X222501Y345819D01*
X222488Y345805D01*
X222482Y345792D01*
X222448Y345759D01*
X222442Y345746D01*
X222412Y345709D01*
X222362Y345639D01*
X222356Y345626D01*
X222329Y345600D01*
X222322Y345586D01*
X222292Y345543D01*
X222279Y345537D01*
X222249Y345507D01*
X222243Y345494D01*
X222213Y345457D01*
X222040Y345285D01*
X222027Y345278D01*
X221997Y345255D01*
X221991Y345241D01*
X221981Y345232D01*
X221967Y345225D01*
X221934Y345212D01*
X221888Y345185D01*
X221874Y345172D01*
X221841Y345159D01*
X221772Y345142D01*
X221748Y345125D01*
X221728Y345105D01*
X221675Y345092D01*
X221632Y345076D01*
X221609Y345052D01*
X221596Y345046D01*
X221563Y345032D01*
X221526Y345023D01*
X221503Y345012D01*
X221476Y344986D01*
X221463Y344979D01*
X221430Y344966D01*
X221393Y344956D01*
X221357Y344933D01*
X221337Y344913D01*
X221301Y344903D01*
X221268Y344890D01*
X221244Y344873D01*
X221224Y344853D01*
X221211Y344847D01*
X221178Y344833D01*
X221151Y344827D01*
X221115Y344797D01*
X221105Y344787D01*
X221072Y344774D01*
X221025Y344747D01*
X221012Y344734D01*
X220952Y344707D01*
X220939Y344701D01*
X220903Y344671D01*
X220886Y344654D01*
X220853Y344641D01*
X220806Y344615D01*
X220786Y344595D01*
X220773Y344588D01*
X220727Y344561D01*
X220694Y344528D01*
X220621Y344488D01*
X220607Y344475D01*
X220594Y344468D01*
X220538Y344432D01*
X220531Y344419D01*
X220514Y344402D01*
X220501Y344395D01*
X220438Y344352D01*
X220422Y344336D01*
X220362Y344303D01*
X220329Y344269D01*
X220315Y344263D01*
X220279Y344233D01*
X220249Y344203D01*
X220236Y344197D01*
X220199Y344167D01*
X220176Y344143D01*
X220163Y344137D01*
X220116Y344104D01*
X220090Y344077D01*
X220077Y344070D01*
X220037Y344031D01*
X220023Y344024D01*
X220010Y344011D01*
X219997Y344004D01*
X219937Y343944D01*
X219924Y343938D01*
X219871Y343885D01*
X219858Y343878D01*
X219755Y343775D01*
X219752Y343765D01*
X219738Y343759D01*
X219695Y343716D01*
X219689Y343702D01*
X219665Y343686D01*
X219436Y343457D01*
X219433Y343447D01*
X219420Y343440D01*
X219383Y343404D01*
X219377Y343390D01*
X219363Y343377D01*
X219357Y343364D01*
X219264Y343271D01*
X219237Y343225D01*
X219191Y343178D01*
X219184Y343165D01*
X219151Y343132D01*
X219144Y343118D01*
X219125Y343098D01*
X219118Y343085D01*
X219085Y343052D01*
X219078Y343039D01*
X219065Y343025D01*
X219058Y343012D01*
X219042Y342989D01*
X219028Y342982D01*
X219018Y342972D01*
X219012Y342959D01*
X218965Y342899D01*
X218952Y342886D01*
X218919Y342827D01*
X218892Y342800D01*
X218886Y342787D01*
X218839Y342727D01*
X218819Y342707D01*
X218793Y342661D01*
X218763Y342624D01*
X218733Y342568D01*
X218713Y342548D01*
X218707Y342535D01*
X218693Y342521D01*
X218667Y342475D01*
X218637Y342438D01*
X218594Y342362D01*
X218574Y342342D01*
X218527Y342256D01*
X218514Y342243D01*
X218468Y342156D01*
X218448Y342137D01*
X218421Y342070D01*
X218415Y342057D01*
X218395Y342037D01*
X218388Y342024D01*
X218375Y342010D01*
X218352Y341947D01*
X218342Y341937D01*
X218335Y341924D01*
X218322Y341911D01*
X218302Y341864D01*
X218269Y341805D01*
X218209Y341692D01*
X218176Y341619D01*
X218162Y341586D01*
X218129Y341539D01*
X218116Y341506D01*
X218106Y341470D01*
X218096Y341446D01*
X218063Y341400D01*
X218050Y341347D01*
X218033Y341304D01*
X218007Y341264D01*
X217990Y341221D01*
X217980Y341178D01*
X217967Y341145D01*
X217950Y341128D01*
X217944Y341115D01*
X217930Y341082D01*
X217924Y341055D01*
X217914Y341019D01*
X217900Y340985D01*
X217891Y340975D01*
X217884Y340962D01*
X217864Y340916D01*
X217854Y340859D01*
X217847Y340833D01*
X217814Y340780D01*
X217804Y340750D01*
X217798Y340723D01*
X217788Y340667D01*
X217774Y340634D01*
X217745Y340584D01*
X217738Y340558D01*
X217731Y340511D01*
X217721Y340448D01*
X217678Y340365D01*
X217672Y340319D01*
X217662Y340242D01*
X217642Y340189D01*
X217625Y340160D01*
X217612Y340113D01*
X217605Y340067D01*
X217599Y339987D01*
X217565Y339914D01*
X217552Y339867D01*
X217546Y339821D01*
X217539Y339715D01*
X217532Y339668D01*
X217526Y339536D01*
X217519Y339516D01*
X217512Y339450D01*
X217506Y339178D01*
X217493Y339144D01*
X217486Y338580D01*
X217479Y338561D01*
X217473Y338182D01*
X217456Y338159D01*
X217439Y338156D01*
X217420Y338169D01*
X217413Y338182D01*
X217353Y338308D01*
X217343Y338345D01*
X217323Y338398D01*
X217287Y338474D01*
X217277Y338517D01*
X217250Y338590D01*
X217234Y338627D01*
X217224Y338670D01*
X217217Y338710D01*
X217211Y338743D01*
X217204Y338770D01*
X217184Y338823D01*
X217167Y338879D01*
X217161Y338906D01*
X217147Y338998D01*
X217114Y339105D01*
X217101Y339158D01*
X217094Y339204D01*
X217088Y339231D01*
X217078Y339287D01*
X217061Y339343D01*
X217041Y339410D01*
X217035Y339436D01*
X217028Y339483D01*
X217021Y339509D01*
X217011Y339586D01*
X216998Y339619D01*
X216978Y339625D01*
X216942Y339596D01*
X216922Y339549D01*
X216915Y339523D01*
X216899Y339413D01*
X216892Y339380D01*
X216869Y339304D01*
X216862Y339277D01*
X216846Y339161D01*
X216839Y339042D01*
X216832Y338975D01*
X216829Y338454D01*
X216836Y338435D01*
X216842Y338328D01*
X216852Y338226D01*
X216859Y338166D01*
X216879Y338086D01*
X216885Y338046D01*
X216892Y338020D01*
X216905Y337940D01*
X216912Y337887D01*
X216919Y337847D01*
X216925Y337821D01*
X216955Y337725D01*
X216962Y337698D01*
X216968Y337652D01*
X216985Y337582D01*
X217002Y337545D01*
X217015Y337512D01*
X217028Y337466D01*
X217045Y337390D01*
X217058Y337356D01*
X217074Y337320D01*
X217094Y337254D01*
X217101Y337227D01*
X217111Y337191D01*
X217147Y337121D01*
X217167Y337041D01*
X217181Y337008D01*
X217207Y336968D01*
X217220Y336922D01*
X217227Y336895D01*
X217260Y336836D01*
X217287Y336776D01*
X217297Y336739D01*
X217310Y336706D01*
X217327Y336690D01*
X217347Y336643D01*
X217360Y336610D01*
X217386Y336564D01*
X217420Y336491D01*
X217453Y336431D01*
X217499Y336345D01*
X217512Y336331D01*
X217519Y336318D01*
X217565Y336232D01*
X217612Y336165D01*
X217638Y336119D01*
X217658Y336099D01*
X217691Y336039D01*
X217705Y336026D01*
X217711Y336013D01*
X217725Y336000D01*
X217758Y335940D01*
X217791Y335907D01*
X217798Y335894D01*
X217844Y335834D01*
X217857Y335821D01*
X217864Y335807D01*
X217910Y335761D01*
X217917Y335748D01*
X217964Y335688D01*
X217990Y335661D01*
X217997Y335648D01*
X218010Y335635D01*
X218013Y335625D01*
X218026Y335618D01*
X218037Y335608D01*
X218043Y335595D01*
X218226Y335413D01*
X218239Y335406D01*
X218272Y335373D01*
X218285Y335366D01*
X218338Y335313D01*
X218352Y335306D01*
X218365Y335293D01*
X218398Y335273D01*
X218411Y335260D01*
X218425Y335253D01*
X218451Y335227D01*
X218464Y335220D01*
X218501Y335190D01*
X218517Y335174D01*
X218531Y335167D01*
X218594Y335124D01*
X218604Y335114D01*
X218677Y335074D01*
X218703Y335048D01*
X218803Y334995D01*
X218863Y334968D01*
X218935Y334928D01*
X218982Y334908D01*
X219108Y334849D01*
X219168Y334835D01*
X219214Y334815D01*
X219227Y334822D01*
X219237Y334832D01*
X219231Y334892D01*
X219198Y334965D01*
X219181Y335034D01*
X219168Y335068D01*
X219138Y335117D01*
X219121Y335200D01*
X219078Y335283D01*
X219072Y335310D01*
X219061Y335353D01*
X219042Y335406D01*
X219012Y335475D01*
X219005Y335502D01*
X218995Y335545D01*
X218975Y335598D01*
X218945Y335668D01*
X218939Y335695D01*
X218929Y335731D01*
X218916Y335764D01*
X218892Y335821D01*
X218879Y335867D01*
X218869Y335923D01*
X218863Y335957D01*
X218829Y336030D01*
X218819Y336066D01*
X218826Y336139D01*
X218839Y336152D01*
X218846Y336165D01*
X218872Y336205D01*
X218879Y336219D01*
X218909Y336255D01*
X218932Y336278D01*
X218939Y336292D01*
X218955Y336308D01*
X218969Y336315D01*
X219008Y336355D01*
X219035Y336361D01*
X219061Y336355D01*
X219091Y336325D01*
X219098Y336312D01*
X219118Y336292D01*
X219138Y336245D01*
X219164Y336199D01*
X219178Y336185D01*
X219224Y336099D01*
X219251Y336059D01*
X219290Y335986D01*
X219317Y335960D01*
X219334Y335917D01*
X219360Y335877D01*
X219377Y335860D01*
X219410Y335801D01*
X219436Y335774D01*
X219443Y335761D01*
X219469Y335714D01*
X219483Y335701D01*
X219489Y335688D01*
X219503Y335675D01*
X219509Y335661D01*
X219552Y335598D01*
X219569Y335582D01*
X219596Y335535D01*
X219622Y335509D01*
X219629Y335495D01*
X219662Y335449D01*
X219669Y335436D01*
X219702Y335403D01*
X219728Y335356D01*
X219768Y335316D01*
X219775Y335303D01*
X219805Y335267D01*
X219821Y335250D01*
X219828Y335237D01*
X219841Y335223D01*
X219848Y335210D01*
X219878Y335174D01*
X219887Y335164D01*
X219894Y335151D01*
X219907Y335137D01*
X219914Y335124D01*
X219960Y335078D01*
X219980Y335044D01*
X220027Y334998D01*
X220033Y334985D01*
X220080Y334938D01*
X220087Y334925D01*
X220146Y334865D01*
X220153Y334852D01*
X220183Y334815D01*
X220206Y334792D01*
X220213Y334779D01*
X220378Y334613D01*
X220385Y334600D01*
X220405Y334580D01*
X220412Y334567D01*
X220442Y334530D01*
X220478Y334500D01*
X220485Y334487D01*
X220508Y334464D01*
X220521Y334457D01*
X220544Y334434D01*
X220551Y334421D01*
X220567Y334404D01*
X220581Y334397D01*
X220640Y334351D01*
X220866Y334125D01*
X220879Y334119D01*
X220913Y334086D01*
X220926Y334079D01*
X220962Y334049D01*
X221052Y333960D01*
X221065Y333953D01*
X221102Y333923D01*
X221151Y333873D01*
X221165Y333867D01*
X221184Y333847D01*
X221198Y333840D01*
X221218Y333820D01*
X221231Y333814D01*
X221277Y333767D01*
X221291Y333760D01*
X221324Y333727D01*
X221337Y333721D01*
X221357Y333701D01*
X221404Y333674D01*
X221420Y333658D01*
X221423Y333648D01*
X221437Y333641D01*
X221450Y333628D01*
X221463Y333621D01*
X221510Y333575D01*
X221523Y333568D01*
X221559Y333538D01*
X221576Y333522D01*
X221636Y333488D01*
X221672Y333459D01*
X221722Y333429D01*
X221735Y333422D01*
X221748Y333409D01*
X221762Y333402D01*
X221782Y333382D01*
X221828Y333356D01*
X221865Y333326D01*
X221931Y333286D01*
X221954Y333263D01*
X222014Y333230D01*
X222034Y333210D01*
X222047Y333203D01*
X222060Y333190D01*
X222107Y333163D01*
X222140Y333130D01*
X222153Y333124D01*
X222190Y333094D01*
X222213Y333064D01*
X222226Y333057D01*
X222263Y333027D01*
X222286Y333004D01*
X222299Y332998D01*
X222322Y332974D01*
X222329Y332961D01*
X222375Y332915D01*
X222389Y332881D01*
X222409Y332815D01*
X222435Y332709D01*
X222442Y332603D01*
X222448Y332576D01*
X222455Y332523D01*
X222462Y332503D01*
X222472Y332447D01*
X222478Y332420D01*
X222488Y332384D01*
X222501Y332331D01*
X222508Y332284D01*
X222518Y332221D01*
X222525Y332195D01*
X222545Y332142D01*
X222568Y332066D01*
X222584Y331989D01*
X222598Y331956D01*
X222634Y331873D01*
X222641Y331833D01*
X222707Y331694D01*
X222734Y331647D01*
X222747Y331634D01*
X222754Y331621D01*
X222800Y331535D01*
X222820Y331515D01*
X222827Y331502D01*
X222873Y331442D01*
X222886Y331429D01*
X222893Y331415D01*
X222923Y331379D01*
X222939Y331362D01*
X222946Y331349D01*
X222972Y331322D01*
X222979Y331309D01*
X222996Y331293D01*
X223009Y331286D01*
X223022Y331273D01*
X223036Y331266D01*
X223072Y331236D01*
X223102Y331206D01*
X223115Y331200D01*
X223135Y331180D01*
X223148Y331173D01*
X223168Y331153D01*
X223182Y331147D01*
X223218Y331117D01*
X223235Y331100D01*
X223248Y331094D01*
X223288Y331067D01*
X223301Y331060D01*
X223327Y331034D01*
X223341Y331027D01*
X223387Y331001D01*
X223434Y330967D01*
X223477Y330951D01*
X223553Y330914D01*
X223586Y330901D01*
X223669Y330871D01*
X223739Y330841D01*
X223785Y330835D01*
X223812Y330828D01*
X223881Y330818D01*
X223915Y330812D01*
X224004Y330802D01*
X224051Y330788D01*
X224077Y330782D01*
X224342Y330788D01*
X224376Y330802D01*
X224402Y330808D01*
X224488Y330815D01*
X224508Y330821D01*
X224555Y330828D01*
X224631Y330838D01*
X224658Y330845D01*
X224691Y330858D01*
X224734Y330875D01*
X224840Y330901D01*
X224953Y330954D01*
X224979Y330961D01*
X225023Y330977D01*
X225062Y331004D01*
X225106Y331020D01*
X225165Y331054D01*
X225179Y331067D01*
X225251Y331107D01*
X225298Y331140D01*
X225341Y331156D01*
X225351Y331167D01*
X225361Y331170D01*
X225367Y331183D01*
X225391Y331200D01*
X225454Y331243D01*
X225477Y331266D01*
X225490Y331273D01*
X225527Y331302D01*
X225563Y331339D01*
X225576Y331346D01*
X225610Y331359D01*
X225656Y331352D01*
X225703Y331326D01*
X225739Y331296D01*
X225749Y331286D01*
X225762Y331279D01*
X225809Y331246D01*
X225829Y331226D01*
X225842Y331220D01*
X225902Y331173D01*
X225915Y331160D01*
X225928Y331153D01*
X225991Y331110D01*
X226008Y331094D01*
X226021Y331087D01*
X226081Y331060D01*
X226127Y331067D01*
X226167Y331094D01*
X226180Y331100D01*
X226207Y331127D01*
X226220Y331133D01*
X226283Y331176D01*
X226323Y331203D01*
X226379Y331233D01*
X226406Y331259D01*
X226419Y331266D01*
X226492Y331306D01*
X226538Y331339D01*
X226572Y331359D01*
X226592Y331379D01*
X226605Y331385D01*
X226665Y331419D01*
X226731Y331465D01*
X226777Y331492D01*
X226824Y331525D01*
X226870Y331551D01*
X226884Y331565D01*
X226897Y331571D01*
X226910Y331585D01*
X226923Y331591D01*
X226970Y331618D01*
X226990Y331638D01*
X227003Y331644D01*
X227049Y331671D01*
X227086Y331701D01*
X227126Y331727D01*
X227149Y331744D01*
X227175Y331770D01*
X227235Y331803D01*
X227272Y331833D01*
X227311Y331860D01*
X227335Y331876D01*
X227361Y331903D01*
X227374Y331909D01*
X227411Y331939D01*
X227434Y331956D01*
X227447Y331969D01*
X227461Y331976D01*
X227501Y332016D01*
X227514Y332022D01*
X227540Y332049D01*
X227554Y332055D01*
X227580Y332082D01*
X227593Y332089D01*
X227607Y332102D01*
X227620Y332109D01*
X227656Y332138D01*
X227663Y332152D01*
X227680Y332168D01*
X227693Y332175D01*
X227723Y332205D01*
X227729Y332218D01*
X227739Y332228D01*
X227753Y332235D01*
X227783Y332264D01*
X227789Y332278D01*
X227806Y332294D01*
X227819Y332301D01*
X227849Y332331D01*
X227855Y332344D01*
X227872Y332361D01*
X227885Y332367D01*
X227908Y332390D01*
X227915Y332404D01*
X227935Y332424D01*
X227942Y332437D01*
X227975Y332470D01*
X227981Y332483D01*
X228054Y332556D01*
X228061Y332570D01*
X228101Y332610D01*
X228108Y332623D01*
X228137Y332659D01*
X228283Y332805D01*
X228293Y332808D01*
X228300Y332822D01*
X228336Y332858D01*
X228350Y332865D01*
X228396Y332898D01*
X228416Y332918D01*
X228429Y332925D01*
X228449Y332944D01*
X228463Y332951D01*
X228496Y332984D01*
X228509Y332991D01*
X228602Y333057D01*
X228635Y333071D01*
X228681Y333084D01*
X228708Y333077D01*
X228718Y333067D01*
X228711Y333001D01*
X228698Y332968D01*
X228685Y332915D01*
X228675Y332872D01*
X228661Y332838D01*
X228632Y332782D01*
X228618Y332729D01*
X228579Y332656D01*
X228525Y332556D01*
X228512Y332543D01*
X228466Y332457D01*
X228452Y332444D01*
X228446Y332430D01*
X228413Y332384D01*
X228406Y332371D01*
X228373Y332337D01*
X228366Y332324D01*
X228336Y332288D01*
X228307Y332258D01*
X228300Y332245D01*
X228280Y332225D01*
X228277Y332215D01*
X228263Y332208D01*
X228247Y332185D01*
X228234Y332172D01*
X228227Y332158D01*
X228144Y332075D01*
X228131Y332069D01*
X228114Y332046D01*
X228091Y332029D01*
X228078Y332016D01*
X228064Y332009D01*
X228025Y331969D01*
X228011Y331963D01*
X227952Y331903D01*
X227938Y331896D01*
X227905Y331863D01*
X227892Y331856D01*
X227832Y331810D01*
X227812Y331790D01*
X227753Y331757D01*
X227726Y331730D01*
X227713Y331724D01*
X227666Y331691D01*
X227653Y331677D01*
X227640Y331671D01*
X227626Y331657D01*
X227580Y331631D01*
X227560Y331611D01*
X227547Y331604D01*
X227501Y331578D01*
X227464Y331548D01*
X227414Y331518D01*
X227401Y331511D01*
X227364Y331482D01*
X227275Y331432D01*
X227255Y331412D01*
X227242Y331405D01*
X227195Y331379D01*
X227182Y331365D01*
X227169Y331359D01*
X227155Y331346D01*
X227096Y331312D01*
X227069Y331286D01*
X227036Y331273D01*
X226976Y331240D01*
X226957Y331220D01*
X226943Y331213D01*
X226880Y331170D01*
X226870Y331160D01*
X226857Y331153D01*
X226774Y331097D01*
X226764Y331087D01*
X226718Y331060D01*
X226698Y331040D01*
X226684Y331034D01*
X226671Y331020D01*
X226625Y330994D01*
X226598Y330967D01*
X226585Y330961D01*
X226502Y330898D01*
X226485Y330881D01*
X226472Y330875D01*
X226456Y330858D01*
X226449Y330845D01*
X226419Y330808D01*
X226416Y330798D01*
X226426Y330788D01*
X226472Y330795D01*
X226492Y330802D01*
X226519Y330808D01*
X226585Y330828D01*
X226655Y330845D01*
X226688Y330858D01*
X226724Y330875D01*
X226804Y330894D01*
X226840Y330904D01*
X226864Y330914D01*
X226910Y330941D01*
X226943Y330954D01*
X226986Y330964D01*
X227020Y330977D01*
X227059Y331004D01*
X227152Y331037D01*
X227175Y331054D01*
X227262Y331094D01*
X227295Y331107D01*
X227341Y331140D01*
X227404Y331163D01*
X227428Y331180D01*
X227467Y331206D01*
X227501Y331220D01*
X227514Y331226D01*
X227580Y331273D01*
X227607Y331279D01*
X227653Y331312D01*
X227666Y331326D01*
X227680Y331332D01*
X227739Y331365D01*
X227786Y331399D01*
X227799Y331405D01*
X227859Y331452D01*
X227905Y331478D01*
X227998Y331545D01*
X228011Y331551D01*
X228038Y331578D01*
X228051Y331585D01*
X228111Y331631D01*
X228131Y331651D01*
X228144Y331657D01*
X228181Y331687D01*
X228197Y331704D01*
X228210Y331711D01*
X228257Y331744D01*
X228270Y331750D01*
X228303Y331784D01*
X228316Y331790D01*
X228370Y331843D01*
X228383Y331850D01*
X228396Y331863D01*
X228409Y331870D01*
X228436Y331896D01*
X228449Y331903D01*
X228463Y331916D01*
X228476Y331923D01*
X228486Y331933D01*
X228492Y331946D01*
X228516Y331969D01*
X228529Y331976D01*
X228565Y332006D01*
X228589Y332029D01*
X228602Y332036D01*
X228618Y332052D01*
X228625Y332066D01*
X228648Y332089D01*
X228661Y332095D01*
X228675Y332109D01*
X228688Y332115D01*
X228701Y332129D01*
X228715Y332135D01*
X228920Y332341D01*
X228934Y332347D01*
X228953Y332367D01*
X228967Y332374D01*
X229013Y332420D01*
X229026Y332427D01*
X229129Y332530D01*
X229133Y332540D01*
X229146Y332546D01*
X229441Y332842D01*
X229448Y332855D01*
X229501Y332908D01*
X229507Y332921D01*
X229527Y332941D01*
X229534Y332955D01*
X229663Y333084D01*
X229696Y333097D01*
X229716Y333104D01*
X229763Y333077D01*
X229776Y333064D01*
X229789Y333057D01*
X229809Y333037D01*
X229822Y333031D01*
X229872Y332981D01*
X229886Y332941D01*
X229859Y332895D01*
X229806Y332795D01*
X229786Y332775D01*
X229740Y332689D01*
X229713Y332663D01*
X229686Y332616D01*
X229653Y332583D01*
X229627Y332537D01*
X229614Y332523D01*
X229607Y332510D01*
X229580Y332483D01*
X229574Y332470D01*
X229544Y332434D01*
X229521Y332410D01*
X229514Y332397D01*
X229501Y332384D01*
X229494Y332371D01*
X229484Y332361D01*
X229471Y332354D01*
X229461Y332344D01*
X229454Y332331D01*
X229425Y332294D01*
X229388Y332258D01*
X229381Y332245D01*
X229358Y332221D01*
X229345Y332215D01*
X229322Y332191D01*
X229315Y332178D01*
X229292Y332155D01*
X229278Y332148D01*
X229255Y332125D01*
X229249Y332112D01*
X229232Y332095D01*
X229219Y332089D01*
X229166Y332036D01*
X229152Y332029D01*
X229139Y332016D01*
X229126Y332009D01*
X229109Y331986D01*
X229099Y331976D01*
X229086Y331969D01*
X229033Y331916D01*
X229020Y331909D01*
X228983Y331880D01*
X228973Y331870D01*
X228960Y331863D01*
X228947Y331850D01*
X228934Y331843D01*
X228887Y331810D01*
X228861Y331784D01*
X228847Y331777D01*
X228811Y331747D01*
X228801Y331737D01*
X228788Y331730D01*
X228725Y331687D01*
X228708Y331671D01*
X228695Y331664D01*
X228648Y331638D01*
X228612Y331608D01*
X228602Y331598D01*
X228542Y331565D01*
X228496Y331531D01*
X228482Y331525D01*
X228436Y331492D01*
X228423Y331478D01*
X228409Y331472D01*
X228336Y331432D01*
X228323Y331419D01*
X228237Y331372D01*
X228217Y331352D01*
X228171Y331332D01*
X228137Y331319D01*
X228101Y331289D01*
X228091Y331279D01*
X228048Y331263D01*
X227995Y331229D01*
X227985Y331220D01*
X227952Y331206D01*
X227892Y331173D01*
X227852Y331147D01*
X227826Y331140D01*
X227739Y331080D01*
X227703Y331070D01*
X227650Y331037D01*
X227557Y330991D01*
X227547Y330981D01*
X227534Y330974D01*
X227421Y330914D01*
X227321Y330861D01*
X227282Y330835D01*
X227219Y330812D01*
X227179Y330785D01*
X227102Y330742D01*
X227093Y330732D01*
X227099Y330705D01*
X227129Y330695D01*
X227235Y330702D01*
X227255Y330709D01*
X227368Y330715D01*
X227388Y330722D01*
X227481Y330729D01*
X227501Y330735D01*
X227547Y330742D01*
X227610Y330752D01*
X227683Y330759D01*
X227772Y330768D01*
X227859Y330775D01*
X227879Y330782D01*
X227972Y330788D01*
X228018Y330808D01*
X228098Y330815D01*
X228144Y330835D01*
X228204Y330868D01*
X228303Y330921D01*
X228343Y330948D01*
X228429Y330994D01*
X228469Y331020D01*
X228516Y331047D01*
X228536Y331067D01*
X228608Y331107D01*
X228635Y331133D01*
X228695Y331167D01*
X228708Y331180D01*
X228721Y331186D01*
X228741Y331206D01*
X228788Y331233D01*
X228814Y331259D01*
X228827Y331266D01*
X228841Y331279D01*
X228854Y331286D01*
X228894Y331326D01*
X228907Y331332D01*
X228943Y331362D01*
X228967Y331385D01*
X228980Y331392D01*
X229040Y331438D01*
X229080Y331478D01*
X229093Y331485D01*
X229133Y331525D01*
X229146Y331531D01*
X229159Y331545D01*
X229169Y331548D01*
X229176Y331561D01*
X229219Y331604D01*
X229232Y331611D01*
X229242Y331621D01*
X229249Y331634D01*
X229278Y331664D01*
X229292Y331671D01*
X229308Y331687D01*
X229315Y331701D01*
X229345Y331730D01*
X229358Y331737D01*
X229368Y331747D01*
X229375Y331760D01*
X229391Y331777D01*
X229405Y331784D01*
X229425Y331803D01*
X229434Y331807D01*
X229441Y331820D01*
X229494Y331873D01*
X229501Y331886D01*
X229537Y331923D01*
X229551Y331929D01*
X229567Y331953D01*
X229597Y331982D01*
X229610Y331989D01*
X229620Y331999D01*
X229627Y332012D01*
X229647Y332032D01*
X229653Y332046D01*
X229686Y332079D01*
X229693Y332092D01*
X229760Y332158D01*
X229766Y332172D01*
X229819Y332225D01*
X229826Y332238D01*
X229856Y332274D01*
X229899Y332318D01*
X229906Y332331D01*
X229945Y332371D01*
X229952Y332384D01*
X230005Y332437D01*
X230012Y332450D01*
X230042Y332487D01*
X230078Y332523D01*
X230085Y332537D01*
X230115Y332573D01*
X230131Y332596D01*
X230177Y332643D01*
X230184Y332656D01*
X230204Y332676D01*
X230211Y332689D01*
X230224Y332702D01*
X230231Y332716D01*
X230264Y332749D01*
X230270Y332762D01*
X230300Y332799D01*
X230337Y332835D01*
X230343Y332848D01*
X230377Y332881D01*
X230383Y332895D01*
X230396Y332908D01*
X230403Y332921D01*
X230443Y332961D01*
X230450Y332974D01*
X230469Y332994D01*
X230476Y333008D01*
X230509Y333041D01*
X230516Y333054D01*
X230529Y333067D01*
X230536Y333081D01*
X230546Y333090D01*
X230566Y333097D01*
X230602Y333067D01*
X230635Y333034D01*
X230642Y333021D01*
X230655Y333008D01*
X230675Y332974D01*
X230705Y332938D01*
X230715Y332928D01*
X230748Y332868D01*
X230781Y332835D01*
X230788Y332822D01*
X230834Y332762D01*
X230861Y332722D01*
X230868Y332709D01*
X230901Y332676D01*
X230907Y332663D01*
X230954Y332603D01*
X230980Y332576D01*
X231000Y332543D01*
X231033Y332510D01*
X231040Y332497D01*
X231053Y332483D01*
X231060Y332470D01*
X231106Y332424D01*
X231113Y332410D01*
X231236Y332288D01*
X231249Y332281D01*
X231289Y332241D01*
X231302Y332235D01*
X231315Y332221D01*
X231329Y332215D01*
X231365Y332185D01*
X231375Y332175D01*
X231388Y332168D01*
X231425Y332138D01*
X231448Y332122D01*
X231547Y332069D01*
X231621Y332036D01*
X231687Y332009D01*
X231733Y331989D01*
X231786Y331976D01*
X231856Y331966D01*
X231889Y331959D01*
X232042Y331953D01*
X232065Y331949D01*
X232085Y331956D01*
X232138Y331963D01*
X232158Y331969D01*
X232204Y331976D01*
X232254Y331986D01*
X232307Y332006D01*
X232317Y332016D01*
X232403Y332042D01*
X232436Y332055D01*
X232483Y332089D01*
X232526Y332105D01*
X232549Y332115D01*
X232586Y332145D01*
X232596Y332155D01*
X232609Y332162D01*
X232655Y332188D01*
X232689Y332221D01*
X232702Y332228D01*
X232738Y332258D01*
X232782Y332301D01*
X232795Y332308D01*
X232805Y332318D01*
X232811Y332331D01*
X232848Y332367D01*
X232861Y332374D01*
X232878Y332397D01*
X232924Y332457D01*
X232951Y332497D01*
X232971Y332530D01*
X232997Y332556D01*
X233010Y332590D01*
X233017Y332603D01*
X233060Y332666D01*
X233077Y332722D01*
X233093Y332765D01*
X233123Y332815D01*
X233136Y332862D01*
X233146Y332925D01*
X233160Y332991D01*
X233166Y333044D01*
X233170Y333160D01*
X233163Y333180D01*
X233156Y333253D01*
X233150Y333273D01*
X233143Y333445D01*
X233136Y333465D01*
X233130Y333552D01*
X233123Y333572D01*
X233113Y333615D01*
X233103Y333651D01*
X233090Y333698D01*
X233083Y333724D01*
X233077Y333770D01*
X233067Y333834D01*
X233060Y333867D01*
X233040Y333920D01*
X233024Y333976D01*
X233017Y334003D01*
X233010Y334049D01*
X233000Y334105D01*
X232994Y334132D01*
X232977Y334175D01*
X232964Y334208D01*
X232951Y334288D01*
X232927Y334391D01*
X232904Y334467D01*
X232891Y334520D01*
X232884Y334587D01*
X232878Y334613D01*
X232871Y334693D01*
X232858Y334726D01*
X232851Y334752D01*
X232844Y334825D01*
X232838Y334845D01*
X232831Y334872D01*
X232838Y335310D01*
X232844Y335330D01*
X232864Y335376D01*
X232878Y335409D01*
X232904Y335456D01*
X232924Y335475D01*
X232931Y335489D01*
X232974Y335552D01*
X232997Y335575D01*
X233004Y335588D01*
X233034Y335625D01*
X233050Y335648D01*
X233070Y335668D01*
X233077Y335681D01*
X233107Y335718D01*
X233130Y335741D01*
X233136Y335754D01*
X233166Y335791D01*
X233196Y335821D01*
X233203Y335834D01*
X233223Y335854D01*
X233229Y335867D01*
X233316Y335953D01*
X233322Y335966D01*
X233352Y336003D01*
X233362Y336013D01*
X233369Y336026D01*
X233412Y336069D01*
X233422Y336073D01*
X233428Y336086D01*
X233448Y336106D01*
X233455Y336119D01*
X233491Y336169D01*
X233505Y336175D01*
X233528Y336199D01*
X233535Y336212D01*
X233574Y336252D01*
X233581Y336265D01*
X233611Y336301D01*
X233641Y336331D01*
X233647Y336345D01*
X233661Y336358D01*
X233667Y336371D01*
X233677Y336381D01*
X233687Y336385D01*
X233694Y336398D01*
X233707Y336411D01*
X233734Y336457D01*
X233760Y336484D01*
X233767Y336497D01*
X233813Y336557D01*
X233840Y336597D01*
X233866Y336643D01*
X233899Y336690D01*
X233916Y336733D01*
X233926Y336743D01*
X233933Y336756D01*
X233952Y336789D01*
X233972Y336836D01*
X233979Y336849D01*
X234012Y336895D01*
X234032Y336962D01*
X234049Y337005D01*
X234079Y337061D01*
X234092Y337114D01*
X234102Y337177D01*
X234115Y337230D01*
X234132Y337267D01*
X234152Y337333D01*
X234158Y337400D01*
X234152Y337764D01*
X234145Y337784D01*
X234135Y337834D01*
X234105Y337904D01*
X234098Y337930D01*
X234088Y338026D01*
X234082Y338053D01*
X234039Y338136D01*
X234032Y338182D01*
X234015Y338252D01*
X233989Y338292D01*
X233972Y338335D01*
X233966Y338381D01*
X233949Y338424D01*
X233923Y338464D01*
X233906Y338508D01*
X233896Y338570D01*
X233893Y338574D01*
Y338580D01*
X233866Y338627D01*
X233846Y338673D01*
X233840Y338700D01*
X233830Y338756D01*
X233787Y338839D01*
X233780Y338866D01*
X233770Y338929D01*
X233763Y338962D01*
X233744Y339015D01*
X233720Y339071D01*
X233714Y339118D01*
X233704Y339267D01*
X233697Y339353D01*
X233690Y339413D01*
X233687Y339436D01*
X233694Y339456D01*
X233700Y339549D01*
X233707Y339569D01*
X233717Y339712D01*
X233730Y339745D01*
X233760Y339794D01*
X233773Y339848D01*
X233783Y339884D01*
X233797Y339917D01*
X233823Y339957D01*
X233833Y339994D01*
X233840Y340020D01*
X233850Y340057D01*
X233876Y340096D01*
X233899Y340153D01*
X233916Y340196D01*
X233943Y340236D01*
X233996Y340342D01*
X234012Y340358D01*
X234026Y340392D01*
X234045Y340445D01*
X234079Y340491D01*
X234092Y340544D01*
X234105Y340577D01*
X234112Y340591D01*
X234145Y340637D01*
X234155Y340680D01*
X234161Y340713D01*
X234168Y340740D01*
X234181Y340773D01*
X234191Y340783D01*
X234205Y340816D01*
X234211Y340843D01*
X234218Y340889D01*
X234225Y341055D01*
X234214Y341165D01*
X234208Y341198D01*
X234178Y341254D01*
X234158Y341301D01*
X234138Y341334D01*
X234112Y341360D01*
X234072Y341433D01*
X234052Y341453D01*
X234045Y341466D01*
X234032Y341480D01*
X234012Y341513D01*
X233966Y341559D01*
X233959Y341573D01*
X233929Y341609D01*
X233906Y341632D01*
X233899Y341646D01*
X233889Y341655D01*
X233876Y341662D01*
X233846Y341692D01*
X233840Y341705D01*
X233830Y341715D01*
X233817Y341722D01*
X233780Y341758D01*
X233773Y341772D01*
X233763Y341782D01*
X233750Y341788D01*
X233720Y341818D01*
X233714Y341831D01*
X233704Y341841D01*
X233690Y341848D01*
X233654Y341884D01*
X233647Y341898D01*
X233631Y341914D01*
X233617Y341921D01*
X233571Y341967D01*
X233558Y341974D01*
X233528Y341997D01*
X233521Y342010D01*
X233498Y342034D01*
X233485Y342040D01*
X233425Y342100D01*
X233412Y342107D01*
X233365Y342153D01*
X233352Y342160D01*
X233306Y342193D01*
X233292Y342206D01*
X233279Y342213D01*
X233266Y342226D01*
X233253Y342233D01*
X233216Y342263D01*
X233186Y342292D01*
X233173Y342299D01*
X233126Y342345D01*
X233113Y342352D01*
X233077Y342382D01*
X233053Y342405D01*
X233040Y342412D01*
X233004Y342442D01*
X232974Y342472D01*
X232961Y342478D01*
X232924Y342508D01*
X232901Y342531D01*
X232855Y342558D01*
X232795Y342618D01*
X232782Y342624D01*
X232735Y342671D01*
X232722Y342677D01*
X232692Y342707D01*
X232685Y342720D01*
X232675Y342730D01*
X232662Y342737D01*
X232626Y342773D01*
X232619Y342787D01*
X232596Y342803D01*
X232559Y342840D01*
X232553Y342853D01*
X232529Y342870D01*
X232500Y342899D01*
X232493Y342913D01*
X232453Y342946D01*
X232433Y342966D01*
X232427Y342979D01*
X232387Y343012D01*
X232380Y343025D01*
X232350Y343062D01*
X232327Y343085D01*
X232287Y343158D01*
X232267Y343178D01*
X232261Y343191D01*
X232221Y343264D01*
X232208Y343278D01*
X232188Y343324D01*
X232171Y343367D01*
X232145Y343407D01*
X232128Y343443D01*
X232121Y343470D01*
X232105Y343513D01*
X232078Y343553D01*
X232062Y343589D01*
X232052Y343633D01*
X232038Y343666D01*
X232015Y343689D01*
X232009Y343702D01*
X231995Y343735D01*
X231985Y343778D01*
X231962Y343815D01*
X231942Y343848D01*
X231929Y343895D01*
X231902Y343941D01*
X231883Y343961D01*
X231856Y344027D01*
X231849Y344041D01*
X231820Y344077D01*
X231786Y344130D01*
X231776Y344140D01*
X231773Y344150D01*
X231763Y344153D01*
X231756Y344167D01*
X231710Y344226D01*
X231680Y344256D01*
X231667Y344263D01*
X231624Y344293D01*
X231621Y344303D01*
X231607Y344309D01*
X231594Y344323D01*
X231581Y344329D01*
X231521Y344376D01*
X231461Y344409D01*
X231425Y344439D01*
X231375Y344468D01*
X231362Y344475D01*
X231335Y344502D01*
X231289Y344522D01*
X231242Y344548D01*
X231222Y344568D01*
X231189Y344581D01*
X231130Y344615D01*
X231090Y344641D01*
X231063Y344648D01*
X231017Y344681D01*
X230944Y344714D01*
X230911Y344734D01*
X230891Y344754D01*
X230857Y344767D01*
X230814Y344784D01*
X230775Y344817D01*
X230765Y344827D01*
X230682Y344857D01*
X230665Y344873D01*
X230652Y344880D01*
X230639Y344893D01*
X230576Y344916D01*
X230539Y344940D01*
X230479Y344966D01*
X230436Y344983D01*
X230406Y345006D01*
X230393Y345012D01*
X230360Y345026D01*
X230317Y345036D01*
X230280Y345059D01*
X230267Y345072D01*
X230254Y345079D01*
X230221Y345092D01*
X230181Y345099D01*
X230134Y345132D01*
X230088Y345152D01*
X230045Y345162D01*
X229992Y345195D01*
X229955Y345212D01*
X229929Y345218D01*
X229886Y345235D01*
X229846Y345261D01*
X229809Y345278D01*
X229733Y345294D01*
X229696Y345318D01*
X229683Y345331D01*
X229637Y345344D01*
X229610Y345351D01*
X229574Y345361D01*
X229534Y345387D01*
X229498Y345404D01*
X229471Y345411D01*
X229428Y345421D01*
X229395Y345434D01*
X229378Y345450D01*
X229345Y345464D01*
X229318Y345470D01*
X229269Y345480D01*
X229235Y345494D01*
X229186Y345523D01*
X229142Y345533D01*
X229109Y345540D01*
X229083Y345547D01*
X229050Y345560D01*
X229040Y345570D01*
X228980Y345596D01*
X228904Y345606D01*
X228861Y345623D01*
X228821Y345649D01*
X228768Y345663D01*
X228705Y345673D01*
X228672Y345686D01*
X228628Y345709D01*
X228582Y345722D01*
X228516Y345729D01*
X228489Y345736D01*
X228452Y345746D01*
X228396Y345776D01*
X228350Y345789D01*
X228237Y345802D01*
X228151Y345842D01*
X228071Y345855D01*
X227985Y345862D01*
X227899Y345901D01*
X227846Y345915D01*
X227680Y345928D01*
X227620Y345955D01*
X227573Y345968D01*
X227494Y345981D01*
X227288Y345988D01*
X227195Y346001D01*
X227169Y346008D01*
X227122Y346014D01*
X227069Y346028D01*
X226983Y346034D01*
X226837Y346041D01*
X226671Y346047D01*
D02*
G37*
G36*
X231806Y345974D02*
X231474Y345968D01*
X231455Y345961D01*
X231412Y345951D01*
X231358Y345938D01*
X231292Y345925D01*
X231212Y345918D01*
X231159Y345912D01*
X231126Y345905D01*
X231083Y345888D01*
X231023Y345862D01*
X230997Y345855D01*
X230904Y345848D01*
X230871Y345835D01*
X230811Y345809D01*
X230765Y345795D01*
X230672Y345782D01*
X230559Y345729D01*
X230469Y345719D01*
X230436Y345706D01*
X230410Y345679D01*
X230403Y345633D01*
X230410Y345513D01*
X230440Y345477D01*
X230453Y345470D01*
X230489Y345441D01*
X230526Y345424D01*
X230589Y345401D01*
X230599Y345391D01*
X230612Y345384D01*
X230625Y345371D01*
X230659Y345357D01*
X230685Y345351D01*
X230732Y345324D01*
X230745Y345311D01*
X230791Y345291D01*
X230828Y345281D01*
X230868Y345255D01*
X230884Y345238D01*
X230930Y345225D01*
X230974Y345208D01*
X230990Y345192D01*
X231003Y345185D01*
X231020Y345175D01*
X231023Y345172D01*
X231057Y345159D01*
X231103Y345132D01*
X231116Y345119D01*
X231130Y345112D01*
X231176Y345092D01*
X231222Y345066D01*
X231236Y345052D01*
X231249Y345046D01*
X231315Y345019D01*
X231329Y345012D01*
X231375Y344979D01*
X231408Y344966D01*
X231441Y344946D01*
X231488Y344913D01*
X231531Y344896D01*
X231571Y344870D01*
X231581Y344860D01*
X231627Y344840D01*
X231674Y344813D01*
X231693Y344794D01*
X231740Y344774D01*
X231786Y344747D01*
X231826Y344721D01*
X231873Y344714D01*
X231906Y344721D01*
X231922Y344737D01*
X231949Y344784D01*
X231982Y344817D01*
X232015Y344877D01*
X232042Y344903D01*
X232068Y344950D01*
X232101Y344983D01*
X232108Y344996D01*
X232154Y345056D01*
X232181Y345095D01*
X232208Y345142D01*
X232241Y345175D01*
X232261Y345208D01*
X232294Y345241D01*
X232334Y345314D01*
X232360Y345341D01*
X232367Y345354D01*
X232400Y345401D01*
X232420Y345421D01*
X232427Y345434D01*
X232473Y345494D01*
X232493Y345513D01*
X232526Y345573D01*
X232539Y345606D01*
X232533Y345639D01*
X232463Y345709D01*
X232450Y345716D01*
X232410Y345742D01*
X232397Y345749D01*
X232364Y345782D01*
X232304Y345815D01*
X232291Y345829D01*
X232277Y345835D01*
X232244Y345848D01*
X232218Y345855D01*
X232145Y345895D01*
X232111Y345908D01*
X232085Y345915D01*
X232009Y345925D01*
X231982Y345931D01*
X231926Y345948D01*
X231899Y345955D01*
X231853Y345968D01*
X231806Y345974D01*
D02*
G37*
%LPD*%
G36*
X226568Y333107D02*
X226575Y333081D01*
X226565Y333044D01*
X226555Y333034D01*
X226549Y333021D01*
X226529Y332974D01*
X226519Y332938D01*
X226505Y332905D01*
X226489Y332881D01*
X226462Y332842D01*
X226436Y332795D01*
X226406Y332759D01*
X226369Y332702D01*
X226280Y332613D01*
X226267Y332606D01*
X226240Y332580D01*
X226227Y332573D01*
X226207Y332553D01*
X226193Y332546D01*
X226131Y332503D01*
X226120Y332493D01*
X226087Y332480D01*
X225961Y332420D01*
X225885Y332404D01*
X225789Y332374D01*
X225723Y332367D01*
X225510Y332374D01*
X225494Y332390D01*
X225487Y332410D01*
X225494Y332430D01*
X225500Y332457D01*
X225530Y332493D01*
X225547Y332510D01*
X225553Y332523D01*
X225600Y332570D01*
X225606Y332583D01*
X225620Y332596D01*
X225626Y332610D01*
X225709Y332692D01*
X225723Y332699D01*
X225762Y332739D01*
X225776Y332746D01*
X225829Y332799D01*
X225842Y332805D01*
X225878Y332835D01*
X225888Y332845D01*
X225902Y332852D01*
X225915Y332865D01*
X225961Y332891D01*
X225975Y332905D01*
X225988Y332911D01*
X226061Y332951D01*
X226107Y332984D01*
X226140Y332998D01*
X226184Y333014D01*
X226223Y333041D01*
X226267Y333057D01*
X226310Y333067D01*
X226343Y333081D01*
X226402Y333107D01*
X226406Y333110D01*
X226462Y333120D01*
X226538Y333130D01*
X226568Y333107D01*
D02*
G37*
G36*
X227626Y333090D02*
X227643Y333074D01*
X227650Y333034D01*
X227643Y333014D01*
X227617Y332955D01*
X227597Y332888D01*
X227557Y332815D01*
X227537Y332769D01*
X227510Y332722D01*
X227497Y332709D01*
X227444Y332610D01*
X227424Y332590D01*
X227391Y332530D01*
X227358Y332497D01*
X227351Y332483D01*
X227305Y332424D01*
X227291Y332410D01*
X227285Y332397D01*
X227255Y332361D01*
X227242Y332347D01*
X227228Y332341D01*
X227219Y332331D01*
X227212Y332318D01*
X227182Y332288D01*
X227169Y332281D01*
X227152Y332264D01*
X227146Y332251D01*
X227116Y332221D01*
X227102Y332215D01*
X227093Y332205D01*
X227086Y332191D01*
X227063Y332168D01*
X227049Y332162D01*
X227013Y332132D01*
X227003Y332122D01*
X226990Y332115D01*
X226976Y332102D01*
X226963Y332095D01*
X226950Y332082D01*
X226937Y332075D01*
X226917Y332055D01*
X226903Y332049D01*
X226864Y332022D01*
X226850Y332016D01*
X226791Y331976D01*
X226731Y331943D01*
X226711Y331923D01*
X226665Y331903D01*
X226605Y331870D01*
X226545Y331843D01*
X226509Y331833D01*
X226426Y331790D01*
X226373Y331777D01*
X226329Y331767D01*
X226263Y331740D01*
X226220Y331724D01*
X226193Y331717D01*
X226127Y331724D01*
X226117Y331754D01*
X226137Y331787D01*
X226177Y331827D01*
X226184Y331840D01*
X226230Y331900D01*
X226256Y331920D01*
X226263Y331933D01*
X226300Y331969D01*
X226313Y331976D01*
X226323Y331986D01*
Y331993D01*
X226326Y331996D01*
X226373Y332042D01*
X226386Y332049D01*
X226402Y332072D01*
X226419Y332089D01*
X226432Y332095D01*
X226492Y332142D01*
X226684Y332334D01*
X226698Y332341D01*
X226711Y332354D01*
X226724Y332361D01*
X226761Y332390D01*
X226784Y332420D01*
X226797Y332427D01*
X226834Y332464D01*
X226837Y332473D01*
X226850Y332480D01*
X226880Y332510D01*
X226887Y332523D01*
X226900Y332537D01*
X226907Y332550D01*
X226920Y332563D01*
X226927Y332576D01*
X226980Y332629D01*
X226986Y332643D01*
X227020Y332676D01*
X227026Y332689D01*
X227056Y332726D01*
X227073Y332742D01*
X227079Y332755D01*
X227126Y332815D01*
X227139Y332828D01*
X227179Y332901D01*
X227199Y332921D01*
X227225Y332981D01*
X227245Y333014D01*
X227275Y333051D01*
X227288Y333064D01*
X227321Y333077D01*
X227474Y333084D01*
X227494Y333090D01*
X227520Y333097D01*
X227626Y333090D01*
D02*
G37*
G36*
X226957Y336726D02*
X226996Y336686D01*
X227010Y336680D01*
X227046Y336650D01*
X227063Y336633D01*
X227076Y336627D01*
X227112Y336597D01*
X227129Y336580D01*
X227142Y336574D01*
X227155Y336560D01*
X227169Y336554D01*
X227205Y336524D01*
X227248Y336481D01*
X227262Y336474D01*
X227272Y336464D01*
X227278Y336451D01*
X227308Y336421D01*
X227321Y336414D01*
X227331Y336404D01*
X227338Y336391D01*
X227381Y336348D01*
X227394Y336341D01*
X227411Y336318D01*
X227441Y336288D01*
X227454Y336282D01*
X227464Y336272D01*
X227471Y336258D01*
X227507Y336222D01*
X227520Y336215D01*
X227530Y336205D01*
X227537Y336192D01*
X227560Y336169D01*
X227573Y336162D01*
X227590Y336146D01*
X227597Y336132D01*
X227610Y336119D01*
X227617Y336106D01*
X227663Y336059D01*
X227670Y336046D01*
X227703Y336013D01*
X227710Y336000D01*
X227723Y335986D01*
X227753Y335930D01*
X227766Y335923D01*
X227783Y335907D01*
X227789Y335894D01*
X227816Y335847D01*
X227846Y335811D01*
X227875Y335754D01*
X227895Y335734D01*
X227902Y335721D01*
X227915Y335708D01*
X227922Y335681D01*
X227928Y335661D01*
X227922Y335628D01*
X227912Y335618D01*
X227872Y335625D01*
X227859Y335638D01*
X227846Y335645D01*
X227832Y335658D01*
X227756Y335675D01*
X227733Y335691D01*
X227693Y335718D01*
X227660Y335731D01*
X227613Y335757D01*
X227593Y335777D01*
X227560Y335791D01*
X227517Y335807D01*
X227477Y335834D01*
X227467Y335844D01*
X227434Y335857D01*
X227388Y335884D01*
X227374Y335897D01*
X227288Y335943D01*
X227262Y335970D01*
X227219Y335993D01*
X227215Y335996D01*
X227202Y336003D01*
X227166Y336039D01*
X227149Y336083D01*
X227136Y336116D01*
X227119Y336132D01*
X227112Y336146D01*
X227093Y336192D01*
X227069Y336255D01*
X227039Y336305D01*
X227033Y336331D01*
X227010Y336394D01*
X226973Y336471D01*
X226960Y336524D01*
X226950Y336567D01*
X226913Y336643D01*
X226900Y336690D01*
X226907Y336723D01*
X226917Y336733D01*
X226957Y336726D01*
D02*
G37*
G36*
X229298Y344787D02*
X229318Y344780D01*
X229511Y344774D01*
X229531Y344767D01*
X229587Y344770D01*
X229614Y344764D01*
X229633Y344744D01*
X229640Y344677D01*
X229647Y341732D01*
X229653Y341712D01*
X229660Y341002D01*
X229683Y340972D01*
X229730Y340959D01*
X230128Y340966D01*
X230148Y340972D01*
X230347Y340966D01*
X230367Y340959D01*
X230486Y340952D01*
X230506Y340946D01*
X230559Y340926D01*
X230659Y340873D01*
X230675Y340856D01*
X230682Y340843D01*
X230705Y340826D01*
X230728Y340803D01*
X230735Y340790D01*
X230748Y340776D01*
X230755Y340763D01*
X230768Y340750D01*
X230781Y340717D01*
X230788Y340690D01*
X230781Y340637D01*
X230758Y340614D01*
X230705Y340601D01*
X230685Y340607D01*
X230605Y340601D01*
X230572Y340587D01*
X230526Y340581D01*
X230446Y340587D01*
X230426Y340581D01*
X230360Y340574D01*
X230161Y340567D01*
X230141Y340561D01*
X229862Y340554D01*
X229842Y340548D01*
X229776Y340541D01*
X229703Y340534D01*
X229667Y340504D01*
X229653Y340471D01*
X229647Y339635D01*
X229640Y339615D01*
X229647Y337386D01*
X229653Y337366D01*
X229647Y336059D01*
X229617Y336023D01*
X229584Y336010D01*
X229527Y336000D01*
X229501Y335993D01*
X229368Y335986D01*
X229152Y335983D01*
X229106Y336016D01*
X229089Y336053D01*
X229083Y336079D01*
X229089Y336199D01*
X229096Y336219D01*
X229089Y336623D01*
X229083Y336643D01*
X229076Y336690D01*
X229069Y336988D01*
X229046Y337011D01*
X229020Y337018D01*
X228841Y337025D01*
X228821Y337031D01*
X228774Y337038D01*
X228688Y337045D01*
X228655Y337058D01*
X228549Y337065D01*
X228522Y337071D01*
X228463Y337078D01*
X228429Y337091D01*
X228383Y337104D01*
X228277Y337131D01*
X228234Y337141D01*
X228181Y337161D01*
X228137Y337177D01*
X228091Y337191D01*
X228064Y337197D01*
X228021Y337214D01*
X227972Y337244D01*
X227928Y337254D01*
X227892Y337263D01*
X227832Y337297D01*
X227736Y337347D01*
X227723Y337380D01*
X227716Y337426D01*
X227723Y337904D01*
X227753Y337940D01*
X227786Y337953D01*
X227812Y337960D01*
X227862Y337970D01*
X227975Y338010D01*
X228011Y338020D01*
X228078Y338026D01*
X228134Y338036D01*
X228167Y338043D01*
X228194Y338050D01*
X228227Y338056D01*
X228307Y338070D01*
X228396Y338080D01*
X228542Y338086D01*
X228562Y338093D01*
X229066Y338100D01*
X229089Y338123D01*
X229096Y338169D01*
X229089Y338216D01*
X229080Y338279D01*
X229076Y338607D01*
X229083Y338627D01*
X229096Y338740D01*
X229089Y339728D01*
X229083Y339748D01*
X229076Y339775D01*
X229069Y339947D01*
X229063Y339967D01*
X229056Y340100D01*
X229050Y340120D01*
X229040Y340176D01*
X229016Y340226D01*
X228980Y340262D01*
X228947Y340282D01*
X228861Y340322D01*
X228827Y340342D01*
X228807Y340362D01*
X228761Y340382D01*
X228648Y340435D01*
X228585Y340458D01*
X228562Y340475D01*
X228476Y340514D01*
X228429Y340541D01*
X228396Y340561D01*
X228343Y340574D01*
X228310Y340587D01*
X228263Y340620D01*
X228220Y340637D01*
X228187Y340650D01*
X228147Y340677D01*
X228104Y340693D01*
X228068Y340704D01*
X228035Y340717D01*
X228018Y340733D01*
X228005Y340740D01*
X227958Y340760D01*
X227832Y340820D01*
X227789Y340836D01*
X227749Y340863D01*
X227739Y340873D01*
X227693Y340893D01*
X227660Y340906D01*
X227613Y340939D01*
X227530Y340969D01*
X227520Y340979D01*
X227507Y340985D01*
X227494Y340999D01*
X227481Y341005D01*
X227408Y341045D01*
X227368Y341072D01*
X227335Y341085D01*
X227302Y341105D01*
X227282Y341125D01*
X227268Y341131D01*
X227222Y341158D01*
X227155Y341204D01*
X227082Y341244D01*
X227069Y341257D01*
X226983Y341304D01*
X226963Y341324D01*
X226890Y341364D01*
X226850Y341390D01*
X226791Y341423D01*
X226771Y341443D01*
X226757Y341450D01*
X226684Y341490D01*
X226671Y341503D01*
X226658Y341510D01*
X226625Y341523D01*
X226582Y341539D01*
X226542Y341566D01*
X226499Y341582D01*
X226456Y341593D01*
X226402Y341606D01*
X226369Y341619D01*
X226326Y341636D01*
X226260Y341629D01*
X226160Y341582D01*
X226147Y341576D01*
X226081Y341529D01*
X226067D01*
X226064Y341526D01*
X226011Y341493D01*
X225994Y341476D01*
X225908Y341430D01*
X225888Y341410D01*
X225855Y341397D01*
X225822Y341377D01*
X225785Y341347D01*
X225736Y341324D01*
X225699Y341294D01*
X225669Y341277D01*
X225596Y341237D01*
X225557Y341211D01*
X225497Y341178D01*
X225457Y341151D01*
X225394Y341128D01*
X225338Y341098D01*
X225311Y341092D01*
X225265Y341085D01*
X225188Y341102D01*
X225106Y341138D01*
X225062Y341155D01*
X225039Y341165D01*
X225026Y341178D01*
X225013Y341184D01*
X224999Y341198D01*
X224986Y341204D01*
X224940Y341237D01*
X224926Y341251D01*
X224913Y341257D01*
X224853Y341304D01*
X224814Y341330D01*
X224754Y341364D01*
X224737Y341407D01*
X224747Y341443D01*
X224777Y341473D01*
X224784Y341486D01*
X224797Y341500D01*
X224804Y341513D01*
X224959Y341669D01*
X224973Y341675D01*
X225006Y341709D01*
X225019Y341715D01*
X225079Y341775D01*
X225092Y341782D01*
X225106Y341795D01*
X225119Y341802D01*
X225152Y341835D01*
X225165Y341841D01*
X225248Y341904D01*
X225288Y341931D01*
X225305Y341947D01*
X225318Y341954D01*
X225331Y341967D01*
X225391Y342001D01*
X225411Y342020D01*
X225424Y342027D01*
X225470Y342054D01*
X225487Y342063D01*
X225490Y342073D01*
X225503Y342080D01*
X225517Y342093D01*
X225576Y342126D01*
X225623Y342160D01*
X225649Y342166D01*
X225696Y342199D01*
X225736Y342226D01*
X225762Y342233D01*
X225825Y342276D01*
X225862Y342292D01*
X225922Y342326D01*
X225935Y342339D01*
X225948Y342345D01*
X226048Y342399D01*
X226107Y342425D01*
X226154Y342452D01*
X226167Y342465D01*
X226213Y342485D01*
X226286Y342525D01*
X226346Y342551D01*
X226393Y342571D01*
X226419Y342578D01*
X226452Y342558D01*
X226489Y342528D01*
X226512Y342511D01*
X226532Y342491D01*
X226545Y342485D01*
X226582Y342455D01*
X226618Y342419D01*
X226631Y342412D01*
X226684Y342359D01*
X226698Y342352D01*
X226711Y342339D01*
X226724Y342332D01*
X226764Y342292D01*
X226777Y342286D01*
X226824Y342239D01*
X226837Y342233D01*
X226884Y342199D01*
X226930Y342153D01*
X226943Y342146D01*
X226983Y342107D01*
X226996Y342100D01*
X227063Y342034D01*
X227076Y342027D01*
X227112Y341997D01*
X227136Y341974D01*
X227149Y341967D01*
X227182Y341934D01*
X227195Y341928D01*
X227255Y341868D01*
X227268Y341861D01*
X227315Y341828D01*
X227328Y341821D01*
X227338Y341811D01*
X227345Y341798D01*
X227361Y341782D01*
X227374Y341775D01*
X227388Y341762D01*
X227401Y341755D01*
X227441Y341715D01*
X227454Y341709D01*
X227490Y341679D01*
X227507Y341662D01*
X227520Y341655D01*
X227557Y341626D01*
X227580Y341602D01*
X227593Y341596D01*
X227607Y341582D01*
X227620Y341576D01*
X227660Y341536D01*
X227673Y341529D01*
X227733Y341483D01*
X227746Y341470D01*
X227759Y341463D01*
X227796Y341433D01*
X227806Y341423D01*
X227819Y341417D01*
X227832Y341403D01*
X227846Y341397D01*
X227905Y341350D01*
X227968Y341307D01*
X227978Y341297D01*
X227991Y341291D01*
X228031Y341264D01*
X228045Y341257D01*
X228071Y341231D01*
X228084Y341224D01*
X228131Y341191D01*
X228144Y341184D01*
X228171Y341158D01*
X228244Y341118D01*
X228257Y341105D01*
X228330Y341065D01*
X228376Y341032D01*
X228449Y340992D01*
X228463Y340979D01*
X228476Y340972D01*
X228562Y340926D01*
X228602Y340899D01*
X228645Y340883D01*
X228681Y340859D01*
X228695Y340846D01*
X228761Y340820D01*
X228874Y340767D01*
X228937Y340743D01*
X228973Y340720D01*
X229020Y340700D01*
X229046Y340707D01*
X229056Y340717D01*
X229063Y340763D01*
X229073Y340886D01*
X229076Y342893D01*
X229046Y342929D01*
X229003Y342939D01*
X228884Y342946D01*
X228857Y342952D01*
X228768Y342963D01*
X228721Y342976D01*
X228655Y342982D01*
X228608Y342989D01*
X228499Y343006D01*
X228472Y343012D01*
X228439Y343019D01*
X228403Y343029D01*
X228376Y343036D01*
X228330Y343049D01*
X228254Y343059D01*
X228227Y343065D01*
X228174Y343085D01*
X228137Y343095D01*
X228091Y343108D01*
X228048Y343118D01*
X227981Y343132D01*
X227928Y343152D01*
X227885Y343168D01*
X227839Y343181D01*
X227796Y343198D01*
X227756Y343238D01*
X227743Y343271D01*
X227736Y343317D01*
X227726Y343533D01*
X227716Y343623D01*
X227710Y343722D01*
X227703Y343742D01*
X227696Y343769D01*
X227703Y343802D01*
X227733Y343838D01*
X227753Y343858D01*
X227786Y343871D01*
X227832Y343885D01*
X227875Y343895D01*
X227919Y343911D01*
X227978Y343938D01*
X228025Y343944D01*
X228091Y343951D01*
X228117Y343958D01*
X228181Y343981D01*
X228220Y343987D01*
X228280Y343994D01*
X228307Y344001D01*
X228419Y344007D01*
X228486Y344014D01*
X228847Y344017D01*
X228867Y344011D01*
X229023Y344001D01*
X229050Y344007D01*
X229083Y344034D01*
X229096Y344080D01*
X229103Y344452D01*
X229109Y344472D01*
X229116Y344498D01*
X229123Y344750D01*
X229152Y344787D01*
X229179Y344794D01*
X229298Y344787D01*
D02*
G37*
G36*
X223460Y342677D02*
X223477Y342667D01*
X223483Y342654D01*
X223510Y342594D01*
X223517Y342548D01*
X223523Y342521D01*
X223533Y342425D01*
X223553Y342306D01*
X223560Y342272D01*
X223573Y342193D01*
X223580Y342126D01*
X223586Y341987D01*
X223589Y341373D01*
X223583Y341354D01*
X223580Y341244D01*
X223583Y341148D01*
X223576Y341128D01*
X223570Y341055D01*
X223563Y341035D01*
X223556Y340836D01*
X223550Y340816D01*
X223543Y340790D01*
X223536Y340704D01*
Y340657D01*
Y340650D01*
X223530Y340451D01*
X223523Y340431D01*
X223530Y340405D01*
X223523Y340212D01*
X223500Y340183D01*
X223473Y340176D01*
X223374Y340169D01*
X223354Y340163D01*
X223221Y340156D01*
X223188Y340176D01*
X223178Y340206D01*
X223171Y340252D01*
X223178Y340358D01*
X223185Y340378D01*
X223191Y340405D01*
X223198Y340644D01*
X223205Y340664D01*
X223211Y341141D01*
X223218Y341161D01*
X223215Y342558D01*
X223221Y342584D01*
X223241Y342604D01*
X223254Y342611D01*
X223301Y342637D01*
X223387Y342677D01*
X223414Y342684D01*
X223460Y342677D01*
D02*
G37*
G36*
X222949Y345470D02*
X222969Y345464D01*
X223009Y345457D01*
X223055Y345437D01*
X223089Y345424D01*
X223132Y345414D01*
X223158Y345407D01*
X223191Y345394D01*
X223241Y345364D01*
X223284Y345348D01*
X223318Y345334D01*
X223357Y345308D01*
X223424Y345268D01*
X223447Y345251D01*
X223487Y345225D01*
X223520Y345205D01*
X223546Y345178D01*
X223560Y345172D01*
X223606Y345139D01*
X223619Y345132D01*
X223653Y345099D01*
X223666Y345092D01*
X223702Y345062D01*
X223745Y345019D01*
X223759Y345012D01*
X223798Y344973D01*
X223812Y344966D01*
X224057Y344721D01*
X224071Y344714D01*
X224107Y344684D01*
X224167Y344624D01*
X224173Y344611D01*
X224203Y344575D01*
X224213Y344565D01*
X224260Y344479D01*
X224273Y344465D01*
X224286Y344432D01*
X224293Y344406D01*
X224309Y344362D01*
X224339Y344306D01*
X224353Y344260D01*
X224359Y344233D01*
X224369Y344190D01*
X224392Y344133D01*
X224406Y344087D01*
X224412Y344060D01*
X224422Y343998D01*
X224429Y343938D01*
X224435Y343898D01*
X224449Y343832D01*
X224455Y343792D01*
X224462Y343759D01*
X224469Y343732D01*
X224475Y343586D01*
X224482Y343533D01*
X224485Y343463D01*
X224479Y343443D01*
X224485Y343397D01*
X224479Y342243D01*
X224472Y342223D01*
X224465Y341201D01*
X224459Y341181D01*
X224452Y341115D01*
X224445Y340445D01*
X224439Y340425D01*
X224432Y340398D01*
X224425Y339960D01*
X224419Y339941D01*
Y339715D01*
Y339708D01*
X224412Y339556D01*
X224406Y339536D01*
X224399Y339337D01*
X224392Y339317D01*
X224386Y339211D01*
X224379Y339144D01*
X224372Y339124D01*
X224366Y339058D01*
X224359Y338892D01*
X224353Y338872D01*
X224342Y338663D01*
X224336Y338610D01*
X224329Y338584D01*
X224323Y338551D01*
X224303Y338431D01*
X224296Y338358D01*
X224283Y338199D01*
X224276Y338159D01*
X224270Y338106D01*
X224263Y338073D01*
X224243Y337993D01*
X224233Y337904D01*
X224226Y337877D01*
X224217Y337774D01*
X224210Y337741D01*
X224197Y337708D01*
X224150Y337635D01*
X224140Y337625D01*
X224133Y337612D01*
X224094Y337572D01*
X224087Y337559D01*
X224061Y337532D01*
X224054Y337519D01*
X224041Y337506D01*
X224034Y337492D01*
X224004Y337456D01*
X223991Y337449D01*
X223961Y337419D01*
X223954Y337406D01*
X223938Y337390D01*
X223924Y337383D01*
X223895Y337353D01*
X223888Y337340D01*
X223871Y337323D01*
X223858Y337317D01*
X223835Y337293D01*
X223828Y337280D01*
X223812Y337263D01*
X223798Y337257D01*
X223775Y337234D01*
X223769Y337220D01*
X223745Y337197D01*
X223732Y337191D01*
X223702Y337161D01*
X223696Y337147D01*
X223656Y337121D01*
X223633Y337104D01*
X223606Y337078D01*
X223593Y337071D01*
X223580Y337058D01*
X223566Y337051D01*
X223546Y337031D01*
X223533Y337025D01*
X223513Y337005D01*
X223500Y336998D01*
X223487Y336985D01*
X223473Y336978D01*
X223440Y336945D01*
X223394Y336918D01*
X223374Y336899D01*
X223361Y336892D01*
X223314Y336865D01*
X223278Y336836D01*
X223195Y336786D01*
X223175Y336766D01*
X223115Y336739D01*
X223069Y336713D01*
X222983Y336673D01*
X222949Y336653D01*
X222876Y336620D01*
X222840Y336610D01*
X222787Y336577D01*
X222750Y336560D01*
X222714Y336570D01*
X222701Y336603D01*
X222694Y336630D01*
X222701Y336816D01*
X222707Y336836D01*
X222717Y336879D01*
X222754Y336962D01*
X222777Y337025D01*
X222793Y337041D01*
X222800Y337054D01*
X222813Y337068D01*
X222847Y337127D01*
X222880Y337161D01*
X222886Y337174D01*
X223019Y337307D01*
X223022Y337317D01*
X223036Y337323D01*
X223062Y337350D01*
X223075Y337356D01*
X223102Y337383D01*
X223115Y337390D01*
X223162Y337436D01*
X223175Y337443D01*
X223188Y337456D01*
X223201Y337463D01*
X223248Y337509D01*
X223294Y337536D01*
X223334Y337575D01*
X223347Y337582D01*
X223361Y337595D01*
X223374Y337602D01*
X223420Y337648D01*
X223434Y337655D01*
X223480Y337701D01*
X223493Y337708D01*
X223583Y337798D01*
X223589Y337811D01*
X223636Y337857D01*
X223643Y337871D01*
X223709Y337964D01*
X223719Y338000D01*
X223735Y338056D01*
X223749Y338109D01*
X223759Y338153D01*
X223772Y338219D01*
X223779Y338272D01*
X223785Y338345D01*
X223798Y338424D01*
X223805Y338484D01*
X223812Y338511D01*
X223828Y338567D01*
X223838Y338663D01*
X223852Y338836D01*
X223858Y338902D01*
X223865Y338929D01*
X223875Y339018D01*
X223885Y339081D01*
X223895Y339171D01*
X223901Y339310D01*
X223908Y339330D01*
X223918Y339685D01*
X223931Y339758D01*
X223938Y340096D01*
X223944Y340123D01*
X223951Y340156D01*
X223958Y340335D01*
X223961Y340345D01*
X223954Y340365D01*
X223958Y340388D01*
X223954Y340425D01*
X223961Y340445D01*
X223954Y340471D01*
X223958Y340660D01*
X223954Y340723D01*
X223961Y340743D01*
X223968Y340849D01*
X223974Y342017D01*
X223981Y342037D01*
X223988Y342614D01*
X223994Y342634D01*
X224001Y342681D01*
X223994Y343364D01*
X223988Y343384D01*
X223981Y343410D01*
X223974Y343616D01*
X223968Y343636D01*
X223961Y343762D01*
X223954Y343782D01*
X223944Y343818D01*
X223915Y343915D01*
X223905Y343978D01*
X223898Y344011D01*
X223878Y344064D01*
X223868Y344074D01*
X223855Y344107D01*
X223842Y344160D01*
X223828Y344193D01*
X223788Y344260D01*
X223775Y344293D01*
X223755Y344326D01*
X223729Y344352D01*
X223722Y344366D01*
X223692Y344395D01*
X223679Y344402D01*
X223662Y344419D01*
X223656Y344432D01*
X223639Y344449D01*
X223626Y344455D01*
X223613Y344468D01*
X223599Y344475D01*
X223560Y344515D01*
X223546Y344522D01*
X223523Y344545D01*
X223517Y344558D01*
X223493Y344581D01*
X223480Y344588D01*
X223464Y344604D01*
X223457Y344618D01*
X223434Y344641D01*
X223420Y344648D01*
X223380Y344687D01*
X223367Y344694D01*
X223354Y344707D01*
X223341Y344714D01*
X223318Y344737D01*
X223311Y344750D01*
X223271Y344784D01*
X223251Y344804D01*
X223248Y344813D01*
X223235Y344820D01*
X223221Y344833D01*
X223208Y344840D01*
X223195Y344853D01*
X223182Y344860D01*
X223128Y344913D01*
X223115Y344920D01*
X222966Y345069D01*
X222959Y345082D01*
X222900Y345142D01*
X222893Y345155D01*
X222863Y345192D01*
X222840Y345215D01*
X222833Y345228D01*
X222813Y345248D01*
X222807Y345261D01*
X222767Y345301D01*
X222760Y345314D01*
X222730Y345351D01*
X222714Y345368D01*
X222707Y345381D01*
X222687Y345401D01*
X222674Y345434D01*
X222681Y345460D01*
X222691Y345470D01*
X222717Y345477D01*
X222949Y345470D01*
D02*
G37*
D11*
X222000Y397000D02*
X222500Y396500D01*
X380584Y401857D02*
X459584D01*
Y346357D02*
Y401857D01*
X380584Y346357D02*
X459584D01*
X380584D02*
Y401857D01*
X401815Y336105D02*
X398341D01*
Y330894D01*
X401815D01*
X398341Y333500D02*
X400078D01*
X407026Y335237D02*
X406158Y336105D01*
X404421D01*
X403552Y335237D01*
Y334368D01*
X404421Y333500D01*
X406158D01*
X407026Y332631D01*
Y331763D01*
X406158Y330894D01*
X404421D01*
X403552Y331763D01*
X408763Y330894D02*
Y336105D01*
X411369D01*
X412237Y335237D01*
Y333500D01*
X411369Y332631D01*
X408763D01*
X413974Y335237D02*
X414842Y336105D01*
X416579D01*
X417448Y335237D01*
Y334368D01*
X416579Y333500D01*
X415711D01*
X416579D01*
X417448Y332631D01*
Y331763D01*
X416579Y330894D01*
X414842D01*
X413974Y331763D01*
X422659Y330894D02*
X419185D01*
X422659Y334368D01*
Y335237D01*
X421790Y336105D01*
X420053D01*
X419185Y335237D01*
X223999Y252752D02*
X218001D01*
Y255751D01*
X219001Y256750D01*
X221000D01*
X222000Y255751D01*
Y252752D01*
Y254751D02*
X223999Y256750D01*
Y262748D02*
Y258750D01*
X220000Y262748D01*
X219001D01*
X218001Y261749D01*
Y259749D01*
X219001Y258750D01*
X440003Y350001D02*
Y355999D01*
X442002Y354000D01*
X444001Y355999D01*
Y350001D01*
X446001D02*
Y355999D01*
X449000D01*
X449999Y354999D01*
Y353000D01*
X449000Y352000D01*
X446001D01*
X451999Y355999D02*
Y351001D01*
X452998Y350001D01*
X454998D01*
X455997Y351001D01*
Y355999D01*
X258999Y387996D02*
Y391995D01*
X256000D01*
Y389996D01*
Y391995D01*
X253001D01*
Y385997D02*
Y383998D01*
Y384997D01*
X258999D01*
Y385997D01*
X253001Y377999D02*
Y379999D01*
X254001Y380998D01*
X256000D01*
X257000Y379999D01*
Y377999D01*
X256000Y377000D01*
X255000D01*
Y380998D01*
X257000Y375001D02*
X253001Y371002D01*
X255000Y373001D01*
X257000Y371002D01*
X253001Y375001D01*
Y363004D02*
Y361005D01*
Y362005D01*
X258999D01*
X257999Y363004D01*
X223999Y315502D02*
X218001D01*
Y318501D01*
X219001Y319500D01*
X221000D01*
X222000Y318501D01*
Y315502D01*
Y317501D02*
X223999Y319500D01*
X218001Y325498D02*
Y321500D01*
X221000D01*
X220000Y323499D01*
Y324499D01*
X221000Y325498D01*
X222999D01*
X223999Y324499D01*
Y322499D01*
X222999Y321500D01*
X223999Y293752D02*
X218001D01*
Y296751D01*
X219001Y297750D01*
X221000D01*
X222000Y296751D01*
Y293752D01*
Y295751D02*
X223999Y297750D01*
Y302749D02*
X218001D01*
X221000Y299750D01*
Y303748D01*
X223499Y274002D02*
X217501D01*
Y277001D01*
X218501Y278000D01*
X220500D01*
X221500Y277001D01*
Y274002D01*
Y276001D02*
X223499Y278000D01*
X218501Y280000D02*
X217501Y280999D01*
Y282999D01*
X218501Y283998D01*
X219500D01*
X220500Y282999D01*
Y281999D01*
Y282999D01*
X221500Y283998D01*
X222499D01*
X223499Y282999D01*
Y280999D01*
X222499Y280000D01*
X223999Y233001D02*
X218001D01*
Y236000D01*
X219001Y237000D01*
X221000D01*
X222000Y236000D01*
Y233001D01*
Y235001D02*
X223999Y237000D01*
Y238999D02*
Y240999D01*
Y239999D01*
X218001D01*
X219001Y238999D01*
X362999Y388496D02*
Y392495D01*
X360000D01*
Y390495D01*
Y392495D01*
X357001D01*
Y386497D02*
Y384497D01*
Y385497D01*
X362999D01*
Y386497D01*
X357001Y378499D02*
Y380499D01*
X358001Y381498D01*
X360000D01*
X361000Y380499D01*
Y378499D01*
X360000Y377500D01*
X359000D01*
Y381498D01*
X361000Y375500D02*
X357001Y371501D01*
X359000Y373501D01*
X361000Y371501D01*
X357001Y375500D01*
X362999Y359505D02*
Y363504D01*
X360000D01*
X361000Y361505D01*
Y360505D01*
X360000Y359505D01*
X358001D01*
X357001Y360505D01*
Y362504D01*
X358001Y363504D01*
X337624Y388496D02*
Y392495D01*
X334625D01*
Y390495D01*
Y392495D01*
X331626D01*
Y386497D02*
Y384497D01*
Y385497D01*
X337624D01*
Y386497D01*
X331626Y378499D02*
Y380499D01*
X332626Y381498D01*
X334625D01*
X335625Y380499D01*
Y378499D01*
X334625Y377500D01*
X333625D01*
Y381498D01*
X335625Y375500D02*
X331626Y371501D01*
X333625Y373501D01*
X335625Y371501D01*
X331626Y375500D01*
Y360505D02*
X337624D01*
X334625Y363504D01*
Y359505D01*
X311249Y387996D02*
Y391995D01*
X308250D01*
Y389995D01*
Y391995D01*
X305251D01*
Y385997D02*
Y383997D01*
Y384997D01*
X311249D01*
Y385997D01*
X305251Y377999D02*
Y379998D01*
X306251Y380998D01*
X308250D01*
X309250Y379998D01*
Y377999D01*
X308250Y376999D01*
X307250D01*
Y380998D01*
X309250Y375000D02*
X305251Y371002D01*
X307250Y373001D01*
X309250Y371002D01*
X305251Y375000D01*
X310249Y363004D02*
X311249Y362004D01*
Y360005D01*
X310249Y359005D01*
X309250D01*
X308250Y360005D01*
Y361005D01*
Y360005D01*
X307250Y359005D01*
X306251D01*
X305251Y360005D01*
Y362004D01*
X306251Y363004D01*
X286374Y387496D02*
Y391495D01*
X283375D01*
Y389495D01*
Y391495D01*
X280376D01*
Y385497D02*
Y383497D01*
Y384497D01*
X286374D01*
Y385497D01*
X280376Y377499D02*
Y379499D01*
X281376Y380498D01*
X283375D01*
X284375Y379499D01*
Y377499D01*
X283375Y376500D01*
X282375D01*
Y380498D01*
X284375Y374500D02*
X280376Y370501D01*
X282375Y372501D01*
X284375Y370501D01*
X280376Y374500D01*
Y358505D02*
Y362504D01*
X284375Y358505D01*
X285374D01*
X286374Y359505D01*
Y361504D01*
X285374Y362504D01*
D21*
X443055Y331114D02*
G03*
X443055Y331114I-394J0D01*
G01*
X261500Y320000D02*
X265500D01*
X233500D02*
X237500D01*
Y316000D02*
X261500D01*
Y324000D01*
X237500D02*
X261500D01*
X237500Y316000D02*
Y324000D01*
Y253500D02*
Y261500D01*
X261500D01*
Y253500D02*
Y261500D01*
X237500Y253500D02*
X261500D01*
X233500Y257500D02*
X237500D01*
X261500D02*
X265500D01*
X445000Y384000D02*
Y389000D01*
X395000Y384000D02*
X445000D01*
X395000D02*
Y389000D01*
X398333Y370667D02*
Y384000D01*
Y370667D02*
X400000Y369000D01*
X401667Y370667D01*
Y384000D01*
X408333Y370667D02*
Y384000D01*
Y370667D02*
X410000Y369000D01*
X411667Y370667D01*
Y384000D01*
X418333Y370667D02*
Y384000D01*
Y370667D02*
X420000Y369000D01*
X421667Y370667D01*
Y384000D01*
X428333Y370667D02*
Y384000D01*
Y370667D02*
X430000Y369000D01*
X431667Y370667D01*
Y384000D01*
X438333Y370667D02*
Y384000D01*
Y370667D02*
X440000Y369000D01*
X441667Y370667D01*
Y384000D01*
X395000Y389000D02*
X445000D01*
X345500Y366500D02*
X353500D01*
X345500D02*
Y390500D01*
X353500D01*
Y366500D02*
Y390500D01*
X349500Y362500D02*
Y366500D01*
Y390500D02*
Y394500D01*
X319625Y366500D02*
X327625D01*
X319625D02*
Y390500D01*
X327625D01*
Y366500D02*
Y390500D01*
X323625Y362500D02*
Y366500D01*
Y390500D02*
Y394500D01*
X293750Y366500D02*
X301750D01*
X293750D02*
Y390500D01*
X301750D01*
Y366500D02*
Y390500D01*
X297750Y362500D02*
Y366500D01*
Y390500D02*
Y394500D01*
X267875Y366500D02*
X275875D01*
X267875D02*
Y390500D01*
X275875D01*
Y366500D02*
Y390500D01*
X271875Y362500D02*
Y366500D01*
Y390500D02*
Y394500D01*
X242000Y366500D02*
X250000D01*
X242000D02*
Y390500D01*
X250000D01*
Y366500D02*
Y390500D01*
X246000Y362500D02*
Y366500D01*
Y390500D02*
Y394500D01*
X237500Y294500D02*
Y302500D01*
X261500D01*
Y294500D02*
Y302500D01*
X237500Y294500D02*
X261500D01*
X233500Y298500D02*
X237500D01*
X261500D02*
X265500D01*
X237500Y274500D02*
Y282500D01*
X261500D01*
Y274500D02*
Y282500D01*
X237500Y274500D02*
X261500D01*
X233500Y278500D02*
X237500D01*
X261500D02*
X265500D01*
X237500Y233000D02*
Y241000D01*
X261500D01*
Y233000D02*
Y241000D01*
X237500Y233000D02*
X261500D01*
X233500Y237000D02*
X237500D01*
X261500D02*
X265500D01*
X389701Y407436D02*
Y404812D01*
X391013Y403500D01*
X392325Y404812D01*
Y407436D01*
X393636D02*
X394949D01*
X394292D01*
Y403500D01*
X393636D01*
X394949D01*
X396916D02*
Y407436D01*
X399540Y403500D01*
Y407436D01*
X405149Y406780D02*
X404494Y407436D01*
X403182D01*
X402526Y406780D01*
Y404156D01*
X403182Y403500D01*
X404494D01*
X405149Y404156D01*
Y405468D01*
X403837D01*
X406461Y403500D02*
Y407436D01*
X409085Y403500D01*
Y407436D01*
X410397D02*
Y403500D01*
X412365D01*
X413021Y404156D01*
Y406780D01*
X412365Y407436D01*
X410397D01*
X417974Y406780D02*
X417318Y407436D01*
X416006D01*
X415350Y406780D01*
Y406124D01*
X416006Y405468D01*
X417318D01*
X417974Y404812D01*
Y404156D01*
X417318Y403500D01*
X416006D01*
X415350Y404156D01*
X419286Y407436D02*
Y403500D01*
X421254D01*
X421910Y404156D01*
Y406780D01*
X421254Y407436D01*
X419286D01*
X423222Y403500D02*
Y406124D01*
X424534Y407436D01*
X425846Y406124D01*
Y403500D01*
Y405468D01*
X423222D01*
X430799Y406780D02*
X430143Y407436D01*
X428831D01*
X428175Y406780D01*
Y406124D01*
X428831Y405468D01*
X430143D01*
X430799Y404812D01*
Y404156D01*
X430143Y403500D01*
X428831D01*
X428175Y404156D01*
X434735Y406780D02*
X434079Y407436D01*
X432767D01*
X432111Y406780D01*
Y404156D01*
X432767Y403500D01*
X434079D01*
X434735Y404156D01*
X436047Y407436D02*
Y403500D01*
X438670D01*
X441000Y407436D02*
X442312D01*
X441656D01*
Y403500D01*
X441000D01*
X442312D01*
X444280D02*
Y407436D01*
X446904Y403500D01*
Y407436D01*
X448215D02*
X450839D01*
X449527D01*
Y403500D01*
D22*
X281283Y216626D02*
X481874D01*
X281283D02*
Y328870D01*
X481874Y216626D02*
Y328870D01*
X281283D02*
X481874D01*
Y285291D02*
Y328870D01*
Y258870D02*
Y285291D01*
Y216626D02*
Y258870D01*
X281283Y328870D02*
X481874D01*
X281283Y216626D02*
X481874D01*
X281283Y307728D02*
Y328870D01*
Y238083D02*
Y307728D01*
Y216626D02*
Y238083D01*
X221711Y389263D02*
X216500D01*
X221711Y391000D02*
Y387526D01*
X218485Y386905D02*
Y383927D01*
X218982D01*
X219478Y384175D01*
X219726Y384424D01*
X219974Y384920D01*
Y385664D01*
X219726Y386161D01*
X219230Y386657D01*
X218485Y386905D01*
X217989D01*
X217245Y386657D01*
X216748Y386161D01*
X216500Y385664D01*
Y384920D01*
X216748Y384424D01*
X217245Y383927D01*
X221711Y379833D02*
X216500D01*
X219230D02*
X219726Y380329D01*
X219974Y380825D01*
Y381570D01*
X219726Y382066D01*
X219230Y382562D01*
X218485Y382810D01*
X217989D01*
X217245Y382562D01*
X216748Y382066D01*
X216500Y381570D01*
Y380825D01*
X216748Y380329D01*
X217245Y379833D01*
X221711Y377946D02*
X221463Y377698D01*
X221711Y377450D01*
X221960Y377698D01*
X221711Y377946D01*
X219974Y377698D02*
X216500D01*
Y368466D02*
X221711Y370452D01*
X216500Y372437D01*
X218237Y371693D02*
Y369211D01*
X219974Y367250D02*
X216500Y365761D01*
X219974Y364272D02*
X216500Y365761D01*
X219974Y363429D02*
X216500D01*
X218485D02*
X219230Y363181D01*
X219726Y362684D01*
X219974Y362188D01*
Y361443D01*
Y357994D02*
X216500D01*
X219230D02*
X219726Y358490D01*
X219974Y358987D01*
Y359731D01*
X219726Y360227D01*
X219230Y360724D01*
X218485Y360972D01*
X217989D01*
X217245Y360724D01*
X216748Y360227D01*
X216500Y359731D01*
Y358987D01*
X216748Y358490D01*
X217245Y357994D01*
X219974Y353874D02*
X216500Y356604D01*
X219974D02*
Y353874D01*
X216500Y356604D02*
Y353874D01*
X221711Y352286D02*
X221463Y352038D01*
X221711Y351790D01*
X221960Y352038D01*
X221711Y352286D01*
X219974Y352038D02*
X216500D01*
M02*
